<mxfile host="app.diagrams.net" modified="2022-07-30T13:25:37.072Z" agent="5.0 (Macintosh; Intel Mac OS X 10_15_7) AppleWebKit/537.36 (KHTML, like Gecko) Chrome/103.0.0.0 Safari/537.36" etag="M_nAo6C0zPxJ3iE9XgQ4" version="20.2.2" type="github">
  <diagram id="JH9SQdgqdGNoAPnBVBwr" name="第 1 页">
    <mxGraphModel dx="2131" dy="2150" grid="1" gridSize="10" guides="1" tooltips="1" connect="1" arrows="1" fold="1" page="1" pageScale="1" pageWidth="827" pageHeight="1169" math="0" shadow="0">
      <root>
        <mxCell id="0" />
        <mxCell id="1" parent="0" />
        <mxCell id="s-YMFUuvhOY8qppPqjC8-45" value="" style="rounded=0;whiteSpace=wrap;html=1;fontFamily=Helvetica;fontSize=11;fontColor=default;fillStyle=dashed;strokeColor=#FF6666;dashed=1;" vertex="1" parent="1">
          <mxGeometry x="20" y="20" width="520" height="360" as="geometry" />
        </mxCell>
        <mxCell id="s-YMFUuvhOY8qppPqjC8-4" value="&lt;div style=&quot;text-align: left;&quot;&gt;&lt;span style=&quot;background-color: initial;&quot;&gt;&lt;sup&gt;IP地址：&lt;/sup&gt;&lt;/span&gt;&lt;/div&gt;&lt;div style=&quot;text-align: left;&quot;&gt;&lt;span style=&quot;background-color: initial;&quot;&gt;&lt;sup&gt;MAC地址：&lt;/sup&gt;&lt;/span&gt;&lt;/div&gt;&lt;div style=&quot;text-align: left;&quot;&gt;&lt;span style=&quot;background-color: initial;&quot;&gt;&lt;sup&gt;子网掩码：&lt;/sup&gt;&lt;/span&gt;&lt;/div&gt;&lt;div style=&quot;text-align: left;&quot;&gt;&lt;span style=&quot;background-color: initial;&quot;&gt;&lt;sup&gt;默认网关：&lt;/sup&gt;&lt;/span&gt;&lt;/div&gt;" style="text;html=1;align=center;verticalAlign=middle;resizable=0;points=[];autosize=1;strokeColor=none;fillColor=none;" vertex="1" parent="1">
          <mxGeometry x="120" y="40" width="90" height="90" as="geometry" />
        </mxCell>
        <mxCell id="s-YMFUuvhOY8qppPqjC8-21" style="edgeStyle=orthogonalEdgeStyle;rounded=0;orthogonalLoop=1;jettySize=auto;html=1;exitX=0.5;exitY=1;exitDx=0;exitDy=0;" edge="1" parent="1" source="s-YMFUuvhOY8qppPqjC8-8" target="s-YMFUuvhOY8qppPqjC8-9">
          <mxGeometry relative="1" as="geometry" />
        </mxCell>
        <mxCell id="s-YMFUuvhOY8qppPqjC8-8" value="交换机" style="rounded=1;whiteSpace=wrap;html=1;strokeWidth=2;fillWeight=4;hachureGap=8;hachureAngle=45;fillColor=#dae8fc;sketch=1;strokeColor=#6c8ebf;" vertex="1" parent="1">
          <mxGeometry x="210" y="290" width="120" height="60" as="geometry" />
        </mxCell>
        <mxCell id="s-YMFUuvhOY8qppPqjC8-9" value="路由器" style="rounded=1;whiteSpace=wrap;html=1;strokeWidth=2;fillWeight=4;hachureGap=8;hachureAngle=45;fillColor=#ffe6cc;sketch=1;strokeColor=#d79b00;" vertex="1" parent="1">
          <mxGeometry x="210" y="410" width="120" height="60" as="geometry" />
        </mxCell>
        <mxCell id="s-YMFUuvhOY8qppPqjC8-28" style="edgeStyle=orthogonalEdgeStyle;rounded=1;orthogonalLoop=1;jettySize=auto;html=1;exitX=0.5;exitY=1;exitDx=0;exitDy=0;" edge="1" parent="1" source="s-YMFUuvhOY8qppPqjC8-10" target="s-YMFUuvhOY8qppPqjC8-8">
          <mxGeometry relative="1" as="geometry" />
        </mxCell>
        <mxCell id="s-YMFUuvhOY8qppPqjC8-10" value="终端" style="rounded=1;whiteSpace=wrap;html=1;strokeWidth=2;fillWeight=4;hachureGap=8;hachureAngle=45;fillColor=#d5e8d4;sketch=1;strokeColor=#82b366;" vertex="1" parent="1">
          <mxGeometry x="120" y="140" width="120" height="60" as="geometry" />
        </mxCell>
        <mxCell id="s-YMFUuvhOY8qppPqjC8-29" style="edgeStyle=orthogonalEdgeStyle;rounded=1;orthogonalLoop=1;jettySize=auto;html=1;exitX=0.5;exitY=1;exitDx=0;exitDy=0;" edge="1" parent="1" source="s-YMFUuvhOY8qppPqjC8-11">
          <mxGeometry relative="1" as="geometry">
            <mxPoint x="270" y="290" as="targetPoint" />
          </mxGeometry>
        </mxCell>
        <mxCell id="s-YMFUuvhOY8qppPqjC8-11" value="终端" style="rounded=1;whiteSpace=wrap;html=1;strokeWidth=2;fillWeight=4;hachureGap=8;hachureAngle=45;fillColor=#d5e8d4;sketch=1;strokeColor=#82b366;" vertex="1" parent="1">
          <mxGeometry x="300" y="140" width="120" height="60" as="geometry" />
        </mxCell>
        <mxCell id="s-YMFUuvhOY8qppPqjC8-12" value="路由器" style="rounded=1;whiteSpace=wrap;html=1;strokeWidth=2;fillWeight=4;hachureGap=8;hachureAngle=45;fillColor=#ffe6cc;sketch=1;strokeColor=#d79b00;" vertex="1" parent="1">
          <mxGeometry x="730" y="410" width="120" height="60" as="geometry" />
        </mxCell>
        <mxCell id="s-YMFUuvhOY8qppPqjC8-24" style="edgeStyle=none;rounded=1;orthogonalLoop=1;jettySize=auto;html=1;exitX=0.5;exitY=0;exitDx=0;exitDy=0;entryX=0.5;entryY=1;entryDx=0;entryDy=0;" edge="1" parent="1" source="s-YMFUuvhOY8qppPqjC8-13" target="s-YMFUuvhOY8qppPqjC8-9">
          <mxGeometry relative="1" as="geometry" />
        </mxCell>
        <mxCell id="s-YMFUuvhOY8qppPqjC8-13" value="交换机" style="rounded=1;whiteSpace=wrap;html=1;strokeWidth=2;fillWeight=4;hachureGap=8;hachureAngle=45;fillColor=#dae8fc;sketch=1;strokeColor=#6c8ebf;" vertex="1" parent="1">
          <mxGeometry x="210" y="530" width="120" height="60" as="geometry" />
        </mxCell>
        <mxCell id="s-YMFUuvhOY8qppPqjC8-26" style="edgeStyle=orthogonalEdgeStyle;rounded=1;orthogonalLoop=1;jettySize=auto;html=1;exitX=0.5;exitY=0;exitDx=0;exitDy=0;entryX=0.5;entryY=1;entryDx=0;entryDy=0;" edge="1" parent="1" source="s-YMFUuvhOY8qppPqjC8-14" target="s-YMFUuvhOY8qppPqjC8-13">
          <mxGeometry relative="1" as="geometry" />
        </mxCell>
        <mxCell id="s-YMFUuvhOY8qppPqjC8-14" value="终端" style="rounded=1;whiteSpace=wrap;html=1;strokeWidth=2;fillWeight=4;hachureGap=8;hachureAngle=45;fillColor=#d5e8d4;sketch=1;strokeColor=#82b366;" vertex="1" parent="1">
          <mxGeometry x="110" y="660" width="120" height="60" as="geometry" />
        </mxCell>
        <mxCell id="s-YMFUuvhOY8qppPqjC8-27" style="edgeStyle=orthogonalEdgeStyle;rounded=1;orthogonalLoop=1;jettySize=auto;html=1;exitX=0.5;exitY=0;exitDx=0;exitDy=0;entryX=0.5;entryY=1;entryDx=0;entryDy=0;" edge="1" parent="1" source="s-YMFUuvhOY8qppPqjC8-15" target="s-YMFUuvhOY8qppPqjC8-13">
          <mxGeometry relative="1" as="geometry" />
        </mxCell>
        <mxCell id="s-YMFUuvhOY8qppPqjC8-15" value="终端" style="rounded=1;whiteSpace=wrap;html=1;strokeWidth=2;fillWeight=4;hachureGap=8;hachureAngle=45;fillColor=#d5e8d4;sketch=1;strokeColor=#82b366;" vertex="1" parent="1">
          <mxGeometry x="310" y="660" width="120" height="60" as="geometry" />
        </mxCell>
        <mxCell id="s-YMFUuvhOY8qppPqjC8-54" style="edgeStyle=orthogonalEdgeStyle;shape=connector;rounded=1;orthogonalLoop=1;jettySize=auto;html=1;labelBackgroundColor=default;fontFamily=Comic Sans MS;fontSize=14;fontColor=default;endArrow=classic;strokeColor=default;" edge="1" parent="1" source="s-YMFUuvhOY8qppPqjC8-16" target="s-YMFUuvhOY8qppPqjC8-53">
          <mxGeometry relative="1" as="geometry" />
        </mxCell>
        <mxCell id="s-YMFUuvhOY8qppPqjC8-16" value="交换机" style="rounded=1;whiteSpace=wrap;html=1;strokeWidth=2;fillWeight=4;hachureGap=8;hachureAngle=45;fillColor=#dae8fc;sketch=1;strokeColor=#6c8ebf;" vertex="1" parent="1">
          <mxGeometry x="730" y="530" width="120" height="60" as="geometry" />
        </mxCell>
        <mxCell id="s-YMFUuvhOY8qppPqjC8-41" style="edgeStyle=orthogonalEdgeStyle;shape=connector;rounded=1;orthogonalLoop=1;jettySize=auto;html=1;exitX=0.5;exitY=0;exitDx=0;exitDy=0;entryX=0.5;entryY=1;entryDx=0;entryDy=0;labelBackgroundColor=default;fontFamily=Helvetica;fontSize=11;fontColor=default;endArrow=classic;strokeColor=default;" edge="1" parent="1" source="s-YMFUuvhOY8qppPqjC8-17" target="s-YMFUuvhOY8qppPqjC8-16">
          <mxGeometry relative="1" as="geometry" />
        </mxCell>
        <mxCell id="s-YMFUuvhOY8qppPqjC8-17" value="终端" style="rounded=1;whiteSpace=wrap;html=1;strokeWidth=2;fillWeight=4;hachureGap=8;hachureAngle=45;fillColor=#d5e8d4;sketch=1;strokeColor=#82b366;" vertex="1" parent="1">
          <mxGeometry x="610" y="660" width="120" height="60" as="geometry" />
        </mxCell>
        <mxCell id="s-YMFUuvhOY8qppPqjC8-43" style="edgeStyle=orthogonalEdgeStyle;shape=connector;rounded=1;orthogonalLoop=1;jettySize=auto;html=1;exitX=0.5;exitY=0;exitDx=0;exitDy=0;labelBackgroundColor=default;fontFamily=Helvetica;fontSize=11;fontColor=default;endArrow=classic;strokeColor=default;" edge="1" parent="1" source="s-YMFUuvhOY8qppPqjC8-18" target="s-YMFUuvhOY8qppPqjC8-16">
          <mxGeometry relative="1" as="geometry" />
        </mxCell>
        <mxCell id="s-YMFUuvhOY8qppPqjC8-18" value="终端" style="rounded=1;whiteSpace=wrap;html=1;strokeWidth=2;fillWeight=4;hachureGap=8;hachureAngle=45;fillColor=#d5e8d4;sketch=1;strokeColor=#82b366;" vertex="1" parent="1">
          <mxGeometry x="860" y="660" width="120" height="60" as="geometry" />
        </mxCell>
        <mxCell id="s-YMFUuvhOY8qppPqjC8-36" value="" style="endArrow=none;html=1;rounded=1;labelBackgroundColor=default;fontFamily=Helvetica;fontSize=11;fontColor=default;strokeColor=default;shape=connector;entryX=0.5;entryY=1;entryDx=0;entryDy=0;exitX=0.5;exitY=0;exitDx=0;exitDy=0;" edge="1" parent="1" source="s-YMFUuvhOY8qppPqjC8-16" target="s-YMFUuvhOY8qppPqjC8-12">
          <mxGeometry width="50" height="50" relative="1" as="geometry">
            <mxPoint x="450" y="460" as="sourcePoint" />
            <mxPoint x="500" y="410" as="targetPoint" />
          </mxGeometry>
        </mxCell>
        <mxCell id="s-YMFUuvhOY8qppPqjC8-37" value="" style="endArrow=none;html=1;rounded=1;labelBackgroundColor=default;fontFamily=Helvetica;fontSize=11;fontColor=default;strokeColor=default;shape=connector;exitX=1;exitY=0.5;exitDx=0;exitDy=0;entryX=0;entryY=0.5;entryDx=0;entryDy=0;" edge="1" parent="1" source="s-YMFUuvhOY8qppPqjC8-9" target="s-YMFUuvhOY8qppPqjC8-12">
          <mxGeometry width="50" height="50" relative="1" as="geometry">
            <mxPoint x="350" y="450" as="sourcePoint" />
            <mxPoint x="400" y="400" as="targetPoint" />
          </mxGeometry>
        </mxCell>
        <mxCell id="s-YMFUuvhOY8qppPqjC8-46" value="&lt;font style=&quot;font-size: 18px;&quot; face=&quot;Comic Sans MS&quot;&gt;同一子网&lt;/font&gt;" style="text;strokeColor=none;fillColor=none;html=1;fontSize=24;fontStyle=1;verticalAlign=middle;align=center;dashed=1;fillStyle=dashed;fontFamily=Helvetica;fontColor=default;" vertex="1" parent="1">
          <mxGeometry x="420" y="240" width="100" height="40" as="geometry" />
        </mxCell>
        <mxCell id="s-YMFUuvhOY8qppPqjC8-48" value="&lt;ul style=&quot;text-align: left;&quot;&gt;&lt;li style=&quot;margin: 0px; padding: 0px; outline: 0px; max-width: 100%; letter-spacing: 0.5px; box-sizing: border-box !important; overflow-wrap: break-word !important;&quot;&gt;&lt;p style=&quot;margin: 5px 0.5em; padding: 0px; outline: 0px; max-width: 100%; clear: both; min-height: 1em; color: rgb(51, 51, 51); letter-spacing: 0px; line-height: 1.75; box-sizing: border-box !important; overflow-wrap: break-word !important;&quot;&gt;&lt;span style=&quot;margin: 0px; padding: 0px; outline: 0px; max-width: 100%; letter-spacing: 0.5px; box-sizing: border-box !important; overflow-wrap: break-word !important;&quot;&gt;&lt;font style=&quot;font-size: 14px;&quot;&gt;首先我要知道我的 IP 以及对方的 IP&lt;/font&gt;&lt;/span&gt;&lt;/p&gt;&lt;/li&gt;&lt;li style=&quot;margin: 0px; padding: 0px; outline: 0px; max-width: 100%; letter-spacing: 0.5px; box-sizing: border-box !important; overflow-wrap: break-word !important;&quot;&gt;&lt;p style=&quot;margin: 5px 0.5em; padding: 0px; outline: 0px; max-width: 100%; clear: both; min-height: 1em; color: rgb(51, 51, 51); letter-spacing: 0px; line-height: 1.75; box-sizing: border-box !important; overflow-wrap: break-word !important;&quot;&gt;&lt;font style=&quot;font-size: 14px;&quot;&gt;&lt;span style=&quot;letter-spacing: 0.5px; font-family: system-ui, -apple-system, &amp;quot;system-ui&amp;quot;, &amp;quot;Helvetica Neue&amp;quot;, &amp;quot;PingFang SC&amp;quot;, &amp;quot;Hiragino Sans GB&amp;quot;, &amp;quot;Microsoft YaHei UI&amp;quot;, &amp;quot;Microsoft YaHei&amp;quot;, Arial, sans-serif;&quot;&gt;通过子网掩码判断我们是否在同一个子网&lt;/span&gt;&lt;span style=&quot;margin: 0px; padding: 0px; outline: 0px; max-width: 100%; letter-spacing: 0.5px; box-sizing: border-box !important; overflow-wrap: break-word !important;&quot;&gt;&lt;/span&gt;&lt;/font&gt;&lt;/p&gt;&lt;/li&gt;&lt;li style=&quot;margin: 0px; padding: 0px; outline: 0px; max-width: 100%; letter-spacing: 0.5px; box-sizing: border-box !important; overflow-wrap: break-word !important;&quot;&gt;&lt;p style=&quot;margin: 5px 0.5em; padding: 0px; outline: 0px; max-width: 100%; clear: both; min-height: 1em; color: rgb(51, 51, 51); letter-spacing: 0px; line-height: 1.75; box-sizing: border-box !important; overflow-wrap: break-word !important;&quot;&gt;&lt;font style=&quot;font-size: 14px;&quot;&gt;&lt;span style=&quot;letter-spacing: 0.5px; font-family: system-ui, -apple-system, &amp;quot;system-ui&amp;quot;, &amp;quot;Helvetica Neue&amp;quot;, &amp;quot;PingFang SC&amp;quot;, &amp;quot;Hiragino Sans GB&amp;quot;, &amp;quot;Microsoft YaHei UI&amp;quot;, &amp;quot;Microsoft YaHei&amp;quot;, Arial, sans-serif;&quot;&gt;在同一个子网就通过 arp 获取对方 mac 地址直接扔出去&lt;/span&gt;&lt;span style=&quot;letter-spacing: 0.5px; font-family: system-ui, -apple-system, &amp;quot;system-ui&amp;quot;, &amp;quot;Helvetica Neue&amp;quot;, &amp;quot;PingFang SC&amp;quot;, &amp;quot;Hiragino Sans GB&amp;quot;, &amp;quot;Microsoft YaHei UI&amp;quot;, &amp;quot;Microsoft YaHei&amp;quot;, Arial, sans-serif;&quot;&gt;&lt;/span&gt;&lt;/font&gt;&lt;/p&gt;&lt;/li&gt;&lt;li style=&quot;margin: 0px; padding: 0px; outline: 0px; max-width: 100%; letter-spacing: 0.5px; box-sizing: border-box !important; overflow-wrap: break-word !important;&quot;&gt;&lt;p style=&quot;margin: 5px 0.5em; padding: 0px; outline: 0px; max-width: 100%; clear: both; min-height: 1em; color: rgb(51, 51, 51); letter-spacing: 0px; line-height: 1.75; box-sizing: border-box !important; overflow-wrap: break-word !important;&quot;&gt;&lt;span style=&quot;letter-spacing: 0.5px; font-family: system-ui, -apple-system, &amp;quot;system-ui&amp;quot;, &amp;quot;Helvetica Neue&amp;quot;, &amp;quot;PingFang SC&amp;quot;, &amp;quot;Hiragino Sans GB&amp;quot;, &amp;quot;Microsoft YaHei UI&amp;quot;, &amp;quot;Microsoft YaHei&amp;quot;, Arial, sans-serif;&quot;&gt;&lt;font style=&quot;font-size: 14px;&quot;&gt;不在同一个子网就通过 arp 获取默认网关的 mac 地址直接扔出去&lt;/font&gt;&lt;/span&gt;&lt;/p&gt;&lt;/li&gt;&lt;/ul&gt;" style="whiteSpace=wrap;html=1;rounded=1;arcSize=50;align=center;verticalAlign=middle;strokeWidth=1;autosize=1;spacing=4;treeFolding=1;treeMoving=1;newEdgeStyle={&quot;edgeStyle&quot;:&quot;entityRelationEdgeStyle&quot;,&quot;startArrow&quot;:&quot;none&quot;,&quot;endArrow&quot;:&quot;none&quot;,&quot;segment&quot;:10,&quot;curved&quot;:1};dashed=1;labelBackgroundColor=none;fillStyle=auto;fontFamily=Comic Sans MS;fontSize=18;opacity=80;fillColor=#e1d5e7;strokeColor=#9673a6;comic=1;" vertex="1" parent="1">
          <mxGeometry x="480" y="-160" width="520" height="200" as="geometry" />
        </mxCell>
        <mxCell id="s-YMFUuvhOY8qppPqjC8-49" value="" style="edgeStyle=entityRelationEdgeStyle;startArrow=none;endArrow=none;segment=10;curved=1;rounded=1;labelBackgroundColor=default;fontFamily=Comic Sans MS;fontSize=18;fontColor=default;strokeColor=default;html=1;shape=connector;exitX=1;exitY=0.5;exitDx=0;exitDy=0;" edge="1" target="s-YMFUuvhOY8qppPqjC8-48" parent="1" source="s-YMFUuvhOY8qppPqjC8-11">
          <mxGeometry relative="1" as="geometry">
            <mxPoint x="408" y="160" as="sourcePoint" />
          </mxGeometry>
        </mxCell>
        <mxCell id="s-YMFUuvhOY8qppPqjC8-50" value="&lt;ul style=&quot;margin: 0px; padding: 0px 0px 0px 2.2em; outline: 0px; max-width: 100%; color: rgb(34, 34, 34); font-family: system-ui, -apple-system, &amp;quot;system-ui&amp;quot;, &amp;quot;Helvetica Neue&amp;quot;, &amp;quot;PingFang SC&amp;quot;, &amp;quot;Hiragino Sans GB&amp;quot;, &amp;quot;Microsoft YaHei UI&amp;quot;, &amp;quot;Microsoft YaHei&amp;quot;, Arial, sans-serif; font-size: 17px; letter-spacing: 0.544px; text-align: justify; width: 577.422px; box-sizing: border-box !important; overflow-wrap: break-word !important;&quot; class=&quot;list-paddingleft-2&quot;&gt;&lt;li style=&quot;margin: 0px; padding: 0px; outline: 0px; max-width: 100%; font-size: 15px; letter-spacing: 0.5px; box-sizing: border-box !important; overflow-wrap: break-word !important;&quot;&gt;&lt;p style=&quot;margin: 5px 0.5em; padding: 0px; outline: 0px; max-width: 100%; clear: both; min-height: 1em; text-align: left; letter-spacing: 0px; font-size: 16px; line-height: 1.75; box-sizing: border-box !important; overflow-wrap: break-word !important;&quot;&gt;&lt;span style=&quot;margin: 0px; padding: 0px; outline: 0px; max-width: 100%; font-size: 15px; letter-spacing: 0.5px; box-sizing: border-box !important; overflow-wrap: break-word !important;&quot;&gt;我收到的数据包必须有目标&amp;nbsp;IP 地址&lt;/span&gt;&lt;/p&gt;&lt;/li&gt;&lt;li style=&quot;margin: 0px; padding: 0px; outline: 0px; max-width: 100%; font-size: 15px; letter-spacing: 0.5px; box-sizing: border-box !important; overflow-wrap: break-word !important;&quot;&gt;&lt;p style=&quot;margin: 5px 0.5em; padding: 0px; outline: 0px; max-width: 100%; box-sizing: border-box !important; overflow-wrap: break-word !important; clear: both; min-height: 1em; text-align: left; letter-spacing: 0px; font-size: 16px; line-height: 1.75;&quot;&gt;&lt;span style=&quot;margin: 0px; padding: 0px; outline: 0px; max-width: 100%; font-size: 15px; letter-spacing: 0.5px; box-sizing: border-box !important; overflow-wrap: break-word !important;&quot;&gt;通过路由表查映射关系&lt;/span&gt;&lt;/p&gt;&lt;/li&gt;&lt;li style=&quot;margin: 0px; padding: 0px; outline: 0px; max-width: 100%; font-size: 15px; letter-spacing: 0.5px; box-sizing: border-box !important; overflow-wrap: break-word !important;&quot;&gt;&lt;p style=&quot;margin: 5px 0.5em; padding: 0px; outline: 0px; max-width: 100%; clear: both; min-height: 1em; text-align: left; letter-spacing: 0px; font-size: 16px; line-height: 1.75; box-sizing: border-box !important; overflow-wrap: break-word !important;&quot;&gt;&lt;span style=&quot;margin: 0px; padding: 0px; outline: 0px; max-width: 100%; font-size: 15px; letter-spacing: 0.5px; box-sizing: border-box !important; overflow-wrap: break-word !important;&quot;&gt;查到了就按照映射关系从我的指定端口发出去&lt;/span&gt;&lt;/p&gt;&lt;/li&gt;&lt;/ul&gt;" style="whiteSpace=wrap;html=1;rounded=1;arcSize=50;align=center;verticalAlign=middle;strokeWidth=1;autosize=1;spacing=4;treeFolding=1;treeMoving=1;newEdgeStyle={&quot;edgeStyle&quot;:&quot;entityRelationEdgeStyle&quot;,&quot;startArrow&quot;:&quot;none&quot;,&quot;endArrow&quot;:&quot;none&quot;,&quot;segment&quot;:10,&quot;curved&quot;:1};dashed=1;labelBackgroundColor=none;comic=1;fillStyle=auto;fontFamily=Comic Sans MS;fontSize=18;opacity=80;direction=east;fillColor=#ffe6cc;strokeColor=#d79b00;" vertex="1" parent="1">
          <mxGeometry x="-470" y="500" width="580" height="120" as="geometry" />
        </mxCell>
        <mxCell id="s-YMFUuvhOY8qppPqjC8-51" value="" style="edgeStyle=entityRelationEdgeStyle;startArrow=none;endArrow=none;segment=10;curved=1;rounded=1;labelBackgroundColor=default;fontFamily=Comic Sans MS;fontSize=18;fontColor=default;strokeColor=default;html=1;shape=connector;" edge="1" target="s-YMFUuvhOY8qppPqjC8-50" parent="1" source="s-YMFUuvhOY8qppPqjC8-9">
          <mxGeometry relative="1" as="geometry">
            <mxPoint x="70" y="530" as="sourcePoint" />
          </mxGeometry>
        </mxCell>
        <mxCell id="s-YMFUuvhOY8qppPqjC8-52" value="&lt;h1&gt;三张表&lt;/h1&gt;&lt;ul style=&quot;margin: 0px; padding: 0px 0px 0px 2.2em; outline: 0px; max-width: 100%; color: rgb(34, 34, 34); font-family: system-ui, -apple-system, &amp;quot;system-ui&amp;quot;, &amp;quot;Helvetica Neue&amp;quot;, &amp;quot;PingFang SC&amp;quot;, &amp;quot;Hiragino Sans GB&amp;quot;, &amp;quot;Microsoft YaHei UI&amp;quot;, &amp;quot;Microsoft YaHei&amp;quot;, Arial, sans-serif; font-size: 17px; letter-spacing: 0.544px; text-align: justify; box-sizing: border-box !important; overflow-wrap: break-word !important;&quot; class=&quot;list-paddingleft-2&quot;&gt;&lt;li style=&quot;margin: 0px; padding: 0px; outline: 0px; max-width: 100%; font-size: 15px; letter-spacing: 0.5px; box-sizing: border-box !important; overflow-wrap: break-word !important;&quot;&gt;&lt;p style=&quot;margin: 5px 0.5em; padding: 0px; outline: 0px; max-width: 100%; box-sizing: border-box !important; overflow-wrap: break-word !important; clear: both; min-height: 1em; text-align: left; color: rgb(51, 51, 51); letter-spacing: 0px; font-size: 16px; line-height: 1.75;&quot;&gt;&lt;span style=&quot;margin: 0px; padding: 0px; outline: 0px; max-width: 100%; box-sizing: border-box !important; overflow-wrap: break-word !important; font-family: &amp;quot;Helvetica Neue&amp;quot;, Helvetica, &amp;quot;Hiragino Sans GB&amp;quot;, &amp;quot;Microsoft YaHei&amp;quot;, Arial, sans-serif; font-size: 15px; letter-spacing: 0.5px;&quot;&gt;交换机中有&amp;nbsp;&lt;strong style=&quot;margin: 0px; padding: 0px; outline: 0px; max-width: 100%; box-sizing: border-box !important; overflow-wrap: break-word !important;&quot;&gt;MAC 地址&lt;/strong&gt;表用于映射 MAC 地址和它的端口&lt;br style=&quot;margin: 0px; padding: 0px; outline: 0px; max-width: 100%; box-sizing: border-box !important; overflow-wrap: break-word !important;&quot;&gt;&lt;/span&gt;&lt;/p&gt;&lt;/li&gt;&lt;li style=&quot;margin: 0px; padding: 0px; outline: 0px; max-width: 100%; font-size: 15px; letter-spacing: 0.5px; box-sizing: border-box !important; overflow-wrap: break-word !important;&quot;&gt;&lt;p style=&quot;margin: 5px 0.5em; padding: 0px; outline: 0px; max-width: 100%; box-sizing: border-box !important; overflow-wrap: break-word !important; clear: both; min-height: 1em; text-align: left; color: rgb(51, 51, 51); letter-spacing: 0px; font-size: 16px; line-height: 1.75;&quot;&gt;&lt;span style=&quot;margin: 0px; padding: 0px; outline: 0px; max-width: 100%; box-sizing: border-box !important; overflow-wrap: break-word !important; font-family: &amp;quot;Helvetica Neue&amp;quot;, Helvetica, &amp;quot;Hiragino Sans GB&amp;quot;, &amp;quot;Microsoft YaHei&amp;quot;, Arial, sans-serif; font-size: 15px; letter-spacing: 0.5px;&quot;&gt;路由器中有&lt;strong style=&quot;margin: 0px; padding: 0px; outline: 0px; max-width: 100%; box-sizing: border-box !important; overflow-wrap: break-word !important;&quot;&gt;路由表&lt;/strong&gt;用于映射 IP 地址(段)和它的端口&lt;br style=&quot;margin: 0px; padding: 0px; outline: 0px; max-width: 100%; box-sizing: border-box !important; overflow-wrap: break-word !important;&quot;&gt;&lt;/span&gt;&lt;/p&gt;&lt;/li&gt;&lt;li style=&quot;margin: 0px; padding: 0px; outline: 0px; max-width: 100%; font-size: 15px; letter-spacing: 0.5px; box-sizing: border-box !important; overflow-wrap: break-word !important;&quot;&gt;&lt;p style=&quot;margin: 5px 0.5em; padding: 0px; outline: 0px; max-width: 100%; clear: both; min-height: 1em; text-align: left; color: rgb(51, 51, 51); letter-spacing: 0px; font-size: 16px; line-height: 1.75; box-sizing: border-box !important; overflow-wrap: break-word !important;&quot;&gt;&lt;span style=&quot;margin: 0px; padding: 0px; outline: 0px; max-width: 100%; font-family: &amp;quot;Helvetica Neue&amp;quot;, Helvetica, &amp;quot;Hiragino Sans GB&amp;quot;, &amp;quot;Microsoft YaHei&amp;quot;, Arial, sans-serif; font-size: 15px; letter-spacing: 0.5px; box-sizing: border-box !important; overflow-wrap: break-word !important;&quot;&gt;电脑和路由器中都有&lt;strong style=&quot;margin: 0px; padding: 0px; outline: 0px; max-width: 100%; box-sizing: border-box !important; overflow-wrap: break-word !important;&quot;&gt;&amp;nbsp;arp 缓存表&lt;/strong&gt;用于缓存 IP 和 MAC 地址的映射关系&lt;/span&gt;&lt;/p&gt;&lt;/li&gt;&lt;/ul&gt;" style="text;html=1;strokeColor=default;fillColor=default;spacing=5;spacingTop=-20;whiteSpace=wrap;overflow=hidden;rounded=0;labelBackgroundColor=none;comic=1;fillStyle=dashed;fontFamily=Comic Sans MS;fontSize=14;fontColor=default;opacity=80;" vertex="1" parent="1">
          <mxGeometry x="680" y="130" width="560" height="170" as="geometry" />
        </mxCell>
        <mxCell id="s-YMFUuvhOY8qppPqjC8-53" value="" style="shape=image;verticalLabelPosition=bottom;labelBackgroundColor=default;verticalAlign=top;aspect=fixed;imageAspect=0;image=data:image/png,iVBORw0KGgoAAAANSUhEUgAAAggAAAFgCAYAAADes4HJAAAAAXNSR0IArs4c6QAAIABJREFUeF7svfeTJMd5p/+09757usd7b3ZnZy2wcCRAUNLxTtLF/aII/nVSBCmFvsGQdCdSpEjYdbNuvPeuu6e991XfqJqFJRa7ABfYnZmsQAUiZqvTPJlZ9ck3M99XI8uyjLgEAUFAEBAEBAFBQBD4EgGNEAiiPwgCgoAgIAgIAoLA1wkIgSD6hCAgCAgCgoAgIAj8GQEhEESnEAQEAUFAEBAEBAEhEEQfEAQEAUFAEBAEBIFnExAWhGczEk8IAoKAICAICALnjoAQCOeuyUWFBQFBQBAQBASBZxMQAuHZjMQTgoAgIAgIAoLAuSMgBMK5a3JRYUFAEBAEBAFB4NkEhEB4NiPxhCAgCAgCgoAgcO4ICIFw7ppcVFgQEAQEAUFAEHg2ASEQns1IPCEICAKCgCAgCJw7Al8RCEpYhkajQalUUu96vY4I1XDu+oSosCAgCAgCgsA5IKDRaNDpdBgMBqxWK2az+Su1/lwgKEJAEQTFYpG9vT12dnbIZrPq3yRJOgeoRBUFAUFAEBAEBIHzQ8BoNKqiwO/309vbS0tLC4poUG7l+lwgKCKgUqmQyWR49OgR9+7d4/j4WP2bYlUQlyAgCAgCgoAgIAicHQIWiwWn00l3dzevvfYaY2NjaLXabxYIivUgkUjwwQcf8Nvf/pb9/X1VIKgWhC+pirODR9REEBAEBIGzRUCWZEC51TngyX9PZoRnq6aiNt+XgCxJ6vYBm82Gx+NRhcHf/M3fcOPGDVUgKPefWRDy+TzRaJR///d/51/+5V/Y3t6mUq2qDxqMJnR6w/ctj/idICAICAKCwA9MQN1HVqtSr9fQanVotFp0yv91OiESfmD2pyX5z/pItVLBarPi83qZmpriH/7hH3jvvfe+XSBEIhF+85vf8Ktf/Yr9g0M0Wh1Ot5dQWyceX+BEkYpLEBAEBAFB4JUjUK9VScaiJONRzFY7FosVq82OxW5Hrze+cuUVBfrxCTQadY7DBxzsbKKhgdPh4NLkJL/85S95//331U2LT7UgfC4Qfv1rjo/jWBwuOnsHuXj1dbr6hoQK/fHbU+QoCAgCgsBzESgVi2yuLLC5uojHG8Dt8+MLBPE1NWG22J4rDfHQGSYgQ7VWZfHxPe598kdymQQ2o5GJifHvJhB+/etfE0+mcLj99I9c4MY77zMwMvG5sjjDCEXVBAFBQBA4lQQK+TxLsw9Ymn1IoCmErylEU3MbTS2t2Gz2U1knUegXR0CWoVIp8+DWh3zwu38jHTvCZNAxPjb63QVCIpXB5WticPwSb7z7NwyNX0IrNru8uNYSKQkCgoAg8AIJKAJh/tFdFh9P4w+2EAiGCLZ0EGprx2ZzvMCcRFKnkYCydbVaLnP34//mD//xrySiBxh1GsbHRr67QEimsrj8TQxPXObNn/2CkYkpddOLuAQBQUAQEARePQKFXJbZh3dZeHSXQKiFplCLKhCa2zqx2YVAePVa7MctkbJBUbEg3P3wD/zXv/0zicg+Bi2MCYHw4zaEyE0QEAQEgR+bgBAIPzbx05WfEAinq71EaQUBQUAQeGEEhEB4YSjPZEJCIJzJZhWVEgQEAUHg2QSEQHg2o/P8hBAI57n1Rd0FAUHgXBMQAuFcN/8zKy8EwjMRiQcEAUFAEDibBIRAOJvt+qJqJQTCiyIp0hEEBAFB4JQREALhlDXYj1xcIRB+ZOAiO0FAEBAEXhUCQiC8Ki3xapZDCIRXs11EqQQBQUAQ+MEJCIHwgyM+1RkIgXCqm08UXhAQBASB709ACITvz+48/FIIhPPQyqKOgoAgIAh8AwEhEES3+DYCQiCI/iEICAKCwDklIATCOW3456y2EAjPCUo8JggIAoLAWSMgBMJZa9EXWx8hEF4sT5HauSUgowwmWWqod0OSqUug0WjQ6vTodDqUwKa6r0Q3lUGWkSQJWaojPfmNrNGqzyu3VsNTIqIqcdaUn0tIjYZ6y7KGhgxarQ6tXodWqznJ/xvaRCkjcoNGQ7klZJSMDGh0WnRaLXolY3GdeQKnUyB8MW4kdbzJSEov12rRak/6r9qd/6z1lPGp3MpYk2hIIEmg1WvVMaqMFy3KmDnzzf7cFRQC4blRiQcFgacRUF5YJx/5WjlPrZQlX2qQK8tgsGB3OLBarJiMWoxPhAJ89psGtUqeajFLqVwjV9VRx4jDYcdht2PQazDqT8TFVy/loy4h1atU81kq+QKlmpZiQ4/JasXutGEyGzCoL0yN8r784lJERa1Io5KlWCyRLVSoy3q0FjdGiwO7WY/dbBAvynPQ4U+fQPjSWKuUqBTyVGsNqpiR9WZsNjMWs1H92Os0qk54cimCWqJRq1It5agUixTLMoWyBqvTjs1px2Q0YDBoVREvNMIJNiEQzsFL4IeqojJ7PfkwKrNgZQatfLSUSxmZyiDTqOG+lVnpN89kT55WZ7/KLFr55EnK3z4b2U9mBUpairr/hoGrlkH5pTITV2bCajonw1vNW7k12pPfPteoP0nrZGbfOCmPYhn4Johqmicfbw3KdKRCOROlnA4TTVc5yoDO5MLf3IzX68Fp1mI1nsxrlHSV3yiiopKPU0wdkc4UiRYMlLARCoUIBZuwmnRYTDr1I/9nAkFTpV4uUIiGyR4fkyrpSVZMOPw+mloCOF1WLAadKhK+PJtSLRzFOPV8hGQyxVEsQ1GyYPS0Y/EGCTqtBF3mL5rhh+pAIt2XTuA0CgRZqqFpVChmkmQTUQrFGnmNk4bRid/nxut1oAwzveYLS4P6jtBI1CsFyqljCqkU8YxMPAvelib8LUFsViNWgxa98r5S30FP3lvq0DsRJorlQblPPp4vovmevCufvKNUK4j6p+d6Wb2IAnxrGkIg/OCIz2IGJ4NFGWy1YppCPks2W6BQqKgm7rqsQ6+3ozPZcXhcuAJOLBYjekD/2aBSP7p1pHqZUjZFMRWnUCqRKzWoSYqJ0IjOZMXm8mJzudQZrdVsODGbqxLiZEagzKBrZWVGkCObzJJL56hKyixcj9nlwe7xY7Vb1d8bDScf828yuT/Ry0hSDblRplrKk4snySfSlCSJSkOi8bWm1BmtGO1+LHYnLosWu6FO4XiV7NESG0dllo4kNI5meodHaW9twqfLYdUUKJTqFCoyyu/NVhuNfJhSZJFoLM1awkwaN0NDwwwM9uG1mXDbDV8y+T8RT5o6UKSaSxBfWya6ts5+xshuwUFTdycD472EQl6cCjdlueFLZZcbNWrpHSqxFXZ391jcDJOuO7B2XMLbOsxAq5O+ZueJyHo13lNncRC9EnU6dQJBeW/Ui8jVPKnINpGtRY6TRaKNIGVLkP7eDro7gtj1NQxSkVK+SCZdoIYWrd0GUhk5tk3x+IjtsMzmEXSOdtM93ovDJGOuFUDWUtWevL9cLhs2qw4qWaRimmwuRzabp1ytU2to1CWK7zNGniwQgtak3ha7C7vbjc1mw2rRYzLo1ffc099VP073EQLhx+F8xnJRZul1KpkYhdguiegRh0dRYokM5ZqWmmTEaG3CYGumpaeV9qF2vG4rFo0G4xOBIMvKmnmFRjlL6nCT2M4asUSaSLpCsaZD0tsxO/wEOroJtHfS5LLid1swKOpeWWdXZt+aBvVyjnImTDYW5nDzgPBulGLDQFE24Wnrxt87QCDkp8lpw2k1qOpcMT3++fVkhtAoUaulKCaPCa9uEdnYIV2TyNTqqvj58mWwe7A2D+IJttHhsxC0S2T3p0ltfMrD9Tyfrktovb1MvfYmA32thOR9bLUwkWSJWFbG5AriCrRBbofa/i32D6LcP7QRkYPceO0Gl69docVtJugyqfVWZNHJy0hROTUgRyl1wMH0LXbu32c5amUh5aHrwhiX37lEb3cLAbsJh1H/lReNVK9QOV6guHeHhYVFPn20QazmxTn8c5oHb3BlMMClHq86i/k+L78z1tnPdHVOm0BQ99xUMsjlFJH1x2zNfszWYZrNaicZWw/XL48xOdaDV5/DXE+SiMTY241Rxow22IxeW8MUXaByuMnMOjzehNGbY1x4awKXroQhE6ZR15HXNaN1BuhoDxDymSB7SDW5Szh8pI7TTL5CuaqhLj2xVn6nXqJMjp5IBIMd9A68wXaa2rvwhwI0ua04bUa06nvu5V5CILxc/qcydxnl416llNgjs7fI4dYaq2t77B/GKNQ0VGW9Kg4M9ja6J8bovzpJW9CHMs5sT0zliplQqiap5KIcrMyxPfOAg2iCw1SFXM2IxuDB4mmhffQCHcPjdDQ5aQ/aMSmzYWXgyHVkKlSyx2TCqxzvrrOyuM366iGlupYKRry94wRHrtHR00VvyEPQa0OvAb3uy2uMJ0sK9VKGav6YfCZKIhklHgkTXt/jaOuQvNQgX1csCF9SCDJY3C04e6/S1D3MkDLrDujI790jtfER06s5PlqV0fn7uXzzbYZ6gwSKcxhyq2wd5tiLS1ib+gh0T2AuH6ANf8rh/gH3tmC/6GTswhjDoyP47Ea8djMGow29wYHV5cQVcGFzaDHIOaqpffbufsLW3bssRW0sJL10Xxrn6k8u09fbSsBhwmk0qBYX5WWjLGzIikCIzlHYu8X8/Dwf3V/nuOrHNfrXtI7c5NpwgMu9fnVqJPYqnsoh+tyFPpUCoZpFLqeJbj5iZ+5j1rdjLCX8JHStXH3tMhcv9RMwpLHVIhxu7bMyv0dOY0PXMYDNpsOTWkZzvM3jNZkHmzD+xigX3xrFVk0ghdcplnRkzH3ovJ2MjrTR2WyF5BqlowW2NrZYXtkiXTFQNzRhsLpw2U3YrcaTsfItFjeNuom5TqNWoZKLUcrFyVbtZKp2/F2DdI1eoLO7nbaAA7/LrG6YVN51L9OIJwTCcw8l8eBnZnhl5i5LZfLhdRJrt9lamOXBozXWNw7JN2QqyhKDvQ2do4Oh628w8ZP36O1qpcOhxWN8kkqjTL1wQDG5yer0XeY++oitgxj7mQrZmgUMPuyBXgauvcHAtWsMdvjoa3FjMerRyTIaqQaNAsXELrHNe+wuz3D/0QaP5ncp15XFBz3ewRuELv6MwZFRLg420x30YNZrMCgC4fN1RRlJligltskdzRI92GBzZ5+d3TCR3SjRgzgVVYoosujkUiwYymX1deEZe5eO4atcHvAz3mameHCP9MYn3F/7mkDo9OBOfox0fJ+FzSSrR3Uc7VO0jL2FR45hTdwmsrfF9EqenYRMc1s7wbZmrEY9dqMRkyWI0dFKoLOT7vFOgs12rGSRk/vs3/2Uzel7JxYERSBMjnP5nSlVIDQ5zDhNBrRP9moocxJliUERCKUDRSAs8NH9NY6rASEQzuEQP10CQfnASsj1PFI1R2xnloOlW6ytHTGzree44mPyzeuMXxkhZIxjr+2xtbDGwztrpDVutAOX8HgddJQ3sGb2eLwODzdlxl4b4sKbAxgye5TWH5LO60lYJtA1D3P1Sh/DXXaIzVLYusPC7Dz3Hy6RlgPI/nHcoS56W9y0+B3qMqBygOJplyIOqFeoFVMkDxZJ7s+zm7Cxk7TRNDDJ8PWbDI700dfmocVnQycEwjkckae+yspmH0UglMgerhBf/pj12Qfcu7fMyvohRVlLRWtEY/IjW5rou/pTRt7+a0YHuxkKmAg5lJ0IINUKVJIrZI8WmL97l+kPbrMXSRAtSRTqViS8WAM9DL/xE4Zfv8lwp5+hDh9Wo04VCNRLSNUMucgqh/MfsDk/zf3FI2ZWY+quZmVt0Nl5Gc/ATxicuMDVqQEGe0I4TDqsBuX44MmmSqlaUJc54nsLHK3dZWdrjY3dGAeRLPmilmJJi81lweowo9Np0aripAq1Ijp7EH3nTbxdF5js8zLWaqa4P0168xMerOX4ZE1C4+tTLQgD7U4csT/SOLrNzMoxi3tlTIERfP1XcWqyWLPzpKNhlnYqHOd1hLraCXS0YKoVMNZKoAvRMHXT3N/DyGv9NDebMOQOKYc32H08w9bsIjtJE1s5Jy2D/YxMjdHR207I58NlMaCtpNHWyzQMThoaC7r8BrrUY5aXl/j0wTqxmg/X8F/RMvw614YCTPX6TiwIT45KKhs9P5vKvMwZzakfPq9YBU6NQFA3DdeRGxXK2TDF1D7hnWV2V+fZ3Iyyti+TLNvpm5ykZ2SAVlcRjzHBwcoG83eWSNQtSO1D2Fw2WhthrKVj1g5g7UCme6yd3gttaHNRSrsrFOp28p7L2DsmeO3GAGPddgg/JLf5MTOPZrhzd56coQNNx5uEukeY6AnS2+pWJx7qiaGnDBCpUUWuFalmo0TX7xJZ/YSlQwvzh2ZCw5cZu/kOI+PDDHZ6afXbUHYhCAvCKzZgRHGeReDpAmFt84iK3kzNYKGOVb1DE2/Rff2vGB/t53Kni46ARZnDqh/lwtEDEtv3eXx/hju35zhOFylJylE9K9W6A7On8ykCQUKuFKiXEiT35th+8J+sz95lcb/EylGVerVOo1HH6BjA5J2k58IkV9+dYnSsmyabCZdJpy41KDPpei5MObnDzvIj5h/dZmNzl4NYhWTJiMndhdHXzUBfiJ5u5USBAaNiqq+kkIphynUDCdMADUcHg+12+nxa8vv3SW18ou5BuLUmofX3cum1N+hrc+GMfUBNEQhLYeY2s9SNAYyeVkyUMZTClAtl4mkTNb2XrslR2sd7MRxvoEvskSt5STU6aervZeLNXvy+GpWdR6Q25tha3mNrI0yiqCdVNeMOthLs7iTY0UVzRw8+ZYkis4qmGKdq66Fm7cCtixNgg+2tde4+XCde9eAYfp+Wode42u9nsteLRvXDcOKTQfGtoJwkUa2oQiE8a5Ccmn8/LQJB2bMk1crUylnS+7Mcb91ja3ObtY0j9o5yJDINynUznuYeAi3ttLVbCTVpSO/tsft4mWS+RsHmBqMeZyOPoV4kkZXV2x104Q260CjpZ9NoLM1o264R7LvIjWt9jCkWhPADspuffC4QCpZ+jP1/RdvgJJeHWhju9GHUnSxfPvVSl1VzlDJhwot/5GD+DzzeNvBo24h/cEoIhFMzakRBv4XANwuE6ekl1raPaVicSBYnlYqyri/h7r9OYPynjE+McH2ihf5WJzoaSMUkqfVPiax8yuOZDe7N7JMtldAYZSoNE/miHb2j4xsEghadLNEopahkjzjenGHlk//L+twj9ooWDstW5GoZbaVITfZToYW2sUtc/PnbjE2N0OmxErQZ0GklqJUoRlfJ7s2yNPuI+9P32TpIkaq7qJqDtPRdorV/gtGhVoYGmnEoJyEU60UlCflD8sUqBxU/edlOyFbDb8xxvPWIo9W7LO4UmNmT0LraGJyYoiNow5q+TyM2x8pWnPX9ApLJi9HdjEmuoK8cUy01SBVdSNZmRm9OMnB5GHYeIO3MEE25CZc68Pb3cumngwQDdUob0yTXZ9laO2Rr85h0SU+masTR1EygQ9n01EmorROXSUbav0ctuUPBeYGKZ4xWR5Eu2xGHu5tMP1wlVrRg7nwNb+c4Y50ehtrdGEw2DBY7FptD9eWgnBNXjo99mxlVDJ3TReDUCATlaG6tRKOcIbb7mOP12+zsRdg4KBBPVVWrYUPSY7AEsDh8hNo9hFqtlGPHJDa2yGQL5DR6qsgY5DpaqUG1LlOpgVEZ12YDyCenEoyOZqxtFwl2DXFxvIOeZhNS+AG5jU94/PjEglC0j2AZ/p90jlzjxngLY10B1YLwxfLln/cDxYIgVXKU0/vsz/0Xe4//L9MbBu5v6PENXBIC4XQNHVHabybwDQJh7gHT95ZY34sju4JoXH7kdJFGIoulZRxzzw0GJi9w/eYAQ71+LFQgFyEy8yd2H3/K/GqSuY0yFTmL2ZGiWteQTHuQzd9kQQB9o0G1EKGY3OBgaYbZP3zAxvImOXcbRXcz1nIGSylOOt0glpFx9l5g4J1fMDB1mZGQk06/ciqgTKOSIb4+Q3ThDotzCzxYWCFSMFEPTGBvH2VybIiJkUGa/A6afA6MemXbEGgaZTTVHNVanXzNSKlSRk6vUYuvsrywyNzcPIexEtEMYHLga2rBYTNiKB8il45J5CRyVSOejmFaBi/j1mawZpfJpLKsxZ1k9EEuvznJhakh6iufUl6/x0HMwX6hHc/gMFN/NUlXtwNTbpfa0Qa7M7NszS2zmzSznXMQGuxj+NIobW1+/HYDuuIx0bk/EttdJueYouS/QLurRp8rQnh3nel7ixzEyki2VnQ2ZRe1GZ/bjj3QiTPQRXNXD119PfiV46ZGMOo+8zQhxshpJ3BqBIIizKUajVqZYiZCIXFAKlMglW9QLCv+WJ7sENJY0OpN2BxGrHY99VKBUipDpVKjopx9enICSqMc037iSVGnelI8GduSrFGPNxrsQexuH8EmL26rRDV8n8ymEAiJyD4GLYyNjfDLX/6S999//4mF8WTzhUZWvcgojl4k8vk8kUiE3/zmN/z6178mmcri8jcxPHGZN3/2C0YmplRHNeI6SwSeIhCml9jYT6MNdqD1tWGMx9GGwzRcPdT9E3RdusT196YYHGrGo82iTR+wc/e/Wb93i9V9mfWYFa0hicu5TaXa4OjYR83Q/VULQrsXqxG0ikOi5C7Z8Czb8zM8+MMjNjcSGPrHMPQN469E8Rb2ODw8ZmM/ijY4SvON/03v5Otc6vMxGLJi1OWRSjEO5+6xcfdDFhfXmFk/IKMPYRl9n7bR13hrspsbox2YjDrMT3wonLTkE+dJqpvjGtV8gvTuNPGtezx8vMz0o1Vi6TK5EqAzq2eclTR09QxyvUC5YUQyuukYv0n/tfcIapM4UreJR2PcPbATlZu4+eYkV64MUJ7/gMLCJ+zE7GznOvAOj3PlF9cYGAnh1ebQpQ7Yv/cpW/e+OMXQNamcYpiiu82JizSN6Dqrt/8f28tzZByXKfmn6PTWGfAcE9ldY3p6nt2jDFWNUz1earMYsNvMOFuGcLYN0zc0ytDYGM0+D26zBpNeCISzMqJPi0BQHR2pLslr1Ep5KoUs5RqU6kZl4o/ZUEerbVAuSlTLElqDjN5w4oa8UVf+f3K0UHFQduKeWTmqrRyWPvE0eiIQTnyMKM7PtDoTeqMydp0YdA1qkfvkdz4VFgQhEM7K0P+h6vF0gbB5lEfXNoKxuQ9HZg97bJ2spomYoZPQ6BSXf/o2o0NtBLXHGLJbLN35mKV7DzkoOAnLLVg4JqCbo5QvsxX1kdd3/ZlAsOjraGoFckdLHK/fYmN+nunpMPsx8E1cxT82SZt8QHNtjY3NbWYWdymZu7CN/DWdY9e5cbGDiW43FjmDlD9ia/Y2i7c/ZGl1h5XtBFVHF8Grf0vP5JtcHw4x2RvCoOObTYeK50hluaOSp5TYIhddY33xMSvzD9k4KLIRldHYmmjvHaDJY8GUX0HObnOYqJEommgaep2ea+8T1CRxJD8lFo1x58BGVGrijbcucPnyAKXZP5Gbv81e3MZ2qQvfyDhX/+Y6AyNBfLqCKhAO7n3C5t07LEXtzCU8dF2a4Pq7l+lpc+KUktQja6zc+g+2luZIO65QClyi09tg0HNMdH+T+w+WiaQ16AIjWII99DTZ6Qg6MDuDWFxN+AJBmoJBHDYrJoOsziDEdTYInBaBoHpMlapI1SK56C7pww0SeR3RihtZr6PJWcSsL3K0XyEZr2K0N7C4TgRCray4WFacqjWoK0cMS0UqlQp1DNQxYTErtxm9/sQ9s9ZgRGuyq0sV3pZuXC47xuRjGuE7zM6IJQZhQTgbY/8HqsXTBcJWpISh6zLG7nGa8+v4snOE8ya28l4cfZeYfPOvGBnuoEO3hzG/ztztaWYfrJAytJD3DuNuHBEs3SGXTLMc8ZHW/blAMGnLaEppktuP2Hv0O1YWVniw1eCo4qF76h36p67Rpd+mnUWWF1e4M71MrNqE3PomLQOXefO1YS6NBHE1kpDdZ2XmNo/ufMDq+iEb+3m0/kF63/w/DF59iwtdXkbbPepLQ6972nlkGblRR6pkqRdiRNbvcLTyMQ/X8txel9H4epi8fpO+NieO+Ec0IvdY2EyxFgZP3w3ap96n6XOBcMzdPSthKcDrN8eYmuqlOPsx2YU7HKbd7NZ6CIxMcO2vLzM4FMSjK6D9CwVC5GCLh4/XSSqbFIfeIzh4jSv9fi50+9ApAWz0SqApPTq94u5ZcT37cs9l/0Cd+twme3oEQkM9AaDsQYhvPiaydJedmJb1fDOSUU9PUxqHMcvqQpm93TLukAZPq+YklkBecahWQ1LEQSFHNnVMPpulJDsoaVx43Q58Xidmo14d53qTBZ3Fjd3XRsvABKFgCHt+Dn3sLvOzQiAIgXBuXxfPU/GnC4TtaAVj72uYe6fokrZprS+yc1Rjbl/C1DzC4Gs/Y2CgjS7dDubCJnP3V1lYOqTu7cHQcwF3ZUfd6Z+MJlgM+0jpvrYHod2FScoh5SOEV6ZZu/U7Vla3WY5bSRrbGLr+LmNXX6fHfEC7fp3lR4+5/dEj9lJmSvZRnF0XuPH2ZS5e7CakTWMuHrI2c5uHikDYCLN5UMYQGKT/J/+HoatvMtbuYbjVjU4rozgyfOrEWTFZ1gtIpRSxjdtEVj9keuWrfhAGO1w4Yv+NdHiLmfUEywcSrp4btF1+nyZOLAjHR0fc3daxV7ZzaapPddJSWHpEfm2BRK2ZmGmY1vFxXntvkoHBJlzaPPylAuFwWxUIqbpwlPQ8vf+sPXOqBIJytLmcIbGlCIRbbIarLMWcVNDQ4StgM5RY34ajYx1t/X66h/zYzUZ0irfDWkUV8fnEEUfby4SPjshoW0kaOujtCNHb0YzLZsRs1GAwmtAarJjtHjzBDhwOC/rkY2qHt4UFQSwxnLVXwIuuz7cJhCqmgXew9V9nwHRIr3GT1bVjpufiNFyddFx5m+6uFrp1O1hLuywsRFjdyWHrHKZpYgpbaQP9zn8SPYiyeOQjqf1VMgdOAAAgAElEQVRCIIx2+hhoc2Goxalndtidvcvsn37H2voR+4ofdk8f46//jAvXb9JjjdFh3mP53jS3f/8pW/sl4lIzhpZhLr73NuNXRumx5vHVwqzP3nkiECJsHlQxNA0x8JP/zfC1Nxht8zDU4vqLBILW38+Vm2/zPAIherjH3bUqu2kdfQMhOrr9FLe2KOzuUzJ3q3sHui9M8MY74wz2ebFrC0ip/b9oiSEiBMKLHiCnKr3TIhDUoHCNMlI1S2p3lsTGXVZ3M8zvy+TLDZqcNSx6VMdDsaqLsckRLl4eIuR34TLr1bgMlBMkD1dZffgRG+vrxAwjHFnGuTzax9R4HwG3BYdJq25GVgI1qWHajSY09RLFw2kyW2KTotikeKqG98so7LcIhOMa5oGf4hi6yYgrxZAzzMbCBvfvrlI0KI54ruAPNdGqOcJcjbO1X2M/pSfUP0jfpXFMuSWqq//B4U6Y+SPvnwuEVjvawj7l4yU2Ht9j+o8fs74VJa7xIbk76b14g8HxSZptWUKmGDvzcyzefsj+UYF43Y1O8cz45nsMXb7IaKBBmynF7sJdZu98yOr6Eet7BfD20XnzbxmYeoNLfQHGOvzodcq6+9cdoHwebuUkqPxTLAiKo6RrN9+hv8OJU3WUdIvZp1gQogdb3Fkrsh2r0dLkJOixUIjFKSWy6JrG0ffcpH9igtdv9NHX6cKizVNXBMLdr+5B6L40wbV3L9Pd6sAlJakpmxSfsgdBCISXMYZenTxPlUCQKsjVHJmDeRJb06xuRpjdLJDKVfBYwGg0Eq0GyGmbGB/tZGKsHbfNiE6JtFpTNiWnSEW22F64x+72NknTAHHLMKP9HYz3d+J1mrEaNRiVQEl6g3rM1+r0YNLJVJVNitsfi02KwoLw6gzeV7Mk3yYQ6lgG38U+8hYXglXGm3LsPn7EzMd3SFb0yK0jGFwefCQx1StEi25SchM9Iz1MXupBl5wju/AbdjaPmDvykNR8sQdhtNNLf7MNObVCYW+apYcP+fSjR2xsx8lpbWDzE+oaJNTZg8dcwmnKk9rd4WhlnUSyRLphQePrpnXqZ/ReuMxUn4XBQIXI0jTLdz5keW2H5Z0kNXsX/qlf0HPxDW6MtnKlvxmj4p5ZOQr1uQ8U5RTDyWkGNbaBcsRKiTD3DUsMikBQLAiKJ0VX/E/Uj24x91SBsMGd9SybR0U8ehmnFkrlquo62tl7A//EzxieGOPKhTa6m60YtXk1FsOzBEI1usbarf/7jZsUhUB4NUfZj1WqUyUQZMUTYZ7M0QLp7WmW1/aZWY4RTxaxGfVqvJKssZOqRXFcZGOww6DGHUmns5TzOWqVPPlklOjeGrHjY0qmNvKWdtqDAdqafdjNekzKWDeZ0JudWD1NNHUO4vO50ccfUtv/RCwxCIHwYw3N05rPMwTC0M9wjL3DZJuOS20SkYV7rH76Jw7jBeLGJkpaC3apgFGro2QdQPYMMjTczpWJZuTjB8Qf/39srh8yd+QloTlZYhh57SYjnQ56Q0YqBzMklj5h4fEsdx6ssX2YpqJRXDs7cPiacHp9WIwNzPoKpWSCXPgkXnxRMqBxteEbfpuOkStcuxhktMtMfvsxe48+ZHl5jYW1MBmNH0vfGwQHr3L1wgCTo734lZDLDtOTkMsn57EVV8+1hkSprqcuazFpaxgbOeKbt4itfcT9pRQfLldpODsZu/w6PS0uvNlPIfGApc0M6xEZd+8N2r+yB2GLO5slto6rhCwW/GYjkkaLZDDi6Z7EP/wG3X29jPR6CXmNGDQ5KiklFsMTC0LEdnKK4cIwV96ZoD1kw1rLU41tsn3/txysL5D52ikGIRBO6zh8MeU+PQJBEeVVGvUCucgSmf2HrCxu8Ghmj2g0h145lmh20fANofd10eev0OnOkc1k2TtMUyyV0GrrlIs5UpEI2VQGLC6wurDaPVgcbmxGGZuuglZnpK53YvZ20HXhOu3t7djSM2jCHzMnTjEIPwgvZuid1VS+TSA0sAwrAuFdLvfYudpjJL0xzf6jD9jY3mf5uMFxpo5BrmEyOTD3vI679zpj/c1M9ruoHd4l/PBf2Vjb/5pAeJ3hDgM9TTKZpfvs3v4TiwvLPN4Ic5QsUNdokXVGjGYzRpPpyZ4BiUa5TLVUol6TqMs6dPYQjs4rtPRPceXaMBPjzWhji+TXPmZlfoEHs5tEs3rq7j5MrcMMXZhieOIigy0e+ppdqi8E1XRQzUIpSr5UIVq2k5MtBKxaPOYame3bJNc/ZnoxzEcLWQr6IO39U7QGXIQaMxhLy2we5NlL6vH1vUbHlwVC5JB7Oxp2CmbGOjvo62jDosSOsBix+Tuwhnrx+v2EvBacNtBqcpS/JBAWIxbm4m46RruYer1Xde6kKVWpxg85Xvw9if1lss6rXznmKATCWR2nz1evUyMQVN8jVaRGifzxKtmjWVZmVnh4d5nDgzQNjRmN1Y+9dxJnez8dlhhNugMi0SQrO3kqsozTZ0ErN8iEsxSTRawOGYtDoqT1UdT5cOrK+HQp1cdPrGRD6+pi8MZ79A4O48vNYjj+WJxiEBaE5xtY5/epbxcI5uGf4xp7j6uDPq4POSgfPCa+8hGLCyvcXzhi+yCLJBsw2QMEp35Gx6W3GeltYqLVSHnnFvv3/4W11a8KhOHXXmO4pU63t8TRo9ss//ef1CWB9VieVFWD0ebEaFacH2nU/QKfxQpQYi3QqFKtlCkVSjSwY2gaxdN5gUtvXFc3MbmrO+ij02zMzfLg7hzbRznSspOavYXQ0CVaBy4w3uFjuN2rHoNSBUIlBYUDChWJiNRCyeSny2elzQP5XSWa48dML+zxyWyUtOzD13GJkM9Ni34Fe32T3UiJo4xBFQidl5/4QUjdJhaJcG/fwn7dy9WLF7g0PoLH3MBplkBvp6b3YLbb8Xjs2G0yOnJUk3vsqn4Q7rJ0pGc+ZiHY18bI5R4CfheGhg4pEyW9+kcyRytCIJzfgfuNNT9dAqGuRpEtJnfIx9bYXFxmcXqR/d0YuZJMRefE0T2Js7WPZtMBPs02h5EMS9sV1QoX7HJjNBjJHZaoJMq4XQXc7hzHjSYiNT8ebY5WfYRKucx2ykzV1sXEW3/L0PgEgdIsltgnLHx+zHEYy9D/omP0CtfHWhnr9J8sRX5LLAa5UaVRzVJOH3Iw91/sz/w/7q/rmd40CFfLYlyeFQLPFgjO8fe5NtLEjWEfUmKJ7O59VmZmuXd7hc3NBCXZjc7TQc/NnzDw+hv0tzvp92kobHzK7r1/ZnXlaxaEG9cZ8qTpsMdYf3Cf+x/cYnM3TrSkQ+NsoXlwkubOHppsenWz0md7BaRKgkYpSuxgl52lDSKxIhVbB7rgIGOvK6cZLtPhzNOk2eVo/jHzH99hY32fvUyNZF2P2RvC6m2iyWXF57RgUM46KvsO6mWoZdGYvMjNl7G3DDLa6WKgSU/x4AGZzVtMz23x6cyB6ijK13+D5mCAdt0qttomO4dZDpIavH2v0zH1PkFtCmf6DvHoMfcOrRw2Aty4epmpyXF80jEOKUY0qWE3YcLkDdAx1kGoyYJNStNI7LEzfZv1+3dZ3iuwdFTD1tZDcGiM9vYWOpps2KQEx7O/J767RNYhLAhnZSS+iHqcLoGgeECsUyslKedjJA/3ie5sc7i7w/7OHuFYnoKui5qhmVZfiqAnQSpTYTsMBpuNtj4fZqORzG6JcryI153H68kRaQQ5qIXwa9N0GA4pFQqsHespWzoZUwTC2DcIBNsQpqFf0DF8mesjLYx8SSA8LVyT4nVViUBbSh9xOP979md/x8NNPfe3hEB4EX1ZpPFKEPhCIOSOVogtf8LG3EOm7y+zE6tjHvw5zvGfcW2shRtjQXT5bUrRBTYePWT6v++yvBwjq2lTTwuMvPsWF966Qk/ISqutTmb9Y3bu/AsrXxEI7zB87SoDln3adHvMPXrEJx8/Yj9aoaT14uicYOytXzA8eZVur542O6rPAuVqFA6o5bbYmX/Iwz99wuryHscaL2VXJ/1X32X4yluMdJnpayqRXZtl46OPWFtYZuUgwn4iTbmhBI5SLBLKkacvDXvVL7yshqP2X/y5GrDlUq+LkRY9pfAi6d1HzC/vML2wT9EQJDB4k6ByeoMVrOUNNncT7B438PTeoO3Szwkasrhzj0gm4jwM21RXy9evXeHS5Bie/DKW3CpLG0Uerknogm0MvzFBV5cHbz2BNrnHztwMWzOzbBwk2Iik0bj7sLZfpKOng4lBN35jisP7vyOyvkjWeYWi/8ST4oAnSvRw58QPQsOPa+SvaR35LNyzX/WIpFU9I51EcTzxQyscJb0Sw/AFFeJ0CQTF1bJEvVqkVi1QycYop6NE9jZYXXjM+vo+4WSAZNFJa0uJlua86u78KG7A6nbRNRTAZjaT3C5ROs7j9+QJ+LIc1kLs1ZoJaJN06Pcp5XMsH2nImzoYf/N/qQLB/zULQt7ch6HvZ7QOTHJ5MMRQu/ckWNO3hBaQFU+QtRxlJZrj0occLv6RmR0jM0o0x2ERzfEFdWmRzMsl8JlAKJMPrxNfv8P24iyPZ9fYj9Ux9f8E+/BPuTTcwtXBJgyVCPX0JruLj5i99QnrGzFiuj5qnkEu3rjChatjtHkN+I0VUpt32H3wG9bXj1iMeEhq2xm8epPBS5O0skqgvsrKwir3H21ynDZSN7Xj7RnnwjtvMXhhlJBVR5PpCwtCo5KiUYoR2Zhh7d4fWV9eU02HSTlAy8hrdI1dY2gwwFCvDW0uTnZri+PddQ72ltk/2GE/kuHgOMsTPfDk5IJCX48sm3CEemi99DbtQ0N0WXMEjSmyuSqJdE0VFnVkjDYPTn8XNjNYsrPU4ossrBywvp/H2n6FwMR7tLoNtOqiSPUS4ZyRAjbaWttoDvnRHj+mfjzLwkaGh+tV6u4QnZNjtDY58JUimEpJsiXIlFH9yktaDXqLC4PVpwaIctvrauTJ3Qd/4HBjmax9kpLvAu2eBr3uOMdHe8zOb5Jp+HAMvUtI8aTY5+dCj1f1Sa+EbtTrDegNBjUoi06nUUWDiPj8ckfhi8r9tAgExdWyVK/QqBbIHm+SPlwmGokSiWaJp4tkyhLlugmrsxObzYdLu4tF3uLouMTqAeidbrpGQqq78NyeEsulgNeVx+fJEq742K/5cDXihORdirkCaxE9BUsnE2/9gkHFglCcxRz7mMWZGW7fnSNZc1N3D2MLtNIdchP02tBrNGi/OOr0Z02khqxulKkXM6TDq6SPVjhMO9nPOGkduyKiOb6oTi3SebkEZI2yFlilcLxNavsR++tLLC1tcZisYei+ib3vdcb6mrnQE8TUSCEXIoS3HrP26GO2D2JEdCOUXYNcuDDKxZEemuwa7LoSqZ0HHMz/js3tKKsxN2lti3oksXd0FH9pHntpge3NQxZXYmTKbjTWAQJ9I4y/MUHfWBdegxanevDw5JJUxV4ifTjP0cJ/s7O6xNIeHGXsuDvGCfZOMDDaxfBYCy6zDkO5rAaBUspxuDXP7MoRS+sR6srHvqHEXXgyi8YMOHA1d9E5dZXW7lYcxXVMhW1SjWYicictHc0M9gXxexwYtQa05TSV6EOSu495PLvO4kYMbdMErsE3aQsF6PJocZo1JxHm0GJQXBxrobB/n+zeQ5a2ksxslalam/APjhJ0W/Hmj7DLZTRNg2iah2gJ+WhrdmGkBkq460KaYi5O6miLrccfcrC5Ts42SsUzQrOrTqcrRSJyxNLKLrmGB1vfTZp6J5no9jLS7kajM4DOiMlswWKxqhtATQYtOp326V4lX27XFLl/RwKnRiCo4Z4L1IopjjfuEV7+gK3dCOsHVdINJ8ZAH86WfoYGBuhua8KQeEw1PM3adorH2xIau5uu8XacDjulcJVGqohL2YPgKhAp24iUrZjKMVyVbXLZIptxZQ+CIhD+B4NjY/gLs5iOP1X3INy9O08kI1HAjcZkx2UzY7UY0GpOIkI+/VICTtWQGhXKuTSlfJJiw0dRDtA+oQiEtxkeG2Kgw0ur34YeDVr55VrsVFfVlTJ3P/wD//Vv/4xwlPQdB9j5fFz5WNap5OMU4/ukjsOEwzHSRQmdtxdjsJdWv5u2gAODVEKuZsnG9zneXyOeypHRtlCzNtPeEqKt2Y/DBCZtlWJ8l+ThEvFElkjOQlnrIdDaib81hK1ygLFySCKeJhwtUK7bwNSMIxCivb+VQJsXq1aD6UsDSlZcIMt1SqlDMuFlEtEjjuISqYIRi6cVe6CVUIufZuW3Jj0GWaZRSKqBl9KxA3YPk+omp4Yk0ZC+3NJGwIzV5cfX2YnL78JYCqMrRynIPjKaIP4mH20tXpw2I3pFWFRzVJIbZCLrrCwusbG2TUHnp+7sxulw4LPrsRi/6sxZKX85sUs5uUckJRPOmjD4W2kdHSLoc+KupLFr6ug87Wi97fg8dgJeK418lHJ8l1Q8zPFxguNwmNjeOonYMWVjM3VrM05LA5+lRCGbIhxJUZIsmAP9OALttPms6kkJjcGuLN7i8gbwBkO4XQ4cVoO6WVN5EYqYTad/9J8agfAlC0ImuknmcJFoPEskVack2zG6W7D5W2hrCRJ022hEZygcPmJjN8vCnoTW5adjVDkF5EOXr6Er17CaK1gsFdKFCpl8hULiiEJsh0ymSrzsQuPuYOjam/QN9uIqLKOPP2BtaYmZ2TWSZRM1Sysmu48mrw233aw4X0Sn7pD+Zpmgvo+kGvVqgULyiELykGTJQbziItQ/wcDla/QNdNPT7CHotaATAuH0D7DzWQPliycj1U8CoNSUICiVGrWGEgnNjMZoVY8EmtQPiTIlrqtR1KrlIrV6gxpGNDoTJpMRk9HwJM6BrMZ6r1cKVGt1qg0lFKtePbpoMJjQyRU0cpl6tU6lKtGQtWi0JnRGI2arCYPJgHII8WufWDVYi2KaVNKtVatUaoo1QKvGjFfcqJpMBozKb3UaJZY5yskHSSlHtUK5UqNcVRYKTg4vfHGdfB51iundbMGghIKWqurdUCPEGTEYDJhNSqCjJ7OKhhKJLk0pG+FobZ799WUiqRLHBcVqoEH/JBDSV/uTjFSrqZxlrRdMIXxdXfRc7KelxYdDrmNRSmIwodGfRKNTTmLmo6uk92cIH+6ze5QjGs9RKZWoVKtIWmUNxqgyV8LYNup1qtUaDVmH1mhBbzCrVgKjcmLD6EFr9tDU3kVrdy/BUIAmlwW71aDObIRAOP2j/7QIhJNwz7LqlKxeLZ2MZ+U9UZNpKJ9SvRG9wYTJaESvhH2OLpMLL7EXLrIZ1aBzh2gbGaapOYhTK2NFQqdTYqw0qGTDVDKH7O/us7mxTzLboKoPYPG103NhnI6uZqylbbSJJfa2tllb36OgC6AJjOAOdtATctPss6tho5X7aZeywVJuVKgX0+ryQupwmd2Enu2kAVdrH13DY7R3ttHuc+B1m9XxJSwIp3+MiRoIAs8mICvWjCr1co50eIfU0S7xdI54tkK59tnyxTclo4SR1GEwejBYA3hDQZp7m/H6nVg0KFLr8/mKGhJXligkdskfr5GIxYkoXiRzigDgyRLJs4t68oQGDA40RgeeYAtNLa14vW48dhMWk7AgPC/FV/250yMQnpfkycSlnDmknDwikakQzWjR2T142zvw+NzY9RqsymziyVUvHCMVIkQicXYPYuSKgMGN2ekj2NmGL+DEWImjyR0Sj8UIRxPqkWOdtweHP0irx4HPZVG26zyxIHxzWRVxo0xAGpUc+dge2dgO4QyE01qs7ib8LW14/R48djN2m/GVEOFiieF5+514ThD4iwgosx9lF7ZyTKtArVykUqtTqSt/kxU7y1OuE5OlVtnHoDVjtJgw2xSHUPoTE+RXfqXkobh+KFKv5KlWKpSrDWp16VvS/5Z8NXo0Wj0GkwWTxaL6qDcqexCe7NQWGxX/og7xSvz47AkERQhLSNUyjVqJSk2iUkO1MBgtVtXSaNAoH/Iv8CtBoBSXzOVyhWKxqlpC0erRGcyYrRbVmqaVKlAvn4ypShVJYwCjDaPyjOlkXChS/TMfLN/YuIqF8sk7oF4pqqcxylUo1UGnWD8UXy5GA0bjk9DqT12s+PG6jhAIPx5rkZMg8BQCX1m/+NozL+Iz/G3pf1ujvIi8RaO/ygTOokB4lXmftrIJgXDaWkyUVxAQBASBF0RACIQXBPKMJiMEwhltWFEtQUAQEASeRUAIhGcROt//LgTC+W5/UXtBQBA4xwSEQDjHjf8cVRcC4TkgiUcEAUFAEDiLBIRAOIut+uLqJATCi2MpUhIEBAFB4FQREALhVDXXj15YIRB+dOQiQ0FAEBAEXg0CQiC8Gu3wqpZCCIRXtWVEuQQBQUAQ+IEJCIHwAwM+5ckLgXDKG1AUXxAQBASB70tACITvS+58/E4IhPPRzqKWgoAgIAj8GQEhEESn+DYCQiCI/iEICAKCwDklIATCOW3456y2EAjPCUo8JggIAoLAWSMgBMJZa9EXWx8hEF4sT5GaICAICAKnhoAQCKemqV5KQYVAeCnYRaaCgCAgCLx8AkIgvPw2eJVLIATCq9w6omyCgCAgCPyABIRA+AHhnoGkhUA4A40oqiAICAKCwPchIATC96F2fn4jBML5aWtRU0FAEBAEvkJACATRIb6NwAsVCPFUBreviaGJKd54938wPHEJrUYrWkAQEAQEAUHgFSRQyOeYe3iXxcf38AebCYRaCLV0EGrrwGZzvIIlFkX6MQnIyFTKZe59/Ad+/+//SiK6j0GrYXxshF/+8pe8//776HQ6tNqT77xGViQFIEkS+XyeSCTCb37zG371q18RicYwW220dPYwdvEKbV29aDSaH7M+Ii9BQBAQBASB5yRQKZXY2VhhZ3Mdl8eDy+3F4wuot8liec5UxGNnkoCsfLslarUaq4uzPL53i3I+g9Vi4sKFie8uEHZ2d5EkGavNhj8QxOF0gRAIZ7LviEoJAoLA6SfQqNdJp5Kk0ynMZvOT24rZYkGn15/+Cooa/MUEZEkiGY8RjYTR63R4PC6mpqa+u0A4ODhQTQ1er5f29nYCgcBfXDiRgCAgCAgCgsAPQ0CZHSpW4OPjY2w2G1arFbvdjsPhwGAw/DCZilRPFYFGo8Hh4SFbW1vqyoHSNy5duvTdBMKvf/1rEokEHo+H4eFh3nzzTfX/YonhVPUFUVhBQBA4RwQKhQJzc3PMz8+rEzrlbm5uJhQKqYJBXOebgLKjoFqtcvfuXX7/+98Tj8fR6/WMjY19d4Gg7ElQOte1a9f4u7/7O65cufL55oXzjVnUXhAQBASBV49ANpvl008/5datW7S1tal3Z2cnXV1dOJ3OV6/AokQ/OoFSqcRvf/tb/umf/olddRuBpE7+v9MmRcWC8JlAuH79uioQrl69KgTCj96cIkNBQBAQBJ6PQCaTUQXC7du3aW1t/VwgdHd3C4HwfAjP/FPFYpH//M//fLEC4e///u+FQDjzXUdUUBAQBE4zgc8EwtctCEIgnOZWfbFl/0wg/OM//uOLsyAIgfBiG0mkJggIAoLAiyYgBMKLJnr20hMC4ey1qaiRICAICALPJCAEwjMRnfsHhEA4911AABAEBIHzSEAIhPPY6t+tzkIgfDde4mlBQBAQBM4EASEQzkQz/qCVEALhB8UrEhcEBAFB4NUkIATCq9kur1KphEB4lVpDlEUQEAQEgR+JgBAIPxLoU5yNEAinuPFE0QUBQUAQ+L4EhED4vuTOz++EQDg/bS1qKggIAoLA5wSEQBCd4VkEhEB4FiHx74KAICAInEECQiCcwUZ9wVUSAuEFAxXJCQKCgCBwGggIgXAaWunlllEIhJfLX+QuCAgCgsBLISAEwkvBfqoyFQLhVDWXKKwgIAgIAi+GgBAIL4bjWU5FCISz3LqiboKAICAIPIWAEAiiazyLgBAIzyIk/l0QEAQEgTNIQAiEM9ioL7hKQiC8YKAiOUFAEBAETgMBIRBOQyu93DIKgfBy+YvcBQFBQBB4KQSEQHgp2E9VpkIgnKrmEoUVBAQBQeDFEBAC4cVwPMupCIGgtq6MLMtI9Sr1epVqXaZSk9Hq9JjMJgwGA3oNaDXP0xWUtBrIUoNyqUy5WAa9CY3ZhsGgx6wD/fMl9DyZnZRdkmg0qtRrNcqVBtVaA4PZgsFixaDTYNSA5jnLDg3q1apa7mqtDkYLGMyYDTpMeq3K4LmSeq7Sy0hSA0mqUStXKZVqSBoteosNg8mEQQtG7XMlBEgq92qpTKVYpKE10NCb0RsMatkNOi1KUs/H4XnylNQ2btRrlMsVKuWaykprtqqcTDoN/z977/Xk1pWle/7gvfceifSZdKJ8lWr6jrnR7/3ef12/9Fs/9dyOut2lkimKoujJ9AaJhPf+ADjAASb2QZKiLDlxayZUUXkUGQoGQZyV261vr/Wtb+neaaAW6hyK75lOxkynM6YYmGkMmE16zAY9Ou27fte72C0+M0fMszyeqPM8E380WdEaTZh1Gsz6dx30pe2zqcxMniArC2RFg1ZnwGQyYhS2v/O+eRfbxfvmzJUZk9GIyWjCXGdkYbCo7zKJeb5aoL8+9OJ7eD1/MzGH6r6ZY1T3jVldL2L9vdMUvovpv8HPXAOE7ydlsRD7ecZ0PGQ86CAcY3+qQ14Ysdgc2B12rCYDVqNO3Y9/L881QGB5yM3nMiOxMHotWv0p9R7ozTaCkSAetxOLDtW5v+1RwcFizEweUs1XKeWq4AqgDSZxu+yErToc7+713vK6K+cylZgMu/T7Paq1AY3OBFc4hjsex2U24DKgHnZvf6aATL/donJRoNMdM/dGwRshbDcRdBgwabWqk/1f3yICSM2ZTQdMx32a9Q6lYoup1oItlsYZCOA1gsf4dquXDm+GMpvQLBapXxaQDE4mjhA2p5Owx4bHYlTH4N2c9tvfuYsMcKcAACAASURBVJhPUWYSo2GXarFOrdpB54thiKTx2oyEzBosAlW+9VnaLr6nU63Q6/bpaFwM9C6iXgchrx2LAGfadwWob3uhWDMyi8WEdrVB+aJEf6pB449j8oUI2/SErPp3AFJXzno+Q+o3GbabtIcKdUmHweogEPThdTvUfSNsf5eReJvly3mWkUcDGvkijWKNsc3HzB1V91bEacZhEoDqbe9b2j6bjlRnMOh3qTbGNNoTPLEY3kgEp8WIQ/+u++btlv8WP3ENEL6fFXF2zCcDurUs5ZNH5C7zHPZsNGY+EpkN1jc2SAVdJH1mdT/+vTzXAEEFCAqKMmbQqtCtFynUx+Sac4x2L+m1DNFIAIcB7Pq3L4vFYsZc6SOPOpy9POX02SmL0Aq6tVuEAz4yLgN+yzt567e/TLV9znTcY9ip0KrXOM+2yFckghtbhHduEHSYCBjfDdzAGBjRKBY4f7pPpdpjFt9BE99g3WdlxWPBbPhrRRFE5GPGZNxmMmySzxY53S8yNjhx79zBn1ohZoGI5R2GQXUcExWUFQ4OyD3fo2cJMvCv4gkGWQu5CbssqqMSl+O/hrOaK2OUaZdeu8b5/gUXp2X0yW2MG7dJeGysOLQ4DO/yJkV1eoNWjcrZCbVqk6o+SNsYZC3uZzXqw2nWq472nfDGW4dLrJkR8/mQ0vkFZ48PaU50aNK7WOMrrLvNrLiN6iC9/RauMFcm6p5pV3KU2gr5rg6j08dKJkk07Ff3jVWM+bsMxVttnyHW6Kjf4vLlAZcH50juBOPIJtGQj7WAA5/tXaJ9Yr3MmY569DtlOmLfXPa5KA2JbW0T3d4k4LDgNbzrvnmr4b/JD1wDhDcAgiwxm/Rp5ve4ePJfHB4f8W3FysXEx9qND7h19yNupgLcjNlxmN/BEfwmZ/z/vVHXAOEVQJiN6NcLdMs58rURFzUFgzPIys460UREvYWLG8XbHhUgzLrI4zanD/c4erDPIraBbudDIpEAay4jAetfC4GKg27BdNSl3yrQKpc5Pa6RLw4I3bhF5L33CTnNBEyoDubtzxIg1HNZTu8/oVzqMMvcQZPeYTPgIOO3YvmrAIRXId4pstRi1K+TP8lx+DTL2ODCe/cT/OsbJCwQfWeAIKI2Ay6fPufiu0f0rBH64S280RjrUTdRjxWjVvNXCxurAEHu0G2UOX18RPYwj37tFqabH5Pw2Vl16HCK3M5bHwEQJvTrFSqHe5RLNWqGCE1zmI1UiLVEELdFj1WkLP4quFKMvcR8PqB4dMrJN09pjXQsNu5iW1ln3Wtl1WN6hyiR+B4Bhid0yhe08ucU2zMuOzqMrgCrm6tEEyFc+r82QBgx6ja4ePiUixeHDH0rTJI3iUWCbIRd+GzLSNGvR4GXAGEy6jJo5GlWK5ydt7nI9UncvkX85m0Cbgu+dwbWb53k3+QHrgHC99OyUKbMZ2OGrSLty5fkL7M8yvXJdnW4k7tEVm+zm/BzO+G4Bgjb2/zzP/8z//iP/4hOp0OrXR5MmoVI1IutNZ8zGAyoVCr827/9G//6r/+q/jkSifDJJ5/wT//0T3z00Uev/+Fvcne8NuoqgjAd0a9e0imec1kekK0qGN0B0je2iMYjOPRz7NqFeldVB0GjQaMVt2ktOhF212rQiGvSK4AgNTi+/4yjr58xT22ju/kJ4UiQdacen0XLfL78ruXIatBqlwOt1WrQiu9+pyvX0hpZ6jBoXtIoFDg9rHB52SF0+y6RDz5SIwh+vaLenl+/T7VbvFO8T6QMlu98HUE4P+Xoy28pFVooG+/D6i02/FZWvFYEeBafXLp4YboWrU78/suxWNr+thlfpkbUCMKwwahXJbd/ztHDEyZGN+6PP8O/sUXcNCdiUpgvXtm+JFO8slv9v/o+8ZuNmU16XH73mPN79+nao/RjN/FGoypAiHgs6Fmot/DX86fOocgpvvqed7F9+bsJgDCbtOnWipw8eMn5iyz6rfcwvfd7El47K3YNDv1CtX35vquxUsdL93qONRpxK5bpVUuUXz6jki9TMcVoWiJspMOsJQI4zTrMmoXq9H5o+3LtiR/xgrePuzDkFUDoU9w75OiL72iOtLD9EdbVLda8JlbdRubqYllczbMYpzfW6NUcC9vFoSr2TDN3QqEhc9nWYfQEWd1eIxoPYdfOMWuvAKE6DlfrTXe1b67W+luXjDrqYqxGSJ0q2W8ekn30Aim4xihzh3g0xEbQgddmEAfVD8fqap0v9+py9Yo1I/ZNv5ajWS5yctwke9Ehcfcu8Tu38TuteA1zjJrlGKi/wdVe0V3tVTHey33zt/lcA4Q35k24tsUcZdJj1q/SqJd4cXLBeaWH4l7FFNpiK+bjTsKJ0/ION8W/zSXxE6uvIwhXEYT5VKJXvaRdOCNf6nNenaGzu0iupwkE3OjlMVp5wmSxYCoOY6MJncmMzWrFYXNgNZkw6sUtT2E+6yFLdY7/8ozDvzxinthEu/sRPq+DhH6CnQnSZM54NkfR6VgYDFisduw2J1aLCZsgeOmXB+mvP68AQptB4wog7JfIXbYI7OwSvH0bh26OfSqBMmWsgCIOOaMJg8ms2m232bAYDRjVyMBkGUE4O+X4i28o5RtM1++wWNkhZdUQtyxYKDPGkynTBartOpMJq9WB1WrDZjZhMxuvwMev2f6K9zFDHgiAUCG3d87Rd0eM9HZc73+EayVDQBngng0YKWKsFih6/ZJIZ7kac4sFq1GP0SBGaaIChNyDR2T/cp+OPcQgtovD7yXtNuA1a5lOBJFzxlSjYa7Tq4Q0k9WOzWrBabFgMhiuANrbd7cACNNJk16txMn9F5w9P0O3cQvDnY8JWbTEkNArMpKsIAuAo9puxGZ1YLPZsYqxMhnQaedoNFcA4fkTyvkSVXOUhjnMSshBKmDDMFdYyBNm8zmCJbLQGzBabJgtFhxWGw6LBYNei04Atbea/gog9Ci9POTwzw9oSHMWW+9jSq6TMsvEjDOkyYyRrDDVaJnrdBjNVqw2BzaLVZ1ji1GPVqx1ZUy3eE4re0y+MSbX0WIQ+yYTJ+BzopXHIEiM8wWy2DcGIzqzBZvVhlOMgyCj6jXo3yk8cgUQ2lWy977j4uFzBsEMo8wtQm4HaacOq3bOZCKIxgozrVYdK7PVhsVix261YLcs36fViBRDl37tYgmsTxtqei5yY4fozhZ2gxaL2DeCwDhf7hux9vRmCw6bHYfVjllde0tw+bf4XAOEH8/agoU8ZDFq0m5UeHF8ynm5hezIoPNvshnzXgOE+Zztv8cIwmuAkD/jstzlvDJGY7QSTgRxOUxM210m3R6DhQjQatBabRidLrweP9FACK/Did0imNSiGqKLLDU5vveYo68fMY2uwNZ7OCx6gpMWeqlPayjTFQew3sDcYsHjDeL3R/C7XQRcy0P4VTThlw+fHwGEYp6TvQK5bAP32iq+7Q2MYwltp8F4PKInqjO0enQ2Oxanm5A/QsgXwGU347Qa0etkNBrpNUAo5qrIqzeZJdaILIb4laHK7u0MJkgLkPV6jHYnbl8Yn9dPwO3E57KrLH5x4P/yufljgFAmt3fG0XeHDDFhv3UHWzSCrVvD3GnQns7oThUUoxmNxYbT4yfkDxPwePA4zDhUUt1ERf+57x6S/eo+bZufXnQDi8NG1DjFpkzodQcMhhNGWi1TgxGry4vTG8Dv9RL2enDZzCowexdHO1dGTCcteiKCcP85Z89OYXUL3e57uJng7deYSQPa0pSBskAxmdVx9/lCBHwh/C4HXpcVs0HcQqf0awVKz59RzhepmII0jEFiDg0RGyiShNQZIE1nDNGwMFuwur043T4iPh8hrw+rWY9JMKzf6qy+BwjFlwccfv4t9cGM+fotdNEE4VkH37RDqy+ra3Ss1TEzGrE4Pfj8YfweHwGXHbfDglE3h8WEbuGc1sURlw2Jy/YCjFaiUQ8uq5FJp8OkP1DHQEKL1mrH4HTj9/qJ+oN4nU5sFlGtoXuHCMgSIIzaVc7vPSD73TMG/iRSege3WUdEN0Y7HtHtDemNZ8gGPYrRhNMTUPdXwOsh6HFhM+sx6Bcoo2UEoVHMc3pS5fy8SWB9hcBqCt10gqbTYjwa0VOW+0Zvd2JyuQkLMqc/iMsmAJpBrUp667D/BhHENUD4mUkRoHDcot0UAOGE83KTiS2D1rdxDRByOTV78HcMEC5o5084vahykGsy0RhURrPNYccwHKIZjRkuFoznc2Z6HQu9Hqvdi8cVwu8LEgkJ5rYZo6bPQm5w/PV9Dr68R8cdY5DcwGoxE1FGWGSZwWSKNFMYCw6BKEU0OrBa3AQCYYLRGH6vC6/dqB5mv3w/eRMgXFC7zHLw9ITj4wLmRBrz2jo2ZYptOESZygzFQSdu/noRATFjt/lxO/0EQyHC0SBOG9iMI9rZY47//CUX55e0gxm6gQRR7ZyAdoYyESVhIhqhMNIsmOuNmAxWrHYPwXCMQDiK32XF7zSj14mwtOZn7H8TINQZ9cqcP99j795TmlMN2vUdDMEI3lEfx3jIYKowVMRtVrMcK5MDu9WL1xskEo3gC3hwWaaYNQMuv/uW7FdfU9JaKbsi6CwOQmYdTs2cmSjdFOWUmgVjcaLrTRiM1iU4CyYI+L0E3FbcDpPqaH+tnGkJEJp0q5cc3XvE0aOXjCJppJUdPNoFwekA7WTMcKIgKXNk3QJFp8didmG3efEHw4QiUXxuEx4byK0ipeePKWTPOVesXM6thO1mAjYT+umUhTRBngmAsEAWt1kx7hYbXl9MBZZBn5ug34HFeFXS+YuL5nuAUHj+nIPPv6bQGtCLrDHzRwgzIbiYMhzLSBOF8WLORKRHDCbMRicul49gJE4g6MfnNOA0zxmUT2lfHHJabHFU6iNrjfiCfhw2KzpJYjGaMFzMGc/FGCwjZja7F68njN8XIBz04vM61fSVAGi//LwCCBXO/3KPswffUbMGqPmTOMwmIgYwqiWQMhN5iqRZjpXBYFbXjDcQWa5RrxO/y4R+MUCqZ2kVcuzvnXN4kMeeXsGeTGNhjkkaoojvERGsxQLFoENrFJE3sW8ChMJBQhGxb0xYDRq1pPhv6bkGCL8AECYtOo0qz09OOC81kW0raK4BArlrgHBO6/KIveMzHu9n6c70WEJJ7G4/XhY4BThYKEyUKcOJhDSSWGht6ExBAuEEG9vrpBIBXKYBJqXJwZdfsPf5f1EweCh6E1isThImEx6dDo04LOczhjMJSR4xkQSXANzRVULrt0glo6xFHITcv0YYewUQWgwaF1RyRzz99ikvnx2hhNMoiTV8BhNhQc5bLJDFIT0V6Y0BY3mGMrehN3iJr22wurtDNGAk5JQZXoqb5X9yenBE1hqkZAkQs9kIW2xYNBoM8zmyIgDHmOFozKgns9Ba8aZ2CGa2WYt72Yx7sJiWdek/vV29AghT5IEACCVOnzzmyRf3KPZkBvF1Fr4ocR0EtTqUxZzpfM5IFmMlIcsaZlMTdk+MxM5NkqspEl4ImiUKD78i++XnnIwXHC3sKBYnIbsbr7h1L+aq7aO5zGAmIw1HjAYjTK4Yztg2sUSSrbSPRMiFWa/5VWe1BAgNOpULDr76ir1vH1JxhKkG0vjMVpLCCWo0aimnoswYTAdIIkU1EvwTM/7EOtHNm6RjHjJBPbqBAAgPuDw95GlLZr83w+8J4HN5cen0OBaCs6EgibJCeYw0HDJTtJg8Sey+FdZXY2ytxvDYzdiMImT/S87qe4CQf/6Ivf/8T85KNfKOGD27n4TFSsRsRjtfoJsrjJQx0myMJE0ZDxT0Zg/BtZtEV1ZZi9pJ+fWMqid0cnvsnV3y5KRERzFgD8RwuLx4AJsAGQuF8WyKNJEYjSXQOdBbwgTCSTa2MqRTUVwWHS7z2wGC1C5x/pcvOLl/j7O5iVODF5vVSUREswwGTIKDoMzoz8cMxXrvCZ2KOfZAGk96l1QyzGbCjcc0ZtwUAOGUJw9f8OzpPprYGtroCh6jmYBY68L2ucJkJjO82jeLhQOtwUt6fZ21GzuEfQ6CDj3Wv1r58v8/MOMaIFwDhLettGsOwg84CKe0Lg94eXTGw5cX9BYW7MltvMEoEbOeoEnPbK4wm08ZDDsMey16gxn9gQGrO0xya4fESpSwe4rb0OX4yz+x//kfKRiC5L1rOD0h1jwuwjYzJiF+g8JYHjAc9ek1O3RrXeaWCHrfBrF0ipvbIdJxF0ZxUP3sef8mQDijkjvk8TePefn8CCW2wyJzm4TDQcpqwqrXCLUHptMxg0GbYb9Hty3EibQ44+vqoZ+K21mNa5lWjjj+/H9wenDMuSVByRIjE/CT8npxmwzYdIKoKjOajtQa8k61xmA4ZWFdQe/JsLUd5+ZuHLfNiM2oRf8ThPAmQKgx6hU5efKQJ59/RaGvMEjeRhfJsGo3k7abrxj1C0bjPpLQe+gO6DYkFL0Le3wXf3KF7YyVldCC6qMvyH31R44lHfsLDxp7gEQ4SsTpwm3QYtcJMR/BDRjRbzfo1euMFAdjQwJfJMHuzSSZTAiXWa+WF/6Sm50r0hVAOGf/yy94ef9bKq4Vyv4tYh4P6247PtOSUS80E6RJj+GwT7ch7J+gdaQwhzbJrIa4senCOqvRePENuZN9njTmvOxALJogEo4TtJjxG3XoNcJZzZBGfQatOv3+iOHUhaz1k9laYevGGiGfHZ/DgFWE7H92978BEJ59x95//g9OS00uHSv0XXFWfR5WvB61NNGkgakyQpKH9DsdutUmY9mIxr2GM7zC9laQzYyTWeMU6fIl+6eXPDwu08OCO7Gh3tjDZgM+g5b5QmGqTJGGHQa9Jv3hgt7QhNUVJr2zTXotTdhjJiwqKAQf8GdtfxVBKHD2lz9xcv8rTmd2jgxhXJ4Q6UCQkN2KS6/FqJkzUkYMRxLdRo1eq8NEG0CxpYmn4+zuxgi7Fehc0Cud8vjhc5483seQvoU+tUvE6SRuMWDTa4U0E7JY64M2g16PbmeGJGnxJTcIb9wgFfezErHhshsRxUJ/K3GEa4BwDRCuAcLbRuA1QBjSq57Syu+xf3zJ48MKE6Of0PYHRNOrJJwmonaDynQVlQrjYYthp0a1UOfitM4YK9bUFr5knExMR9Q74uyrP3H0pz9Ss69Tj3xIIJbiVsxLymfDotdi0CyYzSQmUp92OUczn6XcMJLvenHHE9z9bJ217TBOrRb7zyY5XwGEBoOGAAhHPH3wjP2XWUwbn2Le/QOZoJd1rwWXSauKBCmzMZNBk367TilbpFZqMTJGmHnWWVn1cfOGE03nlOzn/87FyRkF5y1q7l1upSNsJYL47UacqvNRmKm3sxrd8in1Up2LspVKz8X6hxvc+P0mYbcNv2Dg/4SA9iZAqKgA4fTpI55++TXVsYXZ5j9gWbnFjYCNTf9SDVJ8xWzcZyx1aFfKVLI56q05LSWOzh3j9odBdm7YaD/6nMrX/zdnspsTXQZLMMXmaoqVcACfRYdTOKv5jNl0yKBVUnPQuYsRxxda9M4gG59us3ojScRhJuRYOqufO/BfAYRu5Yy9r75g/7vvaAfeoxn/lLV4iFtRN2G7UVUl1Imo06SvCnE1CxfUCyUqHTuVUZDkVpz3PkviMbXpP/+K8ukRzzt2Dod2VZxlfXWVqNtO0LpU4VQd7ajLsFmkWa1ydiqRL84Iba0Tv7tDMuolGbDiMBsQXOuf2v4mQPiWvf/6d7I1iYr/LtPgNjeTQbWcSzhGq3COiow8lRg2y7RLp1RLAy4bTka6ANsfrbB9N4q+c8q88JLjbJUnZx1kk5/o1h1i6Qxxh1G1XSuqAQRRdthi1K1SvmyQPW0iLax41ncIZFZZjbtYiTlVu3/e9jcBwv/k9P6fudDGydq2CceT7KzEiXtdeMxatSx0poiIzYBePUunnCdXmHNeMuNOxNn+3QbRiAHr4AK5llXBwfNnpzh3PsO18ynJgI8Vjxm3SVScCF6RiDY16TVrlLNlyvkGM0cC/BukMzF2twKEfFYVyP+tcNyvAcI1QHibe7yOIPwogtDOH3J0XuXleYe5I0zq1sck1taIO01EHAZBEUOrHtIdxv0GxbMLTl8cU+8tGHvTmMMRNjJ2UmEN+Xtfcv7Fn+n5bzBY+YxIeoU7CQ/JK4BgFAe+kHce9+lWsjQLx5yc9Hh5NEHnC7H5D7dIbcVxyUNssyGjiQizz9XSOVF2JqooBAtftxjBIE+vcs7+k2NOjos4b3yG++7/SSbsYc1nwW1eAgRm8tLBtKsUj48pZC+pDG1U537ia2FufRDFOCxS/PKPlLJ5WuEP6Yff49ZqhN1kEL/DtIwKXMkDiyqEQe2E6uUlz591ODwbE7u7S+qzO4TtWsJ6Gc1symA8YzJdFlqK0kKDxYZeMNjnPXRyjcv9lxz85QFtXOhv/3fcG3fZDVnZ8AsynABTohBjyHQkwNQllfNDLnNtTktGhjoXNz5bZ+v9KMNnX9P+5j8oa0Lk7bs446vcWE+xEvPjMRtwqvWeMxazCeNOkWEzx9GLEo8flJD0diIf3SGyvULcNidsmTMcTZFGM7UsVTxagxmd2YbJICSJ+0w7RU6+ucfJ0xeMEh8hrf83NpJhbkddhJ1XAEHcQa9U+5rFE6oXWU7PJQ4v5njXU+z+H7fw2UdM976hlzvjcOInOw2ws7PB1uYaUY+NoM2gpj00QlZ70mfcLamCVi8fXXD8soIps4p99waJsIO0z4BZO2c8miBPFLVYcYEWndGM3mjGagWbZUbt8Bknf/6flNpTusnfoUne4k4qwI2kD5tBp2peoIhSxgkirN8tn5DPlnixN6TWN5D8eJeVD9exD3KYqwfkCh32CiPmjijpW3dJCXAjAIIqXrRAI/aN1GY8aFA4yXL09IR6f8E8soYlmmIjbmM1amUsTZiOJsyUV2tdh0ZvwiiiV3atSiIrPfgzuUffULWsUgm8Rzyd5uZqnITfqUZ/hIrlXNS2T4YMWzl1fx28qPL0SQtdIExCrM+4Hd+kiLad5+XzCw4O8gTf+98I3vkDqZCPlPdq34iJV8bLcuJWheLRCZenWRozN3VthORailt3VoiGXMvIy19Fr+JtR/f/+t9fA4RrgPC2VXQNEF4DhNGyzDF/Sk6UOVZG6N1BUjdvEEsn8Bh1eExXZWRq3wZRBz+gVbygfLJHpTWgvPAys3lZzQRIhuxUHz2j8M0jFqlNuPUxoViEdY+NkN2oMp9FOFJIMyszmXG3jtQuc3FyytHzI4Z6B/bt9zH7fZjqh2jqJ1zUx2op2XSuQas34AgmCWRuEPG7iJu7mMdNsgclCpdN/HfeJ/ThJ0TcdiJWvZpiUM+thcJ8OmEy7NAqntMoXHAphKHaMzyJGGu3NzEN+zTu36dTriGvv8d87QbrIQ+rQScOo0HtM6BWk8+F4xsiD5u0qwVOHj/n7PAUTfIGuvX3cSt1vNI5rXqdw+KQSlsIMQkJazvu+BbexCopn560S6Z7kSf76IiJ2YXz48/wbW2TshmIq7dP1AiC0OAXtg87VTqVHOXLPCenJcTXRt97n/DONrODZ4wffUPfEaIX28QdT7IeDxH1ubDpNZjUUsBluaaoehBgqbD/ksOH39Eca1DSdzEIMptSxC2XOLjscJLvqpwNoflg8oSxRbeIREJsRo14dUPKT/cp7mfRbd1G/97vSAY9rDpNeFTZXzFWV++TJYatMp1qgYuTLMdHWbThFbzvf6aKr5iyz1DqRcrGIA1ziPVMnEwqhtdmUqM2yxT3smeIAAmDZoXcsydcHB7Qd6YYBLbxWmSi+hZSt8HxRYNyvcdUWYDOiNkbxxFMkMkE2cp4mRUuKX3zkJ4M8+0PsKxusy4EsXx2VVRKLT2cix4XM6ZSj3G/Ti1/wfGzPUq1HqbN97Fu3sE/ruPrndNojcm25+q+Se9uE0vF1H3juhLXEtG35b4Z0iycUzx4Qak1pGGIMDa7SDplorYx5xcVLi6r9ETFyXSO1iiqBwL4wlHWNxOEnCaGL57S3d9DCq0wzNwiGouwEfETcFrUiJVRp1muT0VGGXeQunUu9vY4evyUocWPbvNjXH4/MU0T27jB2VGNbLZB9P0PiL5/l7DbSVAIVAlQJoZd9AyZjhkP27TyZ9Ty5+RbCrmehkAyw8aNG0TDQdwmsP6NhBCuAcI1QLgGCG8bgTcBQqVEu3BJuTGm1FEw+fykd9eJJIIq4czyg3jt8tAfNrK0c88oVhucdI30NE5WMjES4QCtZ8fUHx5g2lzH+vF7BMJBkhYD7h9peQsim9ABF1GJ4tEjTh//mfrEgBT5HVOjB33xHrP8Q15cDlRHOxYNcQwm/OldEnf+gfV0nJveKQFGlLMtqpUh0bs3iH16G6/VjPsqn/x6KAQjWxD+Gjk6tQuyl0WOLqtYw0liu3cxSjN6D58zbvXQ376JaXeTlNtBzLE8fJeyPMtHABzmU4bNErlHfyT74h5tzy1agY+wDy7wtB6Rv7zk/nGH86qk/hujzU1g+1OiOx9yJ+HivZgeudyk8CIPDjfBP3xIYHeVkBZ8P76NLYTATVu9QVcvTzh58Yhap49t+x+wr32M5viYxYtnzIMhlPUNPPGI6rCDjmX49/sc8VIYRdheO7lP/rt/p9ieUHV/wNAYIjA6wN475Jv9Kg+OagxHM1UMyhJcxb3+MWub63yy4WbFoaG1l6NxVsZ++wbO331AxGUnZtRi/ZGcn1gv4gYtdSrkDx9x+vweQ9cqi81/xGx04SkeYuzX6LkjDL1hMvEgyWgAh1Gn8gFei2GqemVz5F6N6t6XVA7vk9MmuDBs4lx0CCqXNEqXPHhZ4CTfZDqbs9BbsEa3VCLp3dsZPr2TxNho03h0yHShx/zBbZybayTtZuK2ZWrlzUc4WlEj3qqck334nxSKlwyjv2cc/5TorEt8UmAgKVRGekxeP+mtDOF4FZ9xogAAIABJREFUAJsGzD+QbRaiEAr96inN84cUak3Ohm4aUxNRQ4eAts3jvSzP9rM0uhLDyQKNxYPVnyK2us6HH91iLepnfnSOfHoOK2k0N3YJhwVHxoHbLCpQ3uQwiHlWVDBf2v+a3Hf/QQ0P7fAfMLqjrBr7eGZ9CrkepeKAxIe7JD64oZI9XZplo7Orla6qJSnykEHtHJFaOis2OSy0cUXWSe1+TCQcIWBd4HgnBc23Hkz/n3/gGiBcA4S3LbLrCMIPAEJxCRDqIwqdOWZx0N0QACGMiGz+ACBcdf8a1LO0s08p1lsqQOhrnaysxkiG/TSfHlN7uI9pYwPLh3cJRpcAQdyq3nxUgDAWt9kO+YPHnD75ksbMxjT9v6PxpQhPcjgnRSrtCbWeEJ0BjU6PzRPCFVnB67Tg03TRDdoUTpuUS0MiAiD87j18NjOenwCEuQoQhvULupUcZ4Uyx5c1bOEE8RvvYZSmdB8+Z9TsYLh9G8POFmm3g4TTsuzo+CZAmCto5hMGzSLZR/9F9vl9usEP6Ed/T8g4IqmpMhn2yNVHNPuy+mvrjBbsoSROf4ygHUKWMZ2suA1fothdBD/7mMDOGiEd+H8wVOKwXyCLPHanSPXylOOXT1WAYN/5A871j0AAhOdPUIJhZmtbKkBIBTyEXNZlbvu1s1o6joUyoXb8LbkH/0G5O6Pu/5ipe4W0qUvE0CNf71OsD9UOmYItaXT4sPqSeHwe4l4N9rlE+dkZpcMS1ts3cX76IWG3nYRJi+0nAGF6ZXuF3P5jTl58i+TOoN0RAMGBu3CAqVun4wkz8ITJxEKkY0HsJh1mMW7fozLV9kmvRuXll5QPH5DXJ7k07RCw60k7pzAZUqp3aHclFJEe0RowOgNYPUGiERfpiI3RZYn8/T0kRYf57ns4t9ZJ2U3EBTH0xwBBNLORh7TLZ5w9/BOFQoFR4nfIiU+JzNrEx3n6Q4WyZFgC6+0MkZgA1iAKE773s4LDo9CrnNI8e0ix2uJs7KG1cLDiN5PwGmnU29QaLUbjKdPZAo3BgsHmweXzEk8GcBu1dJ4d0d47QUmlYfcG4UiAtG8JENTOq9+jYRUEijReaf8e59/9kbrGQzfyB0weARB6uKdd8rkexUKfxIc3Sb5/U9XXcGt/DBAWKJMh/doZnfI556UWh8U2rugG6d2PiIYj+C3XAOFtTuc3/fdCB+G6zPH1FF0DhJ8AhAuKNYl8c4bJK6SWN4kkwzh0GmxXofWlTLCi5rF71Qua588p1tpkR1Ykg4uVTJhkxEvjyQGVb/cwrG9gev8DFSCk7Sa8pmW3PPXQFOkKccMZCUGZFvmjZ5w8eUBH60Kz9d+xJXZYt8kkLKIOfrG8DV5Nn0gziLbIIj8661UZVCpkj2uUCn1Cd28R++R9fA4Lfr3Ii16FSq/K5cSNql/L0inlOC82OC21cUTjJG/ewihN6Dx4gtRoo7lxG93WLhmvnaTbpnYyE47qte3zKQtZot8ocvboS7L7TxjFPmKc/gdW/Da2vRqsugXj6VxV01MfIXlrNKLT69FMe8uc8lGe00cXTK1O/L/7hMDOBhGDhqC49l+9TwApcfsUJEupWaCSP+No/4BGT8J18/d4Nu7C4SGzZw+Z+sJMMgIgxFgJeQm6bZhENYjqrJZAQ4ADwQ0oHz3i4rs/UR0u6IY/RRvZZitoZs1vVMd7NhP9Eq4enQGdwYReu8Cg6TPu1Ml+d0JuL4/5xi2sH39EzOsgadHheEMsSm0nq8hMROfDVomLg+ec7D1l4slguvl/YTXacOT30HWqtB1hes4Qq8kw6XgIp9mgRiNeAQSx9lBkRt0a5Zf3yB8+pmpKU3bsEAsF2Y65cVv1aoTrSjNZhXRivYgfo0nBbJSpH2Y5+eoZPVmD4dZ72Dc3SLuspJwCIAi1weX6FP+JcZqNe2pa6uTRPYrlMtP0JyzSHxGetogML+n2Z5QGOnXfpLZXiSRC2H9u3yhTeuVTaiePVRBzMfXRN/rZSMdZS0bRL2SV2CkiPGqwRJWn1qMT6obmBcqwR+Hb5xSeHiLH0ihbN1Udj5WAC6/VhEFoWCwXqFpmupiNkUddSi8fcPbwzzT1XqTEZ1i8IdL6Lq5pm9x5h2K+T+yD2yTev4nPacUjUlKv982yvbcAGr3KmToO2VqPk4qEO7ZKZvcDouEwXvM1QPhNA4C3GXcNEH4wQtcA4cdSy/kzLvJtTvMDtK4A8Zs3iWaSBK1GfJYlSVEj2hRPhshSl0b+guLxEbXumJYprLZ2Xl1xkQhaKD94RP4vj5jG1lE2PyCUjLERdBJW86RLIR7B7J7JIzU3LUR3cuclzk7KTG1BfO9/Smh1jaRlQcQsgIQ48F7p4y+JiuJHGfeQRLOmwiXHL3Lkzht4bt3F/+EnxHxO9UZoMy05D+ptajJk1GtRz51TExGTzoLSyIA/GWX9VhrDoE3tm3u0CjVG6ZsoqV3WYn4yYS9uq1Flt6vFX6J/+qjHqF2mVSpyvJclm62qeWnHzQ9J+R2sugxqXb64xS47eVz1sVCrMubMRi3kQZXcyxMOv91joHVg/+D3eLd2WHGZSbkEX0MQLEXufcJsLNFvVtQcdrlYJVvo01eMJETEZHsVee8Jw4f36Jj9tANrOGNJ1lMRokEvLpNOtV3lYQh2/qDFuFcnJ5oWPT2kOzdj3Hofd2aTNb+FFZ9VdZDfG77spyAcFguZxaxDvy6UFJ8tlRQzN+Hmx6TCPlb9dvwWg5oLFyx40U52JvXp1gu0SpdcZqucXTQxxlOEP/hQJU/qTh8zqRQpajzUdD5W19JkMkm1s6BbcBSWpBWUqcR00KJbL5N9cUjuJMvEv8IssUsiGmQ96sEneC5irb6Gk0vbl2tmglYzpLS3z5FQUuzPmK69h2lli/Wwh9WQW62+MKmkSBFlmTLuN9WGYNV8kdODPNWOjGPnNp6tHVyjKu7WGdX6kPP6FK0zQFLoaqQTBKxGVeVwmdpRUMYD5FGPei7H5eE+te6EnqgG8MRZXwmzngpj0ix7ILy2XfRrEIBFu0Crm6h8ndw3D7h4+IyuO0EvvkskEWM9EVQllwWJ1qLTqOtTcFbGvRr9Vpnc4TnHL86QHUGsu3fxBD2E53VMgxqnB2XOTqqE3/uQ0N33ifjchB0m7IYrsKFMmU4GjLotarkzqpcXVIY6qrKNQCrN5u4WkZBXbeh2zUF4mxf+Df/9NUC4Bgg/XJ7LZk1LqeUs7csjTk4rvDypM7MFCN+4S2xtjYTHStRlRsccrShzFDfBdoXSRYHzg0s6Ez2a8BqOaIxMykTcO+Pi3j3O/vwVXfcq/dhdQqk0OytBkn4ndqN2WbYmL9nRjeI5NSFXW1K4qBgxh2Js/X6X1GYcv0GDV/d9gyQBEl5XPWoWal570LxQD669h0ecHBSw7nyA8/bvSUf9ahtcj0W/rMkXbHpx2Dcr5I/PKF2W6S589C0JEqtBdm560fUK5L/4L0qneZq+Xfr+bbbW4myuRPALZ2XRoVfJlWNGnSqtwhHVfInj7Jx8TU/i7jaZT3eJeW1EVKKXdtnw5gohvLJ9sRAh9wZjoaT49Dkvvn5Ic2ZBu/sHXOu32I44WQ9dKeyJMsdRn4koFSxeUjw7plQdUpF8zKxBdj5IsHHDS+/pPZrf/InizE3RlMYWTbOxkSEVDxKwLZ3VEiRJaoOrrggVn7U5OBgytXhJfHiD+HaGpNtMxGX6Ud5fONll4eN8PkK5UlI8+Po+xw9fMIzcZLTyESupKLsJkdawYBfKhihMx4MrUHZCOZflsqaj0LbhX02w+9kabtOI8d4DOtkzjgY2cmMHq1ubZLbWifkcRBxGlZkvqhhEK/FhI0+9UOTkoMb5RR9HZg3PzR2SMR8rQQcuy6syxyUq+76vh1g7ot1zn+KLp+z/6XOK9TGd0G2IbrO9GmYzHVLBlOA+aBTR42IZIapfHlIqNDjL6+jNnKTeX2flTgpL7xJ95YCLyxb7F30UW4DYjTvEVzPEXBa1XNSgXaCZT5n0G0jtCoXzAqcHBbqyHkNyE2ciw1rSy2rcrXJFjEsc+aNHEEXH6r+/+OZLzr69T8UQo+zYIJxOs7meJB704LPqVceugrJRn07lnFYxy9nZgOPzGeZIhPTHO4QjZpyjEotmgb0np+y/uMR7+1O8Nz9WuR8iAuZ6vW8kxr0GvUaF/Mm52p58YAgxcawQz8TZ3o4SDtjVNOTfCAWBaw7CzwCVNwDCiyslxcm1kiL/8i//8vetpKjMBEC4oFM44ei4wPODEiODU63R9sfjRG0mAhbdMmSpzBgJ0ZSuaOrRo1YesDC58Ga2CSSjxANz/DaJs7/c4+iLv6iNd1q+dTzhKKsxL2GXTS2HEk52NhUqdX06VXELLzCYuhjq4vjicbbvxEmlvSpB8seEt+XSfkNqWQCEy3NePtjncC+HfmUX4+YdNYKQdFlwGAV7f85MHjPqt+l3WzTLDTpNCZ0niTmyTSLlZi1jRGlkyX75BbnjC6rWJG17knQyTCoWVIGGQwca0YlxOmbYbdIpX9JtdmnLAcaaMCs302zeSeIXeVyTTg3T/hSULbs5ysMaUq/C2bMXvPjqO6ojLcrKHcyJdVZ9NlJeq1oiJyIW09EASRUbqtMolRmOjSiONWyhBJtbLjIpPfWn31L+5gsuJRM5/Oh9UZLpOJGAB69Rq97whLLheDJi0CrTqxVodnTUew4s/ghrtzOk1iIEbAa8VhEx+iUdhO+llg++/pbDhy/oelbohbeJhP2sh91qZ0GRf9ep7xsiDXq0KkU61SbDRYCJOUUsE2LndgA7HTr7D6mennHY0nLe0xPLrBDOJAnbLaqehEmAQUVRb+CigqHTaFNvamgPjEQ2MiRurhMJOAm7RSMo/S+I9ryhg/DiGQeff0mu0qPhWmXqT5GJ+UlHA6qglFUrohUyY1li0K6rkY9uR2awiKB1xFjdjbC25YNWjmnxkDNRHnzWZGRw4FvbJhCPERGRNwHKEPtmitQXJM06zcaAWnUEJhf+9W1CKyskglZifquaHvh5waFXzZrKZO/f4/TBAwoLFwVjDE84RiodUfkfbr0Gi2jaJGyfDOhVxZiXafUtdCZ+fMkIG3dSBH0a9P0Ck9olzx8dsffsHNvGbawbt4h4XWppswAaAporQr2y32LQaVGvtGg3BpgCGazxHRKJAJmUG5/T+JoI+xu+I7827Rog/DpA2H8TIHg32Ih7uZ1wqj11/l6e6xTDVYpBmY3o1S5pl7KcHF/ycj9Pd6HHFI1hFU2B5gr2hYI8VxhPZ4xGI4bDEcpcz0LnUNUWxY0vmQrhto6w0uH4m+84+OoBNZ2Nht2PyelU2fROox6dLELUU0bylKEsI/XEzV7CEUzjX7lJIhUnE3cQ9plVJcKfV869AggjUZ+dV3sxvHx4yOHLLPNwDOIpVfnQr4KRuepcxqInw0hiPJoyFX0PNFYimU1SOzeIBs1EPFOkcpaTr78he3xB2eCkYXTi87jwuZxYFgrGqcxUyObOpuoYDNs9lLkOd0yULm6zmvKzuuJTyXUmvSDX/QpAkJpqN8fTF/u8uPeUSm/COJQEn5+QUY/fqEeZiV7tM0aTCcPJhPF4ijyaYXUEiWzeIa46Fw1Bx5jS0yfkHjwg15+SmxmZW50qodBptWKbyRhEdz5RfTIVzmrAsNvHYAthDa4TTiRYzwRJRNxYjRpVB+CXlRRHTOU23Wqeg28ec/hoj5bVQ9sTxm23EbKasWhBO50ym8pI4n3C9sFYSFHgjq4RWBXqlV5WYgYM4wbVg+cUzs44qo8568i4g0Gcfh9OrQa7MhXIhpGiII2Fsxogywv09hBWd5yV1QRr6wl8LjMO87LM761KinsHHHxxn1y5Sc3iRbK78Tsd+J02DLKsNiyaiAZRYp2Kee700RnseFM3CKVWySScJMImJo0cg/wpx+dF9k7L9BcGLJEoNrcH93yGTewbsfbEHEojhtKQ+cIEBjf+YFSNkggQ57Hr8FiXCpA/b/sb7Z6/e8TpwycUZD15jQ2zaJzmc+M06LFMJ2jF2lQUdW8NOj0mgzFmTwJXbJO4kDHPuPFYFGadAt3KBS8fnfDy+Sm6WBJNPIHbaMSnWaj7RvTAEGBjOBoxGctMpwK+WImvb5LeuUlEpA3dBqymHxJ4f+tO5Bog/DJA6DaqHJyckCuJZk0raL0brMa93LgGCH+PzZpEvfSYQatGr1Hk8rLM6UWN/nSBzu3CINovSxJa0XdAHNCzORNBGJxrMJmd2EXjlkiYlUyCaNiDRTdEp3S4eH7E+dMDWho9XYsdjUGnMtsNarnbmOl4gjSH8VzLYq5Du9ATjKdJrG8RjQYIuwwq2extXREFcWrYq9Gqljg9uODitITicbHweTHOZpgnotOhzEg0hxI/ojJRo8coiHE2r+pgMxur+Nx6XKYRA1Gn/3SPUq5EQ2+mozOp7X2teh2MJ8wlSQVJwvbJssoRk8lOdHWLWGaNqM9OTAgcCa7Cmwz21/txGfYWEYTZuMto2KRwdsHJs2MagzETj5e5zYpNnmIRzmmybL4zVkSjLJFHN2DQmfEFw6Q2t4knovhsM+y6EdXjIwp7B5QlmYqiZSYaJIlW3MLjDEXjoDHSfMFwLgifS9vdwSih1AaRmCiJdOB3m9UeEr/WN2g+nzCb9ug3q1y8OCF7eE7XaKHvcKhkSLsQVZJlJqMxsjxltIDJQgAOAybRJTS5SnJji4jfRtA5h2GLevaMSrFIrjum0BtjsVkxWczohbMeSkwFmJwv1HGQZ6DTm/GE4vjDKZKxAKmoD7tFt2w7/ot6v2Lsx8znQyrnWbKP9ynXO7TMVkYGEza9Ts3fKwL8SpLaans4h5lYozMtDqfo3bFFLJUi6jPid8CoVaVfzZMr1jgvNBjMwOByoBf7ZiihEYBmKsDNct/Iigaz1aXKI4ciEVbSMaIRP1YDasOmX34EWXTMuN+isH9E/uCUmrygpjWgFS3TTQZ1b4l5VtQGUai2C2zFQo8/mlTBcDTiIxawYNPLTHoVevUKJ4c5zk9K4HWD14NhNsM0HrMQzZrEhWAmLgegLAyYLQ612VRyJc3qxioelwWnEX5UnPRbxwfXKYafm6HZGCY9Bp06F7kc5XoX2RJH60oRC7lZC9uwqhGxv4/nOoKwzI4zF/nRYY/xoE2zM6DRlpgoCjpRcSDC6e0u4+4ASVkwUkQXQwtasw2Hw4XfI7rRufF5nDiEHrtmAsqQRqFKLV9lrDcwNptVVTrdeKAevP2+pNbWy1oDM1GjbrVjtzsI+HwEQgHcTptKtjIJ4sAvPkvbBRdADTv3utSrbRrNHphNaG1mlMGAWafLSBKNaxTVSS2MVlWsyCVuXS43fr9H/bGaxCE3Req2aOTLdFpdJKNZtV8/HaMV/IXekGFXUjvcTbTiVLRgtdhxiPbRwQCBgF9tgWs3X4kE/YqjUhsZTSWVNNmqN6kW6wynMxUczAWy6HdZ9Pv0xzJDUfKmM6IYbFisot2wE5/XSyDow+N2YNYr6DUTOpUq7WKZ/hz6Gj3zxRydqLSYiDbBfYaDEWO0TLQG9CYrZosdr9dHMBjE43bishmxmpbiTL/WwleIB81nEmOpT71YpVFpMjGakG1W1SFqpT7yUGIwEL0M5sh6MwtR3mlz4Ha68Pt9akdE0WbbYlzqYIi+EN1uh468oDsVVRJz9IsZcn/AqNNDmsyQFhpmOiMGsx2LzYnf71fXjMcpulCKdtVCGvjXbBdrZspiPqHbaFLLl+gNx4xMZhVM6SYj9IJz0BswEFEttMg6EzqTFbvVgdvtJhgK4Pe4sVt1mA0L5EEHqdem1ZNo9EZqtEAvUlqv981QBdXSXMPCYEFjsqlrz+/1LbuWuh04HRa1PPEnqtw/WPsiYibIgkNaxQqtco2BRstQb1LJlHplzFS0xhbzLIlW1XqmOhMmi13dX2KsgkGxt6w4BI9GI0i2XaR+l1q9S73RRWsxozUbUaQh005HVXUU3URldd/YliJfLmGzaFntwR9wq+BZgIOfZNJ+4z7kOoLwMxMkbgxTIX8/oFFv0OlLKEYPGmsAj9NC0G3C+CMdm9/4NP8vmXcNEK5Y3kLwZyZPmMojRrLomCdY+sLpKMzlCcN2R20SJG7f47kGndmO3ubE6XSooXfR8lU9KERTpMVUBRzD3pBBT1q2uDWZWMgjFkMR7uzT6Y+RxjNmBuE4bNhVZ+3CJZrN2EyYjOKgf1uf+eVNXCgMCkKWLI/Vg3E0lhHXX51eg9wTVQYdhpJQpVOQNXo0FidmmwOPy4nX5cBuWTpFnXZJ2JRHEsPegPFYRjEaUUQ5otRnPhJOY0CvP2KkCEdlQm+14XB5cDmceBwW1Xa16uAdWt+qfI65SB/ISKMxg76klkJqTAaV6yF32ky6XQai9bA8U4GU1uzAJt7lcqogymExqOOuEVr/c8ENGSD1+0w1/w97b/4jyZHld34iwj3u+74zs7JuXs2+1JqZHWkEAbOABAiY3+fPEzSABAx2f9FKLa121OrmNEWySRaLdeV9RMadGXeEu0fE4llkFavIIovFKbKYSQsgwCMzzZ9/3zOzrz17hwfHY6r/JzUB7LE0HBowHM2Y4cGRdsnhGOFIjEQkTEIImQT2STrht1jpVcrlUq5pxN0/ZjyaMjdNll4vi/EIZyiluEerzddeMveGFKGMxWLERfZwgEjQq+xFovXVXf94iCWttF1ubNyKkLklzqM/ULJPrDmTpRtMP75InLCQpKgQjgB+qbRoeL6R1HyxUojbx2E6GTPsD9SpfiFyu2A57oPEefTH9AZTbJehcPeFwsTiCWLRMPGQX+GuqkRKG20JtJ1OlH1NZKzFHA+2CsCV66dRb8jkfN6I/sxQlFg0SjoeIRL04/e6X9Dm+bHkqwJRUnl0MhgwHo6x3YayUewZSK+OwZB+b6TmgZCDuTdAKBIjKnMrEiIZlucZeFRGiMQATbBmM8ZTW5XVljkj2RLWcMike8Z4PGM0X+C4DNz+KL6wzJsYyWhY2ctq3lyU9kzP7hWaIDyPIKxcomLT49GY6cxh4fHj9obw+7yEAmI7F1Pf34UpaIKwcnavvAjzuQpgm8+lvfAqpVDi7yUo0ZrOsGcWzhL1dRlePKYXr9dHwO/FZ64WitUJSPK359gzR7mF1WnYLdcIC0US5rbNzHKw5kuWbg94TEyvD79vtXgJQ5VN9ptOsF8o+zz1cbGS3XbmOM5CZeLJAHNLej1M1f+XlskL3Oeyy/N8K7es4VENkVbPE4+EyG2p/P+lrKQucS/PwLHVBibufsFgKWRD2ut6/fh8K1IjOLyY2Hyx4CtM1EI9x7JtlcrpWq3ezKdSlne2CsybL1bPM7wKq4BfnmeqjUWVBFY6XCi8HctiISGZ7lVQqcgtJMSS2AXbYS5bstuj6hmYCnNTfU25EnkhKXtKdilwtZivnmk7LEXPHg8LRzwWU2zbUc9zRM8eE5dh4pPn+Vb2Inp+fNqXcRzbZi42qBICXbiF3Mwd9T6W3H3LRiW38x4Dw+vD9K5kFx2ubO/bLlyr2BWRWelZ6lMozIXzSG0IS12LWNZKlqVbahB48frleV5FRsRmlI2dE1QhqdI7QYp4CeYSVLqaN9YKn8USZ+lSGHhMv+qrEJSrH6mr8ZKyLxZCSgRzm4W01BbZ55KOaSl7n6kCS3PmLg9Lj6FwWtmnocikR+aWMhkhM46a91LvQv5GVLiaNzN1BShzQN5rLrUYDJ+yGdGf3ye251G29+3m6XdZnr/fv9EE4Tn4qrTm+Wpey1oha6DbUNeahjTYM0Tf33aefb/6+yFG1wTh26L8VP2BL/7kRSf85w0uBvhFyuI/baxvJ/zj9MJnf/uLAkTfbpRzIvU82VWe+vfxeZVYPVWH4WlRv0fZn9R9+Kc+72ts73EBqVeP/CvE6oeW/ZXN0y/Scr88by7L/qAJwqufOZdtRE0QLptG9ftoBDQCGoFvgYAmCN8CpJ/4r2iC8BM3AP36GgGNwE8TAU0Qfpp6f5m31gThZdDSv6sR0AhoBC4JApogXBJFfo+voQnC9wiuHlojoBHQCPxYEdAE4ceqmR+PXJog/Hh0oSXRCGgENAI/GAKaIPxgUF/YB2mCcGFVpwXXCGgENALfHQFNEL47dj+Vv9QE4aeiaf2eGgGNgEbgKQQ0QdDm8CIENEF4EUL65xoBjYBG4BIioAnCJVTqK34lTRBeMaB6OI2ARkAjcBEQ0AThImjp9cqoCcLrxV8/XSOgEdAIvBYENEF4LbBfqIdqgnCh1KWF1QhoBDQCrwYBTRBeDY6XeRRNEC6zdvW7aQQ0AhqBr0FAEwRtGi9CQBOEFyGkf64R0AhoBC4hApogXEKlvuJX0gThFQOqh9MIaAQ0AhcBAU0QLoKWXq+MmiC8Xvz10zUCGgGNwGtBQBOE1wL7hXroKyMI/X6fTCbDL37xC/7Nv/k3/PznP8ftdl8oMLSwGgGNgEbgp4KArNl//OMfef/99ykUChSLRSqVivpGo9GfCgz6PZ+DwHK5VP93Op3y29/+lv/0n/4TR0dHuFwubt++zd/+7d/y13/913g8nif7vGt5/leLxYLhcEi9Xufv//7v+bu/+zu63S7JZFL98V/91V+pf8pg+qMR0AhoBDQCPz4E5HT48ccf88knn5DL5dQB7zFRCAaDPz6BtUQ/OAKz2Yw//OEP/Of//J9pNpsYhsGbb7758gRB/jgSibC5ucmvf/1rrl69qgnCD65O/UCNgEZAI/DtEJhMJty7d48HDx6QSqXUV0iCfAOBwLcbRP/WpUbAsiw++ugjfve73yFXUj6fj7fffvvlCMJ/+A//QXkT/H4/pVKJN954g2q1qgnCpTYd/XIaAY3ARUZA3Me7u7vs7e0Ri8WIx+MkEgn1lbVcf366CDy+YrBtm/v37yvgtLeRAAAgAElEQVSSIIQyFArxs5/97OUJwsnJCV6vV7mobt26pYiCvmL46RqYfnONgEbgx42AnA739/c5ODhQBEHiDoQkyFfWcv3RCDiOw8OHD9U1lBDKcDjMu++++3IEQWIQOp2OMiwhB3/5l3+p/qkJgjYwjYBGQCPw40RgNBpx584d9X18tZDP59UhT8cg/Dh19kNLJTEI7733Hv/1v/5X2u02pmny1ltvvTxBGAwGiHFJ/MG/+3f/jl/96lc6i+GH1qZ+nkZAI6AR+JYISBbD73//e7UBiMdXvnI1vL6+rrMYviWGl/nX5JpBrhX+y3/5L/z7f//vOTw8RBIUvlMWg2Q1CPP8zW9+w9/8zd8ooqDTHC+z+eh30whoBC4yAroOwkXW3g8j+yurg6AJwg+jMP0UjYBGQCPwKhDQBOFVoHi5x9AE4XLrV7+dRkAjoBF4LgKaIGjDeBECmiC8CCH9c42ARkAjcAkR0AThEir1Fb+SJgivGFA9nEZAI6ARuAgIaIJwEbT0emXUBOH14q+frhHQCGgEXgsCmiC8Ftgv1EM1QbhQ6tLCagQ0AhqBV4OAJgivBsfLPIomCJdZu/rdNAIaAY3A1yCgCYI2jRchoAnCixDSP9cIaAQ0ApcQAU0QLqFSX/EraYLwigHVw2kENAIagYuAgCYIF0FLr1dGTRBeL/766RoBjYBG4LUgoAnCa4H9Qj1UE4QLpS4trEZAI6AReDUIaILwanC8zKNognCZtavfTSOgEdAIfA0CmiBo03gRApogvAgh/XONgEZAI3AJEdAE4RIq9RW/kiYIrxhQPZxGQCOgEbgICGiCcBG09Hpl1ATh9eKvn64R0AhoBF4LApogvBbYL9RDNUG4UOrSwmoENAIagVeDgCYIrwbHyzyKJgiXWbv63TQCGgGNwNcgoAnCU8AslyyXCxaLBYv5nPliwXIJS1zgcuFyu/G43bg8bjzy3/L9CViWJgg/ASXrV9QIaAQ0Al9GQBOEc0SWSxYLBxybmTVmPBoxndrM5jBfenAbXtxeP4GAj2DQh9fwYAhhEO5wyc1KE4RLrmD9ehoBjYBG4HkIaIIA4iZYLpfMZyOc6YBB/4zO6Sm9wZiJ7caem7h9AYxgiGg8SjwZIxzwEjJN/B63OBcuNUnQBEGvHRoBjYBG4CeIgCYIsFw4LJcO4+4Jg+YB9XqDnXqb1ukYyzaYL00whSAESeQLpKsV8sk4hViIWMCL6XYpT8Jl/WiCcFk1q99LI6AR0Ah8AwKaIMDCmbCcT+kePqKx9SnbewfcPT7lqDOFuYkLk4XHBJ+PZHWTzPVbXCkXuFlMU4gF8RsuRRIu60cThMuqWf1eGgGNgEZAE4RvtIH55JTF5JTDnS227t+l1h3QXoSYugLEvQZB1xJn0mM26TPy5xiEKlSqVX52vUw1lyDmcxM0PZf2mkETBL2EaAQ0AhqBnyAC2oMATu8Y+7TGg61dPr63w9kiSGT9DZKFMutRk4wxxao/4Oz4AXdaBn9sRcmU1/jVz29yfS1LJmQSCxiKIFxGP4ImCN+wMCzmFgt7yGw6pjfoMxgOmUwXTGcLQAJUPPgDIQKhGOFwiFAooCJdDTc87XVaLufqrsuajZiMe4xHQ/qjKaOxjeNInIwL0/Tj9YUIRSJEojGCAR8+04Upg730Z8nCmTJ3JoxGffqDPqPxlMlkju3IYG7cbhNfIEQwGCUcDhKOhvGaEp37tOyr1J/l3GE26TGd9BmMRvSGU2azOY6zBAwMw48/ECQcixGOxvB7PQS8hsJAgnhe5qOwmlvY1pjhsMdo2Gc4thlPHOaLFVaG6cfvDxMMh4lEIwRDAbyGG/NpqCRHiSWOPcGe9hmPB5wNxgzHE6zZEmeOwsAwfATDEcLROMFQkKDPwOddnQheWna5z1zYTCcDxqMzRqMxg9GMyWzOfC4oePB6g/j8IcJReWaUoN/Ea7jwfNlNuVxiz/rYswGD0ZDeYMR4YivZ5wsXbreB1+snGIkRkm/QSyjgxfC4n7G9b4W9CtSaM3dmTMcrPfeHE2WjlrVUsgtWXm+AQDCs9BwKh5SOveZXn7dwVvNmOh3SHw7oD8fK9ixb0sjE9mTehAmFV+OI/oIBr7rLfWlvrdjncoFtjbAmPYaC1XDMaDzDtl0sFuDx+DDNAKGozK04gaCfgNej5taXg8zmzpiFNWE4HjAQ2xtN1Zy37SUu12re+INhgsHIas5HQspevpPs30o5398vaYIATr+O02uye9zg3l6TqRkmtX6TTKFIKeQh6R5j1+/SO/yc3+/b/D/bJslilX/+y1vcWM+Tj5jEA3IVoQmCaynhnqByRYfDIfV6nb//+7/n7/7u79R/FwoFfvOb3/A3f/M3/PrXv8bt/i6b2/c3IV5u5CXOrIc1qHHaOWJrf4+9w0NaHZvumcNiYeIx/CRSRQqVq5TKZSrlDJl0DL/pwuv54mmL+YyFM6Z/ekz75BG140O2j7vUGgPGE1mADULhDLFEgfLaOuubm2RzCRJhk7DP8/Ib1XKBM2ljjdscHe+yt7fFcaNDozWlPxRy48XrDZPMVsgV1qhUy1Q3isRCfoJeFElQH8kLntvM7RHd1jbdxja7RydsH7bonk4Zj8UcgoTDaRLpAtWr16he2SATD5KJ+jAMyRd+uYmjiM2sx7Df5OjoIUeHOxw2Rpw0RswssT3BKk0yU6FQqrK2uU6hmCXqdxPyPrWpLxewmDMZNul3d6nX99jaO2G/1qLXnzMeu/B6IwQCcfKVdaqbNyiWcmQTIRIRr9qoPC9jvpIqJZuLPabd3KNRe8DRcZ3d2hmt7hjLcrHETzSWJ5UqUdoQPW+QToaJBz34n2E3q+Cp0ekeg9N99o8O2Nqv0WgNODtzmFlCDkJEomkKa5uU1zcp5JIUslECPiFKrpfaaOVZi/lUkcBu4xHt+hY7hx22jzoMhg7TqQvDiBCNZskWKqxd3aRUKZOM+UmGTdxPP2+5mjez4RGnbZk3++wd1Wi1Z5z2VvNGCGUiXaJYvabGKRXTZDMxfB6emTcvnq9LlgshlDbDs2PO2tsc1w7Z2j/hsC4EbYllefD740SiGYprV1i7epV8LkUm7ifsN5WOvyCCS6xRk9mwwXFtj92DHY7rMm9mDEdi6yZeX5h0bu183pSorBeJhnwEzafmzYsF/1H8hiYIsBj3mI97tAcT6r0pc8NPPJ0mGo0SNl34FxMWnYeMTh7yP3cm/F/3FySyJf7s3RvcXM+Ri3hJnBOEH4VSX7EQ2oPwFUCXzK0ZjjVl0G/Sbe3TbB6wf3LCUb1Jr+cw6MtJSE7bXqKxDCm1WVUob1TJF7PEwz6iIQP3ci47GtNhl2G/Q7t1wHF9h5P6CbXmkPbphNl0ydzxEAzEiEaSZIvrFCqbFEp5CoU4yUQQn0cCYV6seVks546NM5tw1j2m1znk8OSQg5NDGu0+p6eWWjRdSw+GGSAZz5FMFylU1ylvbJBOR8nEA2qTcbNgac8YD04Z9TvUG9vU6ruKaNQaPXp9i9kUXEsvwUCUWCxDrrJJsXKFQilFsZgi7DcImFJg5EWyL1VxEiEj01GPfveETqfG4ckeR/VDWu0pne4My5KN00PQHyMez5DOlSmtb5Ivl8ikw6QTAbXBGK4l9mTIbNSn263RbOxw3DjkqN6h3uoxHC6YTcAwAoR8YZKZErnyVQrlMsVKhmwmTsjrVji88GQgxEDJbjHqtRn2WjSa+xzVdjhptjlpjzg7m+HYbliahEMJYvEMudIGpbVNchLslIsSDfvwupa4Fg72ZMxsMqTV3KLZ3OXopM5Bo033dKxsT8YyDT+hYIx0fo1sYZ1StUC5WiQe9RHxn5/sXwj7guVigTUdMR506Z02qNW3OBE9NwfUWwNGoznWzIXp8RMOJkil8uSqVylUqhQKKXK5GAHByuNSHoj5dLKaN+096s1DNW9qjTZnZzaDgTzPg+HxEotlSWer5MtVSutlCsUcMXHXBk1Fbl7oSRDPgcytUZ/J8Ix2+4BGXfRc47DRpdUeMhmDY3nw+UKEg1EyhTXy5U0K5SLFUopkIkzwnMwvbJnzM047B5y2DzlqyLw5ptnqcXpqKzLsEg+QGSQez5OWebO2RvnKBulUlFTUp7xPciZ6obm/SC8/0M81QYCFPWVpTRhbCwbiJfIYBIN+/Ob5+j0bMmts06/v8H7N5r8feUjnCvz6zU1ulDKkQiZR/+qK4TJ+NEF4Wqty6lwumPQ6DNsNjus1HhwcUj89A18Ql9eP3+XBK67GxRzX0mExs3BGDp5AjED+ColChUopQTEbwVhMMewpjaM9jnceUTs95WhkMV5AOBAkaPoQR4N7scRlT8AeM58HsJ040XyJyhvXyK/lSPrcxL3fZH5S8mvJwraYDk4ZnnXY2d9le3eX4RymhpzyTALiUseFe+ngmjssplOW9hxXKI8Zq5KvFFi/kicV9+Fbynud0djd5uRwl/3ekOPhBI/pJeAP4fN4MBYiu43LHrO0HWazEPNllPyNTYq3rpFNBMmGDQLfeE2ykt2ZjrHGfdqNE3Z3xOPRoLdwMXB5CHm8BAzvOVYLsGcsZxMWCy9zI0sgnmft5hqV6yVi5pKwe05fiMXBDkfNBrudMzpTW12D+Lw+xCHoEdfzfIZrMcWauJgOTQLxHNlbN8jJhhXzkY351GL/TZuVXL/MZxNFRo73dzjcfUh9OKEp1wpug5A3gM80lY49izlYY5aWhbOMMHclyaytUX3jCtlcnISxwGuPOK3tc1o74FGzxW67gyN68wv5MfEu3RjLBa6FuPFtZoMljmUQX7tC8up1CrkExVSIaMDAeMFGu7oKmNHvNKntbVE7PuJwOOF4NCUcDBL2BzFcboWVe27htkfM7SWWHcXjz1C4uUnxxgaZsEHG78Lqtxm06hzXjnl4fMzJWQ+3L6iKzHhdHnwy1nKOa2Ezn9nYQwePP064vEm8tEalEKOUi+B1u/DKyf7rTF6uRIQMWxPatX0ae9scdDrsdQdMlhAIhPCbPoylYL7A7UxwOTOsqcFsGiRaKJO/dZ1cOUM+bBL1Lpj22kzOOjza22P7YJ+RqMr04pGrOLcHLy5cgrtjMZ+K/TkYsSJGYo1CucDGRpZkPIjfA+YF2S00QVh56lzzOdZiiT1fKneS4RFdz1VtBKt/Rntvm8b+HrtOgIekKRQL/OxqhfVsnIjXTch8yl18yViCJghPFLqUnBeY25yeHNHa32brsMad4y7tKeQqa+RLJTIhP6mgbLQztdgP2k06B8eMLBMnsUEgW+XKRpa1cgJzdoZncsrW/Ufcu3uf+sjhzBfHG0+xWcpSSScISJrM0sYaNJidHtNqWNTrYCZLlH75FoWrFfI+SPnknlj2UnXLoz5yJyoGre76l3Oc2Yh+85hO7YjPdo75dPsIM5YhWqiQSSXJR4PE/B7c8xlzudtuHNFvteg7cUaePLn1Ctdvr5NO+Ag4PazTBvfvfM7Wg23q+Ol4QhRyeTbLRVKRIEHPEo8zxBnWGHY71A4smq0lqdu3yb77FqVkiErEo7wIIvdj0aVMqSz/LreUK10qb8Ws32XUbXK4f8Cn97Y5aPXwpIt4MwWqyRilRISAAW6FVZth85DT7oR2P4xjZtj4+XWuvL1J0rBJMlaEbPuzu+y1ztifurH8ETaqFcr5LDGfh7BnyXJ2pq5iWoenHG33mHvjxN98i+zVK1SSfsoJv5LP9QzmAvZTd9dSfW3QYXTa4v79B3z+2X3O3EEmoQyxdJorhQy5WFB5BzzzKdOzGqPOCa0WNLsmUXF7//JNdaLNGlO84y4H9+9x8PABj/o2+8MFsUyWarVKNh4l4Tfwu22WVp9x75T6TpP2cQ+zvIn/6htUCinW8xHiQROPwvbcXh6XhlWySwyDi+VshD0+o3l8yP3P7rN9UKPlDnPmjXCtUmSzmCPqNwkIVtMzrP4xvfYptaMFIytE5q03KLx9k1LEoBxYMKgfUt/bYvvwhM9OerRnUFyrkisUyYYDq3mznLGU67ZGk9beMWPbYJm9hj+/xmY1xUYlobASPuxyndvME9nF1iU+ZK7ItDXusffgIQ/u3uVoYHFke/HFk1ytVChn0oTMJX6XzXzcYjZo0jgcUtsfY6ZKpH72Nvm1ItWYQdK06dUOOKvt8+neCZ/tNzGiSRLFKulkQs2bqHjVFjOcyWre9BoNhq40I7NEca3M1VsV8umoslH/BXEhaILwzOnw/FbVQYizNRkyPm1x1qhz8GiXg91jzkIZ+tkrVKoV3rlSpJqOKQ9U4MUu0gtLGzRBeKw68R7YI5azvtqktu5vc3Q2obsMsgzEWKvkqRTkrtsgLEFJskjJvW2/z7DVYWK7sAIp3JE4mUyUVMyP093Hae3w2e4ZH24NcPxhctUCuUKGUjxCMhzE6xHH5Zz5pI89PqV/NqXXmbMMRQmvlQinY4TnM4JLC8tZYM9XNcKFGHjkVO2VAD3wuSx1l3ayv83xwT77PRc7fQ/ZQo6NtRLZZFQF08hpXjwI4lqb9bpMRH7by5gQkVSKbClLyJzi6e1xdnLMBw+6fLY3IFbMEivmKKaTlJIJogHv6pS3WMUMzIYDTptT+mcO/kIBf7VEzOci7rGVt2VqL3CEoStm48bj9WGYXnV94nM7jDs1Osdb7NW6fHbi0LZ8rG+UqK4VSYcDJEO+81PlXC3Ss36HcX9Kb2jgeIIk14okKxnCswah8TGfbzV4/7M6p7YbfzpDPJuimk2TT8qk9uBzL0HFDAwZtAd0a31sTwBvqUQgnSThWxIzF1i2BNfNvyA3HgO34cc0DRU34HHGjNqC1T6f7A35aHdEOJ2mvFFUd925qMQYSADeUnlbZEOeDXsMTh16/SXeVJrYlQqxiEFs1sY+a/DRnX0+vV/DFU3giico5DLK9lLhgLr6MF0LcCbMxkP69VMG3SHLRAZXpqiuKlJBN163BO5JcOS57LLJeiRuxovP58XvNViM2lidXQ6P6nz4qMdexyFVyZMq5ygl4hSElJkGXveSpT3GmZwx7g/ptS0mtkGgXCJULpIwpqSWA473D3lwf4djsWFPCFcozkY5TymXUrYnJy03QsItJv0ew2abqVSrC6dxRRJk4j6SUS9z22ZhSbzCgoU61LnBY6zsxSd2sMA1rGGfHvPJVpM/ft7C8YeI5LNkM2kq2RTZmHgi5DQ/Z2kNsKcDep0hZ/UxhOJ4qxWiyShp08JvDzjafcTRzi6HY4PjqZ9UNsPaWoFcIkrcbxIUL9jSVvNmetZl3OsxXgYYEyGWlqvBNNFIAJ8bvNqDcAE3xFVQ81yI56hLv1PneOsBB1vb7OzV2Kt1GMfWsAq3uHb9On/2xlWultIkAgaR7xAndlEA0gThXFPismTaVYvmw609PrqzQ9cyMXObxPJlrpeSrOdi+A232tRdyHXEnPl0ij0aqc176vKyEBd8wMRnwvjwU0YHH/PhscnvayFiuSK/eXedG2tpoj4vIa8HQ22YS5bi7rWmTCczpoMZjrDScIiF+CsHZyxGfYZTh9FMFvxV8xDTH8YXSRDyG8SNqZJ979E9dnd2aXlKNMwq19fFHZYjK+5P041Xnd6XKjNhPhtjT6dM7SVTRwqGBfBHw7gnbeYnn1A/POAfdk0+bHh5950rvP3mGsV4lFTIR8BcRW4LBiK73N9O+xNmwxnzcIB5JIjbGmNMe0zGU3ojh4mlQvlxewzMUBx/KErU7yLmnTNo7FDf/pS91oy74zwjf5HfvFHi5zcLhE0PQUXK5LNQzxPZranFdDzHXroxY1GMiB/v6UPM9ue8/2jEf7tnMw8mufHGFTY3ihRjIdIRcdULKRNvjCOXkFjDMdOzEdbSxTwcZOE1MKwhHmvA2dCiN7KZSwqF5CH4gphByTIJEg8Z+BYj+sd3aR/c58NmiPeaMa5fKfPnP19jPR8n6l2RspXPZM7cFu/NlOlYZLdZ+v2443FMxvj7e/TrR/z3T7r84X6P9Rub6ruWS1BJx9T9vLjf3WIvElhoWVgDibWYYHn9WIEwHmZ4nRGWyryZqcwH2WQVKfOF8AbCRCMhYpEQ9A+ZHX/M7lGH3x0GOJzF+NW7G/zinSpxn4+4X0jgykOlnufMlL3MBlOVkbCMRFlGwgSsDqFpk/uPjvjfdw44dbyEildIFctcLSSoZoRoCCkTFFbXeBKrYA+HWM6SqeHFkawM9xSTGf3+hMFgooiZZCEIOXB7AypjKBqNEfIuMc8eYDce8N6uzX975CJVLPDWW1fYKGfIRQLEJZtIZdGcYyWnQtFzb4xteFlEo3i8bsJOn8WgxcP793n44BH94DrD0AbrlSxvrGfIy7xRGTLnss8ddR1mTydM5y6mczdGIEBAZTOY6npBzekL8NEehKeVJIa2yhya9ht0a7s8+NNHPPz8c7aPG+y1hkzCVZzMTW7eepM///nb3N4oU4z7SIXPsxguCDF8GdPUBOExWrIAjlrY/ToPdg/56N4hI0LEKrfIltbYyIYpp4LnpTVXrnHFOB1x99qq+5eFh4VbArrklG5xtvsBZ9t/5E4vyQf9CulCmX/5doFr5Th+w4NXuoOp64HzTmKyadsOzkzGkztsh8l0wOnxrro2qJ1OafYs5CAuMQXBZJ548SrZVIxqxCYw77K3dY+9vV1G4ZsM429wrZLh7WqcVMSL6XFJcuaKIIjHxLGZO4462dtyz2waeLxeFr0jJvvvUzs84L1Ohk8HGf75W1V+catMNianWAOfCv9eZTrId+k42CK3xGR4wPEsGXeOGdV3qDe77LcmdAb2apP1Bghn14nlq1SSAaoJN5P2Do1Hf+JoALuum9jxDf7sWoZfXE0onET2VbS5kBuJXD/HSjYRIUx+Hy7DxbLxKYvjD/ngyMX/dxjAEy3w8zc3uLaWJR3yEQ1I5Ppqk1V12OWUKjEBUwtnscAx3NjOhEl7n1H7gO3agL3GUG2IIoA3nCKQXiOTySpXftpnMTz6mNODz/lsVOSj6Qa3Nwv8izfzVNIhfKLn81QO0bM0hVmI7JaDY81ZGOKT9uOyTnG1H9KuHfAPWzb/uDfn9q1Nbt3cpJSJqKptIbkekhgSweAJybOYWzaOx4Pt9mAPGtinBzSaLbaPz2h0Ryo9FJeJN5ollMxTKhVYL2XxjQ9wDt/nsNnjj6dFGp4Cf/FWhX/+ZpGA4VFfwUqpWQUFCkkQYmkrm1l6fSwkmGvcwOgfc2/3hP/9oM7IFSa7dlMFIK5nQhTiAeUpcqurApFcbE9iCCyc+ULJPZ/bOIMadr/GzlGH3eMuw7F4zZZgBjEluDMtVy1r5OJ+gmd3ofkZHzQD/M9aXAWY/rO311jLJ0kETWWjj1NVV2nGcxaWjT2xWHg8zL0+wMGcdpn0Goog3H+0xTx1m0XmDTYKaW6Wo6TDvmfK6cpYgoF87cUSR+aNYWL4TDyeFYm9IDcMaILw5SsGieOaYk37jM5aNI72aRwfcNysUWvWOe5a1HpLEqVbXH37L7hx7Tq3SxGq6aCKW7iMJZc1QXjiQXBwBnXsXo0HezU+3qoxM2PkNt6mIAFUST+FqDDFxxvVarNabTKy6Kn/Wn0kPdAa09r6R9oPf88Dq8xni9sUimX+5a0UV3Ph8xoBT7UMlXFkBBlLBRxOcayBiujfu/8Jew/vslUfs9+aYqlFyUescIXMtV8qN+7tzIKk54z9nXscHBxgp99hnv8V1/NxbhWDxANyd/us7Cqe4Tw2YCX7yjMx7ezS3/odtaNDPpxc4f5ynb+4WeTX13MkQl58xqqT2ZPPU7KriH5ngjOf0t7/nPrWx2ztHXPnYECtO1N/YgYixNfeJrvxBjfLcd4oerG7O9S3PqQ5NWmEfwnpG/xmPcK71ZBacFdxC08AXsViLJYsVj1ZVzmJUoPg6EMmu+/xcSfAH07zBJJFfnWzyvVymqh/5Yn4IvVy9bersSSlU9zakklxSmfvExo7d/hop8udna6KcpY/DCRLhMtvqnTUdzYyVKJzJscfqTzpR1znnuct3lzP8i+uJyglJMjxaczPn3XeIEbIySrs3c1c0uvqd2kdH/C/jg0+aPh459Ymb13foJgMkQoZ6iT7dEreSnZJ51wylw0cGDYe0Tu4w9buHh8+bLBb66ngq6XHp4hNrLDJjWtXePvmBpGpEITfU++O+cS+wWnwCv/iZpY/u5FRxGDV1vZpNX9BqlRMiXtFVeb9Y+an+9zfb/HhToeZN0H1yhuUy1WKCS9ZSYV8Zqzz2AJpqXs+b+bWiFH9HoOjz/nwYY2PH9To9qeMhZj5ovjjBbLldW7fls07QbT3MWbrEz4dpHlvUGW9XOY3t0qsZaOra5hzr835hFzpWfAWPbtcSnYVwT5qMuyecO/hQx7tbGMUf4G3+DPWc0mu5gIkA7LlP2fePD3nH7f/vWAtgDVBeGo+ro4eaj0Ur6hkJdnndWv63X3a9T0+++wzPvzwU6zQNYI3/082brytDjG3y7FV9pTyLF+ujyYITxOEYQP77Ij7ezX+9KjGzIiTu/IOpfIa1aSPQkximb/0ebLJPk0SzgnCo/foPPg996wKnzq3KJbL/NXtDNcL4dWm95yxVpv2yo3uOFPGw1MaR7u0agcrD8KZjbN0KTd9MFkgXhAPQoRKeIbP7rC7/Tn7+wc46Xdw8r/keiHJG0IQgs8pB6o29i86mi3P+54LQRhs/Y7jo0M+GG3w+Xydv7xd4p/dzCuCIJHasuA/8zk/jcsC7EiU+sJi0DzkrC7pkR1FbDoDS/2JIR6E3DrRbJVKyk8l5mLUesTJww84mXiph37JMn2DP9uI8ov10PNTDc832cfd2GSTldO5dfQBk733+FMryP/qZAikyvz69ho3K0IQzsuifhl42TjOI+OdhaT1DRg09+g19tk+GbBXHzKTbA+XCzOcJpCprjwI2TAJ75ThwQd09vFe2M8AACAASURBVD/n4eIad91v8daVHH91M0k54fsG2SUTYclC3Pdygh41sRorgvAPBwbv103evX1VkYRiIkgqfE4Qnjn0nC9oiwXz1blcBUGO2wec1BvKg1DvjnDkjkEKHSkPQoFKIcdaKYcx3GG293uOOyP+ZN2g69/gr97I8ee3soocPLed7WM9C4l1uxRBW5wThHv7Tf73dgfLjFPdfJNKZY1iwkc2Yqjxvmwvj3UndufYM2anB0xOD9k+7LBz3GUwttXVHV7xICSJp7KUq1XyMR++9p9Y1v/Ex70U/6tfYa1c5S/eLD8hCHKN9JXpdU4Qli5YuD0s7AnLUYthp6YIwoOtbcziz/GW3mUtn+JGLkDi6+bN+bxXF0/n8+aFKbE/sr1DEwRwZmNV52XiuJg4XuUNCgcksFqIoRCFKbNhm/5ZjYcf/4FP//Df6XgqjEr/Wh0e//xGjreqSXyGJgiXulCSuE/nwyb2oMb97SM+vH/IxBMlvfEOheoaV1LB5y/4sujIqVlahspe+9gN7kzpbr1P99EfuDPM8cH0KsVShX/9Tp4b5Zi6p/xKcowsvuI+Fxem3Id53MzFPTqVQMCp2qQsOQ0+DlKUVC65E3c5eJ0e016drYd32dndY5Z4i2nmZ1wvp3inEiEZ+lK1ryfERmo6SHW+1WnWZRhY3X3GO79XHoQ/nJa4My7xl+9U+c2bJVJhSTl0Y3xlwV9dMyzEdex2rWIoJB3Rkmp8FhPr2SBFIQmGV3L/LXzLMZ2jBxze/4DDgYcD79vMU9f4i2tJfnU1pnB6Bqtz2R+f+lXso2GwYMG89iflNn+/ZvA/ajH8iRL/7J0r3FjPkvB7iCgPwpc2j8eYS7qlWyIFliCnS1uqIK5iJ55kYEign9ePaRj4PQuW01M6Ox/Q2PmMz2br/Mm5wdtXi/zrtyRLJaD0/IzL+bHsqnaCw1yIjWEyn3RYND+nfXzA/7u95L0D+Nlb13nnjauUUmGyEfOrNd/FXqQU52KOgwtHvBELG5wptmUzmTpYzhdBiqqvveHDr4IUTazWA/rbv2e3MeD9wTpNs8K/+lmZ/+OtorpLl6uRZ5A697TI9Y6yGXHVy8sN6rh6B3y+U+ePDxpMjBilq29Srq6zlvSTi3mVvTwz1lPzxnFJRM9SBS+qAMapzXRmMZ+Lh2gVP6Hc+KYXvz+AsRgzr33I6PBPvN+K8T9aWdYqFf78Z+tcyccJS12GL6fWPp5bIrtEg3g8LBYW7nFbdfK7e/8+Dx5u48q/g6vwM64UU9wuiufmOfPmnGg4MueXS1xuD25p/euW+iEvVxjsdXIGTRBg1m8wHTTpTj00Z0FMf4hySgLIvcq5J5Yp118S5Hpy9x/Y/+D/5tBOcxj+M8KFm/zmeoE3qklVDVVdg75OhX4Pz9YehCceBNmIuzijNo92drlzb5vuzMCdukIsW+ZaKc16PqlS9laLj7il5U5zzGzQV4F+M7ePpeEnGDTxe2F49AnD/T9xp+Hh/UaYaLrAu2+ucbWSIx70qxQydR8uQVvOlIW4tIZThv0ZC9OHO5HEK+VcPRD8hovNpTNlOZXI+LoKUtzb26blLtA2q1ypFnnzSoFcPERQYgckckuVT7awxiPsyYiJJezZgzcYJBAL45k1sY8/oXm8z3uHBndaPm7dusKt61UKqTjpSFDd8arA7qXD0pbyxRPGZ2PGQwtXNIorllCFYyJCJr6ukIDylExZ2CPaR4+ob33CXnvCw0meYSDPL25UePtaUeEU8hlq05I77Llcv0yGKqBzLIV8lm788Ti+aACj+xBP8y4f7Y/4h60Zi0CSK9c2WK8WKSZiZKISF+Bayb6wWDozJlLG+FSCFN0sIzE84bDKVJF3VCmkz5l44q6WWgSzYZfuwac09u7zSSfIR50oa+sVfvnmGuvZhMpgCHrFxS72IvfuEuA2ZjqyGA1tXIEAnmQSHxPM/i6DxiG/+7zD+9s9ShublDY2WMulqGQTxII+1T1OMiJEdkeCHXtDxv0xji+IE4oQ9PsI+b+4BvraBWuxYNLepn/wMbu1Fu/VfJxYUd6+fYW3bq6rjIlE0P/kOknsRapEzsYTRn0hqwtc0RieSBi/fUpw2uTR9iF/urfLqW3iy26QzFfZLIjscXW1I0GyUkuApaNsb9YfMLOWTM0AS/EqBX2Egqvgwud6Lx7P1dkQq/EZw9p93j+w+d3ukliuwM2bG1QLOXKSIRRaxQ4I7qqSqT1m0h8zOpvgGF6IxfF63QTnAxbDFo8e3GNr6yED/xrDUJVqqcDttRy5RFiVZX4cYCkpcPZ4wGw8Zuq4mc4NNW9CYle+VZDiRbmL1gRhyUS8Vt09DtpztlsmHn+MjY08xVxMrTky3yT13Zn1qX3+Hvsf/ZbGPEkj/isixWu8u5HhWiGuyIG+YrjMpZZls7JHLKwBhzsPeXTvMw46I2p2hGU4w61rN7ixsU464iMdMnFjq9K6w3aT7sEBZyOboTcNoRT5fJxsKsiis4PTesQnWzXef1DH9qfIbN6mUtngaiGtItOlLLOJw2zYZHJ2Quukz8nBiHkgTuT6JrFSnowXkt+UOyU9ANQC2OZk93MOdx/x6HTBg1MX5epVrt+4TTW/isiWOgguKYI0HaiaCb1Wg+7Iw6kUkMlmKWwUiHhnGJLmWNvjj5/v8+l2k3DpOvHSVa5Uylwv50lFAwRMKaAzUuVpR90Wtd0zGrUx3mqVwOYVMtEgueCqUNJzNyrlrnbUibfX3KdzcI+doxM+PhzRnPnYvPkWV67dppKOqHv4J3UQhh2GrWO6rR6N1pLJwk/q6hoZkd1uERkfcffBDn/89CFty8RIb5AqrnNzrcJGMa+aqwRNCVrr4Uy6tA9bHD9qMll68VQ3CBby5KMBstFVIavnLvhqo5tjS3+K+jbd4y0+2m7y/lZLXZ+Ur73JerXMRjapcJfcfsmjFx0Puw2aJyMaDQsjnSV+fZNE3EvCbjM/PeLDjz/j47sPcaIV5rEy62vr3Fxfp5CKkgiK50KIRp9J/5TG7jGtwzZ2LMciWyGVilFIhVU1xW/crJZLrP4Jk9Y2ewf7vP/5MTutKYm1m6TWbnC9lOVqIauw8hlLFrMe00GdXkvqXQzoDSGwtkZ4vUramJFxDznefcT9u3c47E5oEccVyXPr6lWurq+RifmV7MZSSNmYfqtJe+9QZYiMgzmW0bRalPPZmNqMJV3wa8mNxLj0jpl0DxQh+eOdHWa+NP7iJsXSGrekdHgupcqG+1ySddBhNmjRPOxS2+niBOJ4NzaIpmPkfQ6BeY+jrbscbt9je2CyNzIplK5w4/pNqoUs2aifmBQ3WNrMp336jSPO6nVOZz5O7QixrJS8zpGIBQmcF3n6Hg5zr3xITRAkkPoRo84D7j3q8/HnFo4/ydV3rrN2tUQx6icZkHohPSbDFnt3P+PeRx8y8mZwV39JsnKFm6U4lXQYU67kLkp06ktYkvYgPIl7W53KcGa0jrc53rnL7nGLR+0Z/XmASmmDYrGqsgGSIQOP21F9xEfdDqcndcYzD1a4iDeZZ62coliIYYwauIYN7j24zyef3ePUMlnE1oimSmzkUxSSUqbWheGS8rqyiDXpNqe0TuZ4pBTtW7fIbpTI+VykJej66z6Soin37+MzurVtWrUd7h60ubvfJpQokyttkk2lVRnlaEAi4W3lrZCNanDaZWAFGc4TpMtF1q+XSYXd+K02w/Yxn935lHsPHzHxFbACeQq5AuuFPAlFEJYYyzHOtM2od0bjYEyn6RC9do34GzcpJkIUw+Ia/xqCsIocU7KPzhrq3v/gYI9PHhxw3B0TzV8nltukmAqTT4bwG7JZO9ijM8andXpSp+LUi+OJUXxjk/LNKgn3mPiiz+6jz7l75yOOT6ecksQdyrJRLlPKZIgKaTGXuJw+tiWYndHYOcMxIoRu3CC+VqWSCFCI+Z804XnOjfaqeqU1YnJapy9Y3X/Ax/ceYHtTmKlNUpkCa1nJ75d6F0IQxOPQYtJr0206tNsuQqUy+bdvkpOMiOUYz6jBw7sfsnXvDnU7THMeJSN9LkoV0okYCalxYIjnZch02Ke936JT7+HJVjGq18jnklSzUijJUPn4X18Fcsl8Ir1GGpwc7PLp3btsHzWwghWccInNYlZF8ocD4o2QGiEDrHGLfrdH69hiNPMRu36N9M1N8kEXRa9F93ibw+3P2Ku12O4uGCxDVErrlIolUhE/sZBUd7RhPmHY7dI5rDOy3MwTVcx0kY1SkkoprgiC7MdfRxAUqZTCTYM2D+7f5c6dj2nNvAyMLOFEjiulkqrXEfS68BqSZXTGbNSlczygfjDEiGeJ3LpJppihFHYRc09oHz6iefyIe4dnPKgNCMXz5GXepFOko34iEuS7lIyRkaqyOui0GS6ijFxpMpIVcrVIOhVWnj4hNxfhownCkunZNuPTbe591uTDj04Z4SdzY41MJUMu7CMhenfE9k85OWpwsNPAiOeIb75NvlKmnAqRjXyxTlwEvb+MjJogPI2WNH5ZztVmJQv+yckJ+4cnNJs91fRFusPJscwlG54hgYLSZ0CuCaQjYJJotkIyJ4VhouRTIdzOEPdsQP1olwMp19k8pXVqMZ5KZziPtJlD/iFjeUy3Kr5jGFEMd4JkrkDxWpVcKU3chOg31m9dReFL6dlxv8XwtKECFff2DxgMHMZjKU8jsrtxSbqZ3JVJfwfDhykd+sJZQtEC+WKGciVNPOzBOx9jDzsc729RO9yl0ZnQ6kyw5xK5rnZqXFLZ0HRhSD0HKdq0jGKqwM4qxWtralNISyOibyq1rE7i0juhz3R4SqdxxN7eDifHTfqjJYORPEe+K9nluR7DwDSlu2AEry+t+mGUrhQprWeIeOaEmNFp7HNyuEX9pMVJc8hpf6oaPS2WbmnWIFl/GKaMJYQpgGsRIpLIkb+6Tq6UU82m0uf5zV+7yao+DDbOdCW7lFo+2Nui3Z3Q7TvMbMFZIjrFXlDyG6ZHde40jRheM0m2VKR0vUI6HSbqtjBmA9q1Hdonuxye9FTfi8l0ieO4VeS9yK1sTwpeeQw8ywCmK0yiXCGzvk4uHSWrGhF9i1LL9pS5JYWP6is9Hx3R6M5on0m2ifQV8LA817NHrop8HjweeZ50vkyT36xQuFJUkf5J75Jpr8FZ65CT2gkHhw2anb6aN3ORXeaN0uPK/lQnTZd0o0wRK6yRyhcoZsLk5TSmChx9U6llSZOU3gkjmse71Pa3OGmeUm+NGI2ldoLBUipGClaiYyHhhoGbEMYiSrxQoLC5RjafUPYZNmzGpw1GZ3X29o7Y3z9mMLQZz1zMH9vL+ZwR2aUD6Ko7ZI5QvEi+IPMmSSLqPy/O9DJL8Ov7XU0QwJ601Pdo+5idu0fU22f0mDFhgcclB0EDZftS98UMYki3x2yRonjFMimSIS9Rn/nSTelen9Zf7smaIDwHL1VAaNbnrHFMY3eL470D9vdbHElk9WLOUOLFzVV9/Eg8SyJTIVesUC5XKBUy6qSejPrx4KiGTaPuCX1ZOHf32Xu4y9FxU3UOO53MsCQkwPAQjKeIpPKkM2VyuTWKxTyVSopsOoJkWvm/xcXmqlnTBHsyoHO4Q+tgm/3tY3Z3T2idjejN56pWvUtkD4SIZ4qqo2O+UKEs9emzcXLpMJGgB8O1ysQYd2sMWsfsPdphf3uPWv2Mk86YoeNgSYZe0E8wliaWyJHJVshmq5QrOSrVjLp/D/uk0dSLQ3dko5V4AMk/lroPzcMDdraO2N+t0Z1YnEkOu6SnmQaBaIpYpkAqW6GQKyuvRqkQI5eLKJwkgt0atpn2mrSODjh8tMPh3hFHjZ6K6p9KMydZ6ENhAuEY8VSJTGZNpaFWq3kK+bhyrYflOuYF3Sgft8OWGBK59ug3Djjc3mfnkeRPd2kPZvQsW0X8L31eRUKi6bzCKZ+rUCplKZeSJOJ+/FJDQwo3qdLAbY4e7XC0tcPBUZOj2hndyZSR6EUC9qSXRzRJMlUhk12jWl1VnUzFAsRDprrvXwVZff1nVdtgoTwyw84x3doBe1u7HDzap3Y2pnU2YSydQYVTSUvsRIZ4qkguUyVfKFMuZyiVkoqMSOc78aY40x6njWPq0k9j74CDgzbH9TN6jsNY5o0h97x+hUMyJ5hXKZfLlIs5klEfqegXbZ9fZDVi75Nek/HZCSe7uxw+3OHwqMFxY0CrP8EyYC6xD9I+PZYmmSqTzVQpFYtU17JkUhHlGZCrK6m7P58Nae5v0dwToldjb69O82xE33aYih3IvAmFiKdLat4UZd4Uy+SycXUgCAclW0PHILzcFvR6f1u8wMv5hLPaEe3dHfb3drh/uMd+s81w6mI2NzEltieaIFfZoLxxnWoxT7WQJhmT3hue88J5r/c9vq+na4LwHGQfb1aTwRmDToteu02r2aPTHagFcyKnXimKIlHV4RiRWIZYPEkqmSAejRAOGAT8cmJZqCJIUjN+Jl0K223a9Sbdbo+zkcVgajOXICoxMrVZJYjGUsTjaRJSdz8eJBzyqg1WYmVe+Dk/0UpXPWk8Mzxt0ZHOdo0OZ6MZ4/mcmURdG1IQyU8wmiIcS5JIJEnGE8QiEigmAZbnVwKSCzzuqw6L3WaTbr1Fpyen8RkTKbAkG5DpxRuKEAjHicfSxGMpEokwifh5cJc6QL9YeNW2dzHHno5Us6xBt0Or3qbdPGVgOQxtG4l2F9zNQJhQNEVEZI8nScRixMQNHPaqgEjByrHk6mPI8KzLaaPJaatD+2zE2XCKpTY9Fx5fADMQJBJJKS9EPJEglQgTi0r1PBfer70aeVoT58WW5IpnKCWnT+k223TqLbr9gbpjH0lxIYnil8yHcFwtNjGl5xSJWJh4PEjw8YlfcrClrPFszFmzyVmrSacttjdkMLOYSZCm2J7Ph88fXtmebH7JmPqGAqsrHQmYEnbwzcivam6I58ka9Rj3T+k2mnQbLbqDmbIZSwiEYOrz4wvHCCvZRc9iNyHisaAK+hRStgpklKBPmTcie4dWu0f3bMjYmTOVLAg5yRumspdIXDBPk0rGiMeiqhBU0Of52sDQL9u/EBzRsRDiXqfNaaNBV7A6G9OfzJAGmoKVV5p0haJEoimi0TSJREx1cpQ2zauAVckekpgiS8XSDLotOq1TZXu90XQ1byQ7wePB7fMr2wvHUiRlzicSRMN+NU99QspeiPkLZ/EP9gvag7CqECqxJZPeKaNOm26nRa3dpN3rM7HAku6jUs4+FFZptnJtmExESUalcNlqbf5KCu8PpsHv/0GaIHzTCctZ1V63ZxNGwwnjsRQpWqpFU6VeSUdD36oErM8vbZINfFJZ7st3v9L2eT7HViV2B8wmU8Yzh6k9V6mRqoOYdHb0BVXHwWBAOgAKM3XLfvjyHyEKjgSDWUzGI8bDCRPLUn0cJK1cubw9Bl5/EJ9fnukl4POtKkA+0652tfmpU+ZEFuIxI8kcmK7GUrIrouTD9PlVF72AdB00XEr+x5XsXuYF1PPmtqqyNx1Jy96RwklSPFUaqdutnvdY9oDfp6LHhRg82xL7fPOzJSBzhCWyjyWFzsIWfKQioXS5NE2Fgcgudf59EjQqKWsvvdCvUlQlU2EmnSlF9qnF2Frl8qt6E25ZbPyYSs8BAoGAIiGqnPGX760l5XImJGfERDwH4xkze1W9byFlk4XkqbS/EP5AGJ+clKUctVQ+fFnZVfriqkKgtJm2JiPGU1vpWQoZKpOR9E4hCX7RcxCf/Ltsrk/KSH+h5ZX+JljTCWPZYCdTZS+Cu3L9S1llrx9fMLIaT82bFTH4FlzyWXM6r0IqHTVFbplbgtVUKpJKYefzniWSUusLnOtZdC7Xeqq647PDCcGRrqiT0Vh9p1LOWuaNYKTSGQ1MfxCvP6QyRgJ+E1PSG1d90y7URxOEc3WdH6yW0mdDbFbWTCkpLm1DFqt1QnWxDQQJhUN4vSZeWffOq4xeKKW/pLCaIHwTQTjfrBaOjWU5WLYUAFrlPqtNVrrieUxM04thGphiNM/bXFQS/YKFLFrSd15aI0u9gLlk7p8XWpH7ZMPElK8pZVslvuGrC9i31a86kUvdeNvGkvLH8/kXsqtF2r2KGzDlmQam3MU/b3N5vADbliorbVsOtngPzivJPSYbHlk4ZSyRXcY+H+vbyvvk9x6XPxbZpRSv/ZjYrAoBqap2QswMwdxUd8uGlAR+7uYiMQJyIpeiUyvZpS6A1KxYpddLDMj5WFJHXxoCqfvx75bPrKoaSsqq2IkQMrmGcRaqxoQiCGpjN9WCI/EmomulZ9Uz4KtIrUiejS06FNwVKVOSr3LvhXCYXkyveE5k7H/CCVaqf8r4Ss8zbHuBLTb6FFZqoTyP/xCbUfb5HKwekzwhHFIDwxK7l0VYzYOV7Ym9yKJrGCZeqcz5nUjZqsiXfMQ2pf216FmIlCN6VnVJREYPbmUn3vO55VFprs+XXYKP59hie3KtNZ8rW388T0WHgrnI/Y3z5qUN/4f/A00QniK1yoO5Wi9te2WzUqJcNQsTAqjWt/O59mRtvmCM8DuYmCYILwJN7mlVVd/HZYnPqw8+Lv/7uMzqeTnWrxTh+WLnW5VOOA/KUwVgHlcy/PJYsoGveMM/4fNFGWHpiicfVR73fEQlp5L9/Fkv2BRVmVqp1vekguHj0tIyxurIqqorvgrZz+VU8n5F9vMT8uNnqdf4pg19VQpbyX5exvpJSWz1d4/HWx0BX/r0/WUNnZedfvLMp9pcq/GfadP9zdcAT0phSxHYL8n+pGX2kzK/Xy5H/R1M5ynZVeFvhdtKz1993otkF7L02N6ftb0VDquy3is8ni3p/B0kPy8Z/uxcfUb2J8/8QufPfc5T1UW/Om++ZHuK8303Mvmd3vEV/5EmCF8C9Nz+ld6frEFfsn2l71dgr69Yl9/XcJogfF/I6nE1AhoBjcCPGAFNEH7EyvmRiKYJwo9EEVoMjYBGQCPwQyKgCcIPifbFfJYmCBdTb1pqjYBGQCPwT0JAE4R/Enw/iT/WBOEnoWb9khoBjYBG4FkENEHQFvEiBDRBeBFC+ucaAY2ARuASIqAJwiVU6it+JU0QXjGgejiNgEZAI3ARENAE4SJo6fXKqAnC68VfP10joBHQCLwWBDRBeC2wX6iHaoJwodSlhdUIaAQ0Aq8GAU0QXg2Ol3kUTRAus3b1u2kENAIaga9BQBMEbRovQkAThBchpH+uEdAIaAQuIQKaIFxCpb7iV9IE4RUDqofTCGgENAIXAQFNEC6Cll6vjJogvF789dM1AhoBjcBrQUAThNcC+4V6qCYIF0pdWliNgEZAI/BqENAE4dXgeJlH0QThMmtXv5tGQCOgEfgaBDRB0KbxIgQ0QXgRQvrnGgGNgEbgEiKgCcIlVOorfqVXRhD6/T7ZbJZf/OIX/Nt/+2/5+c9/jtvtfsXi6uE0AhoBjYBG4FUgMBgM+Md//Efef/99CoWC+larVfWNRCKv4hF6jAuOwGQy4be//S3/8T/+R46OjtTb3L59m7/927/lr//6r/F4PE/2+f+fvfd8buRKz75/yDlnIjFnDidIo7ze4PLj5y0/5Sr/k/Y3f/EXV9lerzdJGk3iMJMAASJHImeg3zoNzmh2rbi216NRd6mLQxE4ffd10nXuqJIkSRIfmM1mdDodisUi//iP/8g//MM/UKlUsFqtrK2t8cEHH8g/VSrVDxweRXwFAQUBBYG3EwGx+B8fH3N6eorH48HtdsuHvEAggMlkejtfWnmr74XAaDTiiy++4Fe/+hU3NzcYDAbu3Lnz/QjC3//931MoFNDr9SwsLLCzs0M0GlUIwvfqCuXDCgIKAgoCfz4EBoMB6XRavu12Ow6HA6fTicvlwmg0/vkEUZ70RiIg9AHj8Zjz83OePn2KGC9CCXD37t3vTxBKpRJms1lWT4kGFhcXFYLwRna7IpSCgIKAggAIDUIikZBvQQoEORCaBHErBEEZIQIBQRAODw/57LPP6Ha7smZpf3//+xEEYWKoVquy3eqliWF9fV0hCMoYUxBQEFAQeEMREA5owsRwcnKC1+uViYEwMYhbHPaU68eNgNAgCBPD48eP+eUvf/nKxLC3t/f9CYKwT4gBJr78i1/8gt3dXcVJ8cc9vpS3VxBQEHiDERB+ZEJ1LG7hdyBuYSIWt1AlK5eCgDAr/PrXv+af/umfEFYCEXgg9vbv7aQoPGLFAHv33Xf527/9WzmaQYliUAaYgoCCgILAm4mAiDz73e9+J0cyhMNhmRgIE7EwDytRDG9mn/05pRIaBEEQ/vmf/xnhZ5jJZOTHb21tfX+CINioCJN5//33+bu/+zsePnyoEIQ/Z28qz1IQUBBQEPgeCCh5EL4HWD/Sj/635UFQCMKPdAQpr60goCDwg0RAIQg/yG77swqtEIQ/K9zKwxQEFAQUBN4MBBSC8Gb0w5sshUIQ3uTeUWRTEFAQUBD4H0JAIQj/Q8C+Rc0qBOEt6kzlVRQEFAQUBL4rAgpB+K5I/Xg/pxCEH2/fK2+uIKAg8CNGQCEIP+LO/46vrhCE7wiU8jEFAQUBBYG3CQGFILxNvfk/8y4KQfifwVVpVUFAQUBB4I1GQCEIb3T3vBHCKQThjegGRQgFAQUBBYE/LwIKQfjz4v1DfJpCEH6IvabIrCCgIKAg8F9EQCEI/0UAfwRfVwjCj6CTlVdUEFAQUBD4YwQUgqCMiW9DQCEI34aQ8ncFAQUBBYG3EAGFILyFnfrf/EoKQfhvBlRpTkFAQUBB4IeAgEIQfgi99L8ro0IQ/nfxV56uIKAgoCDwv4KAQhD+V2D/QT1UIQg/qO5ShFUQUBBQEPjvQUAhCP89OL7NrSgE4W3uXeXdFAQUBBQEvgYBhSB8n6EhyR+W5B8qVKrv890f7mcVgvDD7TtFcgUBBQEFgT8ZAYUgfFfoEmt3rgAAIABJREFUBCuYMZupmM1ApRIEYU4S3naioBCE7zpGlM8pCCgIKAi8RQgoBOG7dKYE0gRJmjKZqphM1ahQo9WqUavffpKgEITvMkaUzygIKAgoCLxlCCgE4ds7VBLkYNRhOmrRHmppj0xodQasFgNGvQatGjTqb2/nh/oJhSD8UHtOkVtBQEFAQeC/gIBCEL4dPGk6ZNotMeoWqXSNFAZ2jCYbfpcNu1WPQQM6zbe380P9hEIQfqg9p8itIKAgoCDwX0BAIQjfAJ40RZqOmPSb3BQuqBaSlEYu8lIUl9vHSthNwGXGrAW99r/QCW/4VxWC8IZ3kCKegoCCgILA/wQCCkH4OlQlmI5h2KTXKJI8fszl6QF5IhQte0QicR6sLbDot2LRg1EhCDKQKkmaB3nMZjM6nQ7FYpF//Md/5B/+4R/k30OhEO+//z5/93d/x8OHD1Grf8jGGQnxuvIry/+Jf385oIQXq3BhfRXtIn6Vf/uqEBjRgMRMbm8eK/OqKdkNdv4dteplGI0M9ytP2e+/OPyR7K8/T7T82jPnPStk+rrnfdnWHI+X0sgvLL/zbXMyTvP2VKj/ZPdeCWYy2uLHl1iJB6vUX4PJt8h+294fyH6Lwx+L+dJD+ftjLr7xej//4XiZj5WvGBsvPaL/4IG3IVWzmYz3V469r2jrvyb7TBZ/9gdYCTlux/nrY/120MznwHz4fHm9Pvbm4/w/zZs/kv3lePzPbX2XXpCfgCTEv52vX07Tl05kfxyT9vVzSxJu6n889l4N6/n3boe4/FOa9+oP0ptdIQhfNb7mEQvTYYdRI89NPsnBo095/vQZVfM6jYVPWFtf4yfbUVZDdpkgmBSC8GMjCGJVFouzxHQ6ZTadMp2JfevVDiiTH7VGMw91EcuE/I+XG9jtAnS7hMhtzWZyW5OpCJeZb4CS2JTVavnWqFXyLS868ros/p/422sk5Lusl/ImJZ4xlYnc9PZ58832dvOW29XIhGTO4eQ3kN9BPPPLhVosvAKHuezTyVTetGfzhlCrNLJ8Gs3twjnfH1FrhIfvnBx+L6IgL/BzrIT8U1n+WzIlEwSNjLloU3Nr9xMYyoRELW7hYXx7yW3NMZD7T+Agy/cl0Zj34fw78ze6bUP2Tv7+uIvnybJPZ1/Rz5r5mJGdmlSv4qmF7Bohw+vPE7udWKQmQm7xDhLTV2Nv/lmNGHuvxoYYf/NxNH+H7xmkLY91gft8fAqsXhITmLc7x/fLfpbRksftH46X+diTmM0mMg5CbvH7nEa8/M7tvHkZJiZkl//2J+B+K7s81gVeAv/bfpYxEfNIo5L7eU705wRZrZ7L8OX4vCV3Yt7I8/21sXdLiOaYq+V5M+cJL8n9fNz8aQTnO03q/5EPKQThK2AVc1gaMe7Vucmckjt7wee//YxHj47oB+8z2/6/7O5t89O9GJsLDoUgiPX4dq3/kWgQxKY4QZqNGA/69Lsd+v0e3cGM/mgqb9xio9IbzRhNJnRaNTr1bL5ga/RodHr0Oi164bkiSajEgjnuMR72GPR7tNoD+sMR4ylMUaPRWdDpjZiMaswmsYip5VAajVaHyWJEb9Aj9sLv5AcjL/IT2XY2HHQZ9jt0eiO6/THjicRMXoR1GEwWDEYjBh3odWID1sm3Tq/DZNCh1WpkuUVb01GfyahHt9Ol0+sxGM0YTcTKqkWjM2Ew6DGbNfL7zqYiTliNwWhAbzai18w3kO+kR5I31ynT8YDRoCtj1emP6PaGMjmbSiq0ehN6oxWDQYtJL8ltT2YaUOkwmfTyLS/eYq2fDuS2BA69Tpdeb0R/PGM0FYu5Fo3WgNEsZDfIG8ZsKtrTYjDN30mrUaH9Thqwl6RmIuM0Hfbo9vq0uwOGw4ncz5JKi1ZvQW8wYTKC0aBiJmmYTtVy/xoFVjotaiTUMsEYIE0GMubdXpf+cCLjPpnNZdfqDRhNRlnOObWTZM9qncEk94NOo3lFNr95Z7klk9MR01GPoZC93ZP7WfSxGO5qjVHuZ6NRi9mkkcO7ZhM1kkojy2A0GdCoVGjFXilIwWzIaNibz5vegO5wynA8RRIjWKVFbzRhNJnRaQUZnaEVZFJrRKMV80aMI+3ttvtte6KYpxKzSZ/ZuE9PzNFOj95gxHAszbHSGtDpDJjNOozimCepmU1BoxO/m9DptegEyZE1EGN5vA96bYa9Lr3+iM5gzHgq5o0gkjoMRjMGgxG9XtidBdGczxu9TvxNh1asAbe04dukfxP+rhCE/9wL0mzIbNKle1Mgc/aU5OFTvvjsgGfPkxB7D8P9v2F/f5ef7cZZDysEQex7Px6CIB+bZsxGLSaDBjfVLPnrJPlcnkylR7E+ZKYyotKacfhD+EIRHDY9dv0Io9GAxuzFbHHhcVlx2U1opiPU0yHdRp5WPUMhmyWRylEot2j2YTAzYXKGsblCLAQNRAJqpJmObt+A2eYkHAvh8TowqlQYvvFQeHs0mo2ZjtqyY025cEU5l+A6f0Oq0KTVmzGWtGiNTtzBGG6fD79DwmEVR34LY9y4XA6CASc2kw7NbMRs2KHXyNKu5Umlrkld5ynfjKj3JCStHZM9iNvrJBYx43YaGPQ1DId6fAsBApEgdqMeq04jbyBff92e3MSmOO7TaZZolK4oFXJcZWukczf0xzCYarG4FnD6Yvi8FoKeGXq9jv7QgkprJxz2shByYVBJaKUZo26ZQbtIuZAhnUqTzVcpNyc0+io0BidGq5NQyE0k4kSj0jIcSLJ3sm9BvJMHm0GLTTCob1nwBalhOmAy6tKuC6yuuc4USKaKlG96tAcqJmoLVk8cpydA2K/B61YznRroDY24PB4i0QAuhxmdNEM7HTDqVhh2SmRSKdKpFPlal9LNiP5Ei0pnxeZwE4wE8XicaKQpGknC6vbi8IVw2iw4zXqM32GjFRsisxHDbp3uTZab8jXJVI50Ok+9p5Kx0pp9mJ0L+H12Ygt6LBYdvZ7QqVoIhAMEwj7MWjVmoRUZtZgO6tTLYt4kyOYK5Cp9yq0JE8mAWmfB6Q/K88Zu1WHRjTAZDOhtfiw2F26HBbfdLBPKbyTEt9oh4WE+aJcYNPPkMhl5jObKTSqtKd2xHoPFg9XhIRKxEQpakWZaBn0VVrsLfziE22XDotNgVEvMhi0mwyblbIJiNkm20CBdas3njSDPJieeYAyPz4fbPsNlmYHGxlTtxul0yvjYzQZZ7u9EiN8AhqAQhNc7Yb4OTUcdRu0y1VKGo6NnnJ8ek7/OU6o0UYf2Maz/lO31TR5ux1gOKgThR0QQhO5cnL7HDFplujc5CtlLkmdHJFIpUsUemcqAmdoMOhu+cJRgdBGnXSx0PSwWG0bXEi5vhHjIRcRvQz1sQb9FtXBJMXPKVTLJyWWaTK5Bra+iP7Ni8Szh8seILWhZDM8YT8zU2zbc/gV299dYXApiVakwf9MmK1TS4rQ/7jFsVeg2CqSTx6QvjrjIVLjINLjpzBhJBvQWD/7oKv6FAH7HCJd1iqTzM9FECIdDbK4G8Fh1aIZtxu0KlfwF5ewlZ2cJzhMp8vURlY4KSe/G7IriD7pYXzLgcetpNE10+xaWt1bYvLOBz2rCadBi+KaT+K3s40GTUadOvZQimzomlbrk/KrMZbpKd6SlP9Vh98XxhFcI+M2EvWMMegPNgRetMcjudoytzQXM0hj9ZEC7mqZWuiRzdcHZ2QXJTJFcfUq9p0Fr8mC2+4jFXSwvOZEkHc2mCqvDx+r2BrGlKF6LAa/QLnwtQXhJbEZMeg0G3Rrl7DmFzCmXiWvOLrPkq10afTUTjR1nYA1PMEIsKBHwSgzHNpo9J5F4lL27K4R9DozTIep+k1YtRbNyxfnZKRfn56SKHbLVMf2JHpXejsPjJb4cxut3MxtNkCYS/vgyCyvrLHhdhJwWrAadvFl9PTWTmMkajxadep5y7oxc+oLT8yvOL9NUumoZK51tAatnkYWQjdW4GotZ9LMFSeNmbXuFjZ1FXHoNNtWUkZg3jQyF60sSZ8ckrlJclfsUahMmKhNqvR1vOMJCfBGbRYtJ3cditWDzreD2x4gHnUT8jlcas6+W/dbsNe4xHbS5KV9RK1yQvLzk7PySVKFBoTGjNTJgtoewe/wsL1llEjsc6Wk29XgCC6zvbRAJ+3Dr1VhUY4bNEr1GntTlEcmLY5LZColsm5uuIAiCxLgJRFbxB4N45HkzQmUIMdPF5HmzvuTD67AgKOV30vYpBOENQOA1EWQnlinDTp1OOU0+m+Tx8RmnyTTjYRsVU3SeLTShBywvrbG/HiPuVwjCj4QgzO3V0rDNtN+keJ0mfZGgWL2hNhjTnYBOp0er08u2e2HXVKtHqFQDWp0u5XoLjB78i/uE4+tsRh0sB0yMymkGuSsusxVOr8VGN0GjF2YILWq1DrVGqLpFezMm4wqjfoHawEmxHyYUXeXjj7bY3QhjU6mwfK1dWWI2HcGoS79ZpZRKUkxfkb3pkW0MQKNFZzSg1WhRCRu+sCVrxsxmfVrtOs1eF5VtGY1zj82VKA92Avh1I2aVFI18lpNUmctcFbRaJKFO0ujQaPSyL4CwnUMPaVygN+iRbXqoDgPce7DDBx/tsuCw4DFoMX5dJhGhrZmOkMY92qUMteskuXyJy3KLcns4N1UYDLeYi+dJaDQzhqMWnU6JzkhPW72Oyb3Ch/cXebgfwtguo77JcZXKc5zMUm/1mYjTrVqLWqtHo9HN7c/qGSqpAVKd4o2aq7IZmyfKg/f32dleYcFmJGD9BoIgm2BEGFSLVi5FPZfiIlvlNFdnqhJmFr1sJlIJc4Zag0bWwY8ZDsr0BjfcDH3Up3HWN1b55MN1ln1G9K0yg2qBs4s0l8lrBhLyLUxXwoQg2pnbwMeoVC0Gwz6Z6oxSU8fK9g7b9+6xFPIQ91ixC5X31xIEYfeYMrgp0iukyOWynKarZGottELzoBVj8+X4FGNVzWzWZDIq0O5NKXSCzAwR3nm4xcMHq7hVQ2zjNuVMmtRlgkKtQWM4oTdBNodotfq5f4hs+x+hVg9otrrk6z1URjfhtbvEF7dYizhZWXDKcn+17LcOiaMeg3qOfjnLhejnqwLd8UTuY4TcWu1tPwv/iSmqaYXxtE6hYSJz4yIUX+a9D/ZYj3vxqseYRm0KyUuKVwly7QHF1oiZWoNeL0wf2lsfDOGvM5bNP41WnUa/g86+hsm7z9pylHubIUJuM3qFILxZG/93lEZoo+R1qJKnenlG+jrHi/KI62Yfu7aO29BibF2kZ9klEl3hzlqUmN+p+CC8/SaGW++96Yhxu8ywUeD86JJnj8+o9DXgW8IWirK56Gc54karGqOe9WlWzqnmDjlO5vj87Iau2k985yNWN3fYX7Sy4dfSODugdvyMF7kJT4pqLL4F9vbXWV4M4bUbsOqnjLt5uvU0l5eHHJ8ecNXykh6tE1ne5m9+scOD3Qg2JMy3zosvHSVfeVOLzU+cpnp1WqUsl88OSRxdUNH6qRgWWFmOsLcRxucyy+E4s2GdZuWEQvacp2cpTq4b4NzBGP6Ae9txPtn34Zdu6J49I3+Z4rPUiKOyivWddVa2VgkHnASdRvT0GPfKVIuXXJ59znk6z2k9Qnq4yE8/vsNf/WKfiNOCz6DBoBY291sHQVlnP/f8lp0Fxh1mgwali3PSB8+5KrS5HLjom3zs7y2xtxnHZtJg1sOgdU27dkEyecHByQWpupaW6QHW0A7/54NFfnrPj6Z0ziR1yLOzGr89bTE2Ooltrstagajfgd9pQDVpMexVyKcPSCcec3At8TjjwuRb5hc/e5eH99dYsBlYsOrnnvGyk938eumMKtKvqmY9hs0KxeMDssfHvChreFY3EFuKc3d/lVjYg1skU1ENGTRT3FQSnJwdc5JIkR2EKUnb3Lm7yd/8bJ01N6iKSW5SV/z2aY7HJyV8q+sElleJR/0shVzYTCr5md1mlmLqCYmrSz5PwGHBwO79+zz8+D02Ij5WvGYcRh2q2dw/4XXnvHmEyRSVNKSdTVA9ecZlssCjrERhZGFrb52tnVX8DhNeux7GNUadArnMKWenj7nIdbjsrDA0r/GLj3f42UdruCc3WDpFLo6SPHl6QXWgRRtYwrkQY33RK2sG9BqxUXdoVi6o5g44SpT57KxFV+tjbf8jNnbusht1sB1xoJ5JqG+dMucuqi8jBYQz5oTpoEUndUz98pjHiTa/v+hhC4ZZ3t4gHg8S8VpxWdSM+zV6rTzpxBckEoccFswcVkJEVzf5q1/cY3fJg09qoW2VOH1yxNnBCS1zlLY1TDy+wPbaAn63GYNmJptOGqVjCtkznp5lOLqqo/Pdxbb0Ifc2l/hgJ0TUO9cg/FCc2hUTg5jR8/V/Kh8OG9SuU1w/PyKVqXElLVDXWYlY8kQtOdqaIEVpnWB4ib0VsZ4oBOFHoEGY59qeTXp0K1laxRQX5yVenFQZah141jcILsVZDjmJ+q1oVNO5X8FNknrxjNOLaz4/ytOYOHAt3Se8tMJeTMeqZ0z2ySnJz48oS05KpiC+aIQ7m4ssRdzYzTpMuinTXpVuM8d18pDk+XNOiiYOa2G84WX+z882uLPhQzvooh706I9msrPa7VaFxmCQHac0DFH3yrRLWc6eZ0icVdCEl9EtbrC8GGBr0YfbpkevESbnJu3aJZVCgsOTC06SJTq6JcbOu+xs+Pnkjh1bv0b20Qtyl0UyuCnrPWxvLbO5HifoseK26dBJfdlPo1FJkr38gsvUNV+knZzWfbz/3hZ/8bMdgiZwSENm4/Gts9pcdqGF0RnN8ulSL7XRjmvkTlOcP7qk0lczDCxjCsfZXQ2xtRSQnfqEj9mwU6B3kyadOufk5IREcUpmvI7Kucxfvr/AJ/ecdM9OqT57QepG4rJnxugNsba1ytJiiKDbgtuqhWmXcb9ONX9E4eoZTy57/OZUj8q6wEc/2Wd/N05AP8Gtn9Lpj+n1Jq8iWDTiJG8wo9OpMKk7TFtlrp6ccfUiTdXoo2aLsLQS5e5GWDYb2ExadKoRw06OVjVD4vIFF5cJzqsuLjsx1reX+P9+vkzUMqZ3cUo1meEoP+GiJrG0tc7i5iqxoIuwz4ZVL8xgQ/rtArXcAamrJL8/6vL4asLKzi53Ht5nyW8hZgeDakavN5YdJef0RoVanOZ1BkzGGRbDkJtkitSjI7LFLnmdj6EzxO7mIrsbUVxWPQ6zDsZNRn1hajondfaYs+s6zwtB6qoFPvlgg48/iGNpl1CVr7hK1nhx0WCsdeDb2GBhKc5iyMGC2yITBKY9OvUrGsUzji+zfHpQ4mZiJ7TxgNjKJptBPRtBHb3ukH5vzEREcMhBJ2pUwolRr8VsBtWwTfXwhPzhGem+kdTYjn8xxubWMvGwD5/TiMOkYjJoMuiUKKafkb464kkSPruyEogu8ZOf7bIZsWIblqFa5Oggy8lhEfPyOpblDRZjAdaiHjw2PTqN8FFo0K5eUspfcnCS4PiiwMi6juS7x+76Iu/vhYjcEoS558qbfykEQXADUWdhQr9ZolPNUEzlSZ4UKdVnTMPraDwufNIF7skJ1ZmP1FSYmZbYW4sS9SkE4e0nCLLtaSg799WySUpXZ6RzU5JFHUZPkI17q8SWQ7hMWuwir6bwGpemTIc3DLsVMqk0h0cJKh0NknsNq8/PZnjEoqPL4W+vef7v1xiXVnDe2yMSC7Lks+CzGdAKVb/s+T1mMurQLl/QyB3yLDnh0wsjRpePjz5aYm3RxrhWZFivUG+PqXfHt4umBqPVjtUTwKSbYexnGVQrnB73SWWmLD7YZuXDPUJuC36LICPz54kIByF7t1nmOnHKdTpDrucmL8VYjVt5f08H9RqH/3JO7rqLcWsb88YGq2EnywEHVqMOvVac6OZ+D+NuiUFVaCQy/McLicdJDTt3l3jnw1UcdND3KnRbbYqNEe3+VF411VodRqcfi8OFTdPCJlXInFZ58XmdqdFF9KO7RO6sELbqCdl0ciiaLPukx2TY4qacpnB1TCLb4aDooa328vFDF+/esZD77JTzXx4xtPmZxdfxx8KsLfpY8Nkx69Rz2eUsaUPG7TSDmwRPj+v826MOA42d3Xc3WFn145zeYJk0KNb6FG/6TKbzk6zWZEPvCGCz6vCamqi6NU4/LXDxoo5zZwvPw7vEgk4W3UYcRqHqFs+byVEVo16DeuGEYuaS5ykNj9MWoitBfvrTMB7NgMLjIypXJW5MC3TMITbWF1hdDuK2CW2TiE6Yq5EEyRt3slSKOT59UuLpyQ3epWViO5uE7BDQC0fVDsVKh0Z7OA+RFJEUFpc8ZrxOCb9zSPm8yNGvrmj29Vjv7ODeXGE1YGfJb0MnR3HIA4aZcGRsZmkXD7lKV/jNiZZcx8Ldd+LcfxCESob+1TmFKqTrFkzeIJv7y8QWAzhNWll2OdpCmjAZ3jDplkkmMzx/cUW1o0YfXMchNACuMYuOEaVKi1K1LUdvyLhr9TLuFqsJv0eDfjYk9dklqadpCMXQrm0RjQdZjbrxOcwYdSKySEA1ZTbuMGxc0i5f8vlxh189H2Px+rn3wRrRgBZD45phucjp6YSLqwlr7+2w8nCLoNeKzyTmjTCNSPJ4EVqEdrNE+uKcq2SKyjRIRbPEylKYd/ZChBWC8Oazoj+SUJoNEHc9n6CSOub6qk4iraEjuVh8Z5uFJQ/G+hNUhUdkxx4up6t4g4vsrsWI3RIEwaPf1kvJpCgTBHEablJOJ8hfnpKt6ci0XNgDYe7cXyS+5MWsBuMr92SRaasrL9QiMuHi5JJKQ2JgjmBwOFgNdFmwt3jyuyqP/qOGf3edlY/vEo16CVl1OA1/6Ocs7PDDVppB7ZyDsx6fHkzRWp08eD9KNGKiV8rQKeepNIZUW2MmIvBArcHo8OAIhLEaJMyDHON6ndOEikzJyM6Hm9z9ix08Vj12LeheenzJ4YQ9Rt0bipkLCpkMmRsL2Y6HaETPvS0Vw/oNX/xLhnxxzMI7+4TubxN3m4m6TRi087wBr5obNZC6SaqlHL951OPJyYjV3Rg7D+OYJg00rRyNeoNsdSiTG3Fp9AYsnjBWtw+nrolLKnN92eX5syE6Z4C9v7zL2t1F3Fpwvq6vlUPRhnRuctTFiTbT5HnCRGNk5sE7dvZ3jFx8esXBv52hD8aw7+4QXgyzvGAn4DTJoXiaV4JPYFRC6uc4OCzzH7+r0Z0aWb23QiTuxDIqYxhWuC51yVS6jMZynVf0VjcGEU1hNxK03KDp3XD0uMXFSZ/Yw13Wf36PBY+FgEGNWfY7uL0EqRz36NYuuSmmODgf88WpimDMy3s/CWBR9Ug/OqWcrjP1ryAFltlY9LAWd2M1atHfJtKSlaKzHqpRjUa1zJPHGQ4OK9gjEfxrK3jMQ9yaOv12k0yhRaXRn+fdUGvRWb2YHG5CnhkLrhGlyxrPfl2mr7IS+2Cf6P4qUbuRsF2ET75+SUz6ZcbNC7LXFX77dESmqmXz/gLb+z5GxTTtxDmVtonSyI89uMDenQjxmAejZh6BM29PEKUujFtkU+LEnqTSmoBrEZPTS9TeZcHaJVO4IVds0OlPGE9moDOiNTuxOy2EfVqM0pjLR1kSz4vYV1fxPdgnFvWy5LfitOjkPn4l/2yENMwwbGZ4cnDDbz5tonc52Xx3mYAw69RT9MolztMGEjkjdz/e5M4H63idRqzq1+eNCH3uyU5sBbFOpFIUeg4KwwDRWIg7eyGCCkH4we2Tk16Fca9K+uKQi4OnXGU6ZG7cjIwBNvYXiUatqCsHDHMH5Md2UtM47vAKW2trLIUDhJwGvNb5IeZPzg33BqOmEARprvoUBKF4nSB3eU6+ZZInvtMf4s6dMPGYCwPIi/T8EmaJPrNph0q+QOosRa0xYagLoDdbiHqb+KxNHj/u8emjLtHdZXY+2iay4MZn0mIRJcBeu0QM9qifZ9C+5vykzdMv+qjNVrYfRvAvGOiKBbiYodQYUWl+SRBMDg/2YBSbAazDHJNmk7OcieyNjf2HK7z74aq8YJpf3xjFyV8SuQZEdEWKcj5HvmKgUBOhYCq2N2Z0mm0++02VQkXFyrtbLN5dJ+wwErAb5NwGf7B5zNrMRlnqlTKPP21w/KJPdHuBlQdRDOM6NDLUag2uqwPqndcIgjeK1ePDo23jkopcZyccnKgxuAK8+7MtNvaEcyZY/gCqeX6KXrtMs5Iie93k5ERFq6tj576FtW0jp49zPP1NBstCmNDuJuF4kJjfKvt8/GEI2hRmdaRxmbPDMo9+XaI31hPdX8QXsWMaFtD2S1wVO1yXXycIHgzuCC6HkZCpjnbY4PBwxMUVrL+7wf5fbBNwmnFqVbLvxZfXTI7Z77UzNKtZzk76vDiY4Ak7uPORD516wNXTBKVsE93CCvrQMqsRB8thJ2ahPXh905OGMLuhdVPj6HGW8xdlzKEQzuU4TmMfh6pGp1knlW9SvunLGgSRi0Fv82Fyegi7p0SdffLXXZ580WasdrDxwRZLe4sEzHr8lv9MEKajOuNBlmKmzJPPe+RLM5b3gyzveegXMzSSl9QHVmos4AqE2N0OEos45TnzpcPhfN5Isw7FTIHEUYp6Y4JkW0BvdRC0d/BZ2qRzdTk8V+TvGAk2rDXJ2g+Hw0zEr8WomnB+UOXitIl/dYn4g/ncEgTWbtL9YeSJNIZZiWG3yNHzKk9+W0djs7F0P4bLJTGrp+hWK1wWHSSrDt55b4l7DxdlE4vxVvZ5HwrHzgHDfpNKLkUpm6XSsFBqOQnGA2zuhuTwW3GY/KEcKBUTg0S/ekGvfM7Bkyf8/vePSBSG1FRhZmY/ixEHQaeGaeOKfjVJbWylLPlxRjZZ2rzLxuoie1EXS4HXNG5v8Gb/p4imEARBEGY9xv0W5ZcEoWkkP/TLuQ72bgmCSZweXyMI0kwQhDaVXIH0+RXVmykjfQBkoYOWAAAgAElEQVSdxUbM18JnbfD4cYfPPu8S2Vlm68NtImE3fkEQdPOEKq/ohlDh9gRBSHN20uHJ4wEas43d9+OEoiZG1SL9eplae8RNR9jD51nnDFYHVncAk2aMvpuhd3PDecZApm5j791l3v1oDYdFh1VkO3xdgyANGA9aVF4RBD3FuoNQSM32xpROo82j31TIV1Qsv7NF/JYg+O3G/6RBmE1bSKMstUqRx5+1OXrRI74TYfVBHDMdtN0yrVaH0s2A5ksTg06PyenHZHdgpY51VCB9PeLZMehdAd75qSAIUWxqSZb9S6DEuw/ptco0KlcyQTg90dDs6dh7YGVty8DZE0EQrrEEw/h3N4nEA0T9Nnx2o6xB+FIJJMhGjdmozPlhmc9/U6I/MRLdXyIYd2GZ1jFMGhRqIv9Ff36SFQmBTA4MDj9WswaPtozUrXPwYsRFYsbKuxvs/WRbLuLi0aoxvAJdcMrpnCC0MjSqGc5OBxwcTPCGnex/7EOv7s8JQq6JJriCLrjEatTJiiAIBuHH8JrsslpUEIQqR49znL0oYxEEYWURt2WKWy+cMDsUqx3qrQEie7Ck1qC1ODFa7HhtI4IWcYpv8+jzFkPsrH+wxfLuIn6rAb9Zf5sh9CXyMyajOpOeyOVR4fGjHoWSJBOElTuCIGRpJi6oDSzUpAUcgSB726FbgqB6jdwIH4qeTKyL2T8kCEaHmwXnCJ9jKJsYypUWPTnRlAQaAxqTDauQzSFyRfQ5eVbm/PgGz8oy0fs7RBfcRDwm2TlTTpb1anKNkKbFOUF4VuPx72/QvSIIIoglRadW5qJgJ1Wxc/+9Je6+uyQTBJHb4ZUSSM6w12ckcoxk5wSh3LRQabsUgvCn7DxvxHckeqUzuqUTDp694NNHh6SqQzr6EJhcBBx6HPoxo5trOrVr6hMzFcmLM7JFfPsB2+sr3F/ysB5yyAnzRIbU75nD9I1A4ZuEUAiCHIffZzJsU76+pJg4I1NRc91wYPUvsHN/iaUlPxYNmOSUwrKOF2naZjpsULjOcnZ8SaUlMbbEMTpdrIR6LNjbPP9tice/KuHZXif64V0iMR8Rmx6XSRCEL9uaTYYMGld0q+ccnPf49BC0Dh8PP15lbc2LbthDPewzHM/kWzYpixSyImueXi8nqBlUE1TzJU7OJVIFLVvvbXHnJ7t47UacImOivFnNHTKlSZdBp07xWvgZZMk0rGT7fuIRIw92VIzqNzz51xSF3Aj//Tv497dY9FmJuC2yTXaeVfY25/6wzrSToFzI8ZvHA56cTtm4u8ydD9bwmMDGGCZjuiOR4+Glk6JadlBUazXQLzBrpbk4afD0cQ+Vzcf2z++xfHcJn16NWxzH5KiH22x3kz7teo5a7oyrTIvnKQvNsZV333Wwv2sg+WmSw387Q+0LY9naZmExLG+yQbdZ3qjmk/i2rUGJafdaVtH/++/r9LGy8c46i2shfIYZLsOU3mBCfyCc5eaufiJUUq03o1EN0I9ztKsFnn9a4+SoS/jBDos/vUfEYyVknmuK5mpH8bypnISlU7mgVrzi+cWEx+dagnEvH3wSwq7pkfnihFKqxtCzxNSzyMayj7VFL3aTViYb8y6cm7ekYYW6IGVPcjw/rOGIxQhsrBH2mlhwqNGrZvRFJsCRIFVzDEX2SBFia9Q2MaoqJI+KPPplnvbEzMLDfRb21og5jUSdhi9VprdJiSa9EqObc64zZX77bMp1XWhtIuzc8zEtXssmhnLLQKHvxRYIsXMnRnzRh1nMm1cL5wxpIjROTTKpDMcHSSrtKWr3shzhs7xgZCmgZ9AXmUBHcpptOU2zCO/U6NHppph0HUatGi9+k+ToizzmpWWc+3eIxXwsB2xy1Ij21mdFxl2Er/XS9G/SPH7R4NdfdDA4Pew8XCLgVaOpX9GvlDhL6kjkdOx9uMnu+xt4nWbsYt7IquN5dlUmHfqdOvnUBdmrFMWBm+I4RCwe4q5iYnjjN7uvEnBwk2F4kyGVyXN5lafcHDFQmZA0ekxCczcb0KtcyD5ilZGNghTEFV5nefMO60sxOeom7rPK/jovU+X/IIH4GqEVgiDnvReOex3quQSV9AVXmRGJrFo+za7eXyMmHMVMehxGkbPg1klxUGPYKctZ+l4cJah2teDZwB4IsRUZE3f1OPl1iqN/S6KJL2O+syeru1f8Vvx24aSoRisyuE2Fk2KbVumMm8whz1JTfp8U3vdRfv7TTe5sR7Cphar9K7ip0H4wYtiu0iwmKKSyHL9ok0yNiNzbZvGDO4Q8VgI2neygJ29WsrPVDZ2bAqnEGdepDLmhjwKLrC3Z+XDfgKZe4fhfTsml2mjXt9CvrMsx6styqJ1WZstqYU8WDpadEr3KIflshn8/hMdpI/vvrPP+T7YJu6z4jF+VB+E2nn0iPPKzcpjnxfM8T39XYqRzEvrwHqHdZaIi1FCYBm4dOqVxV3ZSrJeuyCePuMx1OSj7aWv9/PQ9D+/dMZP//JTkv7+ga/YxCq/giYZZX/IT9ttlVb1Rq57nvJgOGDfS9OvnPDm+4V+f9hjo3dx9uMvW7iIRu4mQ/evzIEzHbca9DPVChhe/znDytIx5cxP7O3eIhVysuMw4zbpbQiI2xj6j3g313AmF6wueXWt5lLUTXw3xi59G8Gr7VJ4cU74qUtEFaQgb6OoCa6shPDYjNqMGwaeEOkB2UmylqRRy/O5ZmSdC1b6yRvzODksLHpb9Vhymr8uDIN69hjQuknya4um/XlBpazFs7+BYX2Y1KHxobHJKZeGoOI/wGTFoXtMuvCAhnBTPDGR7Nh68u8g774RQlzOM0xdkyzOuqkYM7gBrd5aJLQVl516bQXOruZky7ddkx9Zk8pqnz68o97SYw5u4IytsxV1sxL4hD4I0lLU+nWqBk/845uTTJENvBGlZmJICrEc9+Jzm+cIu5ovILDruMqqf0ype8NlJj18eTrH6grzz0TrxgBZjM8OoUuD0eMBFYszSu9uyc1rIa8N3O2/kpkS2zH5dTkKWFMmrrtJUZiGq+hVWlyI8VJwUf5D74rhbR9z1Zodqo0u7P54T09sDgdgXWoUjWtljCmMHmdkCroVV1tc3WYktsOi1yH4Icn6Zt9AJQSEIchCY8Hbu06/laJfTXJwXOTwu0VNZcSyvyuGJiyGnHF+tFQl2ZkN6jRSN0jlnySxfHBdoTh24l98hsizCHPWseWfkn52QeXRMbmIhr/XgXgizsxEltuCRQ8iMWonpoEa/lSeTOiJxccB52cJRPYw/vsZf/3yHBztC1f41BEH2J5jK/hP9mzy1nAhzTHF5VkLyx1GFl+fhWjGv7Akv6paLzaVbv5Lrmx+dXXKeLtPRrzBx77O3EeKjOw7sgzqlJwdkLwqkp3aKKgfrG4usrUYJuEWYowGtNGAybNCsXZFPPCaRzvIk6+LsJsCHH+7w85/dIeK2fQNBEIqYMZOeIFolMidXnD06o9iBjjuGLhBhdyXI2qL/dmMXuaBEtrsMmfQ5J+enXJVn5CebqF0r/OUHC3xy18Xg8pzGwQsS1SnnLR06t5+l9WXisaCs+ndbdTDtMx40qBWO5BC4p4kBv70woHFE+Pgn97m/vyoTBEFOvi6T4mzal3NKCA3C1ZNTrg6SFLVuSqYA8cUwu+thQl4HNqNODnMcdYq0b65JXh5xmUxyeeMm0Y2zubPM//3ZMnHblEHijFoqw2FmyHl5QnR9hejqEpGAiwWvFYtwhJmN5BTStfwh19dJPj3p8zwlsbq7x957D1iP+GSC4PxagiDGTA9p0qJ8mSD16AWpfJssLnoWH1sbMbZWozisBhyi2P24zahfpVa8IJ14wsX1DS9KQRqaCB9/sMEn7y9h7ZXRVq5JJsscntXoq224l1cJxCLEgw45gZBOM0M1HdC9SdMon3KSyPP5UUWeN+HNd4iv77ATc7H1TQQBkRpaZAutUnhxRO7wlERbS6JvxhMJs7q+SHTBI0cy2ExqZkMR5lihlHlG9uqYpyk1jzJ2ArElfvLTPTZjNpzDKtRLnBykOT3Mo4+uoIssE4sGWI24cdsNckTEbNSgU0tSFuHBZ1ecJkuMreuoAg/YXYsrYY4/SHogqjrPa3kMBmNZWziainoiX+ZsEfkRmunH1FPPyIwcXM0WcYeW2FxdYTHkxW/T4jSL+iGKk+JbXKxJ2EbHTLo1Jq0iZy9Oefr5C/JtiZEzjjkQY2c1KG+0OvVUTpTUKJ1SyTzhKJHn04smfX2I5b1P2Nje5+6inc2Anu7lc5onj3l01ee3iTFmb4g9EX64HMFvN2E3zBh3MnRqCU7PDzk4OSDdCZCfbbG4tsv/+8s9Hu7GvoEg3JYFFomS+je0yxkSz59zeXRKduQmK/lZXo1xZ2dRzl9g1KqQhjXqhQPymeN5wpdME43nDvb4xzzYWeKT/SBBVYNhQiRKuuRXx20eZ0as7W7N0xCH3Cx4RMa4HqNekXL+jLOTTzlP5bhoLpKbrvHzT/b561/cI+b5OoLw0tFzhtAKzIZtKoljrl+IDajBi7qFps7Dg7tr3Nlblh3PrAY1Q0HKysdcJs54cnrBdcPIwPoujsg+f/3BMj97EMBQvUCVO+bRizz/+rhEX+ckvLlJbCXOUtBFyGWASZtht0wm9ZTExaccZlU8yfuxBtf4q58/5L37G0S/hSDIKufpgEGzQuXsKYWzFzy6mvJpBiKrS9x/sCUnOPJYjRhVAwaNS2qlCw5PjzhKpCmMYtS1e9y9t83/+/kmG141+toVjXSCX/4+yafPMriXN/AsrbEcC7AS9eIQxbxmfTo31+SuPuPy6oJHVxpOShbuvPMOH37yIZsxPyu+byIItw53szHdfILG5WPOzjP85mxAqq1j++42W3e2CLrM+B1GGFYYdDJk0yccHX/BRb5LerDOxLbJL35yh59/tIFfamLvlzh/ccbnnx9TagO+ZazBGFvLAZbCLozaGapJl0ZZhHl+weFlhd9fdBnqQ2zd+wnbd+6xF3OxHf22TIoiaVGLYeaIZvqI372o8m8Hdcz+MIs7W8QXF4gHHHisGoSHereRJXH+BWeJ55yUrJzeRIlvbPPXv7jP/ooPv6qDvlPh9ItnnD47oKINUdUusLgUYW8rQsBrwagRXV2jnn9O7vqEJ+c5DlINTKH7eFd/wv3NZT7YnSdKEpkUlURJP1C28BVii7o2jeSnVBOfkxy6uJwuy7VsdpdiRHxKuee3Pw/C7aCQ1c4jsVl1qOSuyaUSFMsVio0Wje6Yqai+h0i1bEWtFpX5xugNAwajDjftDhqTG3d0l4XoKptRp5ywZlrLMRQFcK7zXFwXuen0GIuSujMtM6xIKhM6UaxGL9RTNZCKNEZ2Kr0gwcgyH76/xdb6gpxqWThMffV1a08XdRjaDWq5KyrZFJnyDelyg+EUJqKKncoEKhtqjR6jcYxaK6oN1hmOe6jMi2gc2/OUsVtB/MYJs1qOViknb/zJbJ7BeF6VTxTdmUomVCL0TFRX1I3QawpMpl0KTRf1oZ+797Z494MdQvZ5qmXD16ZaFrKP5pULa3kauTT5Qp5Evkqh3mYqZ1vQzLHCgkGojo3Cj6LFeFJmMNXTlpYxOZd47/4iD/ZCmPp1dK0y19cZzhPXlG8adEdjBmOJ6cwgF9tSa81ywiC9rolBV6XWUZOtmrC4I9x7uMf25hIB63dJtSyy+rXpljM0ixkuM0UuMkX5ecK3birpmWJFpTaiN2rR6cTRpMx01qA58tAYR1hdW+HDD9ZY9JsxduuMbkokE1dcXaVp9Qe0BkNGU43clqQ2odLY0GklDMYWkiSKOM2od3QsbmyxuX+HeMBD7DbV8tfXYpDLXTJqVRiI5DC5nJwJM1OqMpqKipczJpKZGSa5kqNOrm7ZQasuyOOg1PEhGcLcu7/J/fureDRj7NMutVyGjJg3pQqVVpdGb8RU0r6aNyqNqIY4xmDoy6m5660uapOb4PIekcUN1hacrISccrTJN6ZangyYNEr06wWu0lnOrrLcdLr0xyLqQc0U0c8mdDrRz1oM2ipqTY1q20C+YScYW+bBw13W4n5ZdvOkQ+X6inImSbbWJFttzseLPPZMoBYmF50857XagZwquz/sorOvoHfvsLocZX8tKCfiUlItvz3kQKbSgw6d7Asa18dkJjbShHF4gqyEAwRdVoSSTU6P85ZeionhSxd52QFMEIVJv8akW6SYPuH84HNOTs55kWpynhkwUYdBHya8HGVxPUrQp8Fr6WG1mtHZonJlxljQLbNLzaSPatSjWTrnJn/E6fERj5+ccHJVp9C00p6JMMUNvNEVtld07K5NmU51NBomeRBu7K0Sj/ll/wMRRfG1l2wvE6VvB7J/gfCNyJw/IX36iGdnWZ6cFijWjQymAQyOCJF1YR/2sxgcseCeMFO7GUoBgsEQqysB2YSgmwzl9M3t8gm13AlPn7zg2fMTkoUpmRsDU8MCNv+GnAzn7o6OyIKWVkNDv2civr7IyvaafHp26nXov7FYk5Bd2NW7cuGgZvWKQuKpXDDn8VGKp8d5mn03nbEH18IKCysrLMXMrEVGWE1aGl0nKq2Xza0YaxsLWFQS+tmEYTNNt3ZB6uKI50+ecXh2zWVBkvPxa22L2L0xNjbc7OzYZfl6rRlWu5vo+irheBiP2YhHePN/U7Em2V91IhPLcb8pJ0GqZQ84eHHKo6fnJHNDKm07I00Ad3yTUDzO1pLEilyUy0CzbSUQibC1t0LIb8c0m6EVKv3WNf36FS+ePuHw+VNOUiJ8dUxr5ERlislFn7Z2/ESjdrTSSK5e6V2I4Y+vEHA78bssWPXfXqxJOI+KyIpBK0+jcELu6pDHT494+uyEXMNCoWlB71rCEdpgednJ/qYKt0tDq6FHUjlk083yZhynXotNpPweVBl38vK8OX3+iNOTM16k2yQKU0YE0RgjhFeiLG9E8bnVuAw9bFYzRk8cu3uBqF9kjLTL5EBEm3ztiBd+Q1NRnKxPt56kUznj9OgFz5484yRZI1lWU+vbsXjWcQfj3Nm2sLFuQJqq6TRVuHwhlrbWCIV8uPRarJoZs35VrqJ5dfqI5PEXvDjL8ey8QunGwFAKYnRFiK4vEV/0E/WPCLlGSFovI3WIYDDIyqIPj10p1vS27ZOzUZ9BOUmnmKY8NZPTeOUEbxGvG4/VJGuXhAnqbb0UgvBVPXubzKVRzVJInZG5zpAsdMmUB8xUHtB58YZESWM/HqcOl3mISeS+N7gwmBy47BacNhNaSeS8nzBq5+k3MuSu05yep7nOt7jpGujO7JjdERy+MPEFHctR4RSmodfVYjTb5VK6LrddLvf8KtHRN43E25DN2ahDNX9JLXtBIlPmPF2n3tYwmjnRmX34Igv4hanAPcPrmMmnpNHMht1ux+dzYDXp5RLCTLqM2jm55PPlRZLE5TX52kR2aptqPZidEXxBD2uLBnxeHcM+jIcaXH4P3pAfi0GPRRR1+lrtx2svI8eri/K9ZVrlJMV8mvNkcV7NcWCjN7Fh84Zwh8KEgmaifpEuWC2XxhblqgNBD/6AS47WEIEPs0EV4XlfzqdIXiZIX5fI1SVqHR0aYwCzw09ExDAvWuXsitP+FL3RjDPgx+FyyqWeLcJp41vKPctRBdJY9pYXfSxSQQsHvLOLDPnKiEbfxFjtwuaP4g0EiS2oWfCJA7yWXl+H3eUiuODDbp8X+tHOxjCqMu1XSCUu5OJH1yIXQ3VEb2xBpfdjd/uIxt34A1YMqik61RSLw43V5cVmMctlhw2iCNi3yS5HtUyZDhoMRPhl+Zrz8ysuL6+pdPTUu0a01iBWV5TggqjmqMVhEyRQpCk04A548Qa9mLVzR1T1pAOTJs1yluzVGZlMlmSxK1dzHONCrffiCQYJxQK47WocRjFv9LL2zWB24raZcNhM37lksiBnk16ZSTdPNn1F4iJBOt+keAPNoQmjPYLNFWB50UI0YkS41o56M8xWO+5gALvThkWWXUIlIkPGHcrZC8oZUf2zwmWmQb2jYSy5MFi8+CJhuXpp0D3Fa58iqSyMJbs8b7weGxaTUu75bdsopcmYcbvKqFmnhY6GyorBZMFpNcnrmyAHr0czv23vrxCEr+pROeZ5wnQ0YNDvMhgM5FA3UQdBUulBpZPVrqJin9hctFoJjTjh31Zo1Gs1aGWXcxHxICIVRD2CAYNBn263L6eQHU/VzCRRzdGI1mDAKDLvGcVXVExnKoRtRzxDp5vHdX83kioWfBEGOWE87DEe9Oj1h3QGIyYT8TxRoU8vV3c0GHTodRIGrSiHI0weIpWvFr1hXr1PLYcxzr3vp+MhYqD0egOGI4nhVASa61HrjBhEfnyTmv+fvff8key6zn5/lXOurtRVXZ3zTM8MJzGJomVDF/eFP1jf/d8ZsPxJFzBg+PrihWVLFIOGkzuH6urKOadT4VzsUz0kJUucpt6hODM8BRQIYqrPXudZa+/97LVXMBq1TEQtGVH4zmhUZBfdHgUuV8sNViKDGAvPhdRjMOjR7Q7o9KZuaiG7ziCea8Zk0mI2TlMWx2MRHKTHaBQ6+bqKngiAFJu2NOjR63Tp9Qf0hhpGY1Hb34ROL/RnwGLRKdHHoiGT6JaoF+50g2GatnSlqOTLZkhKnYM+41GPXrdPu9NXUlJHY4GkAZ3RrHSmNJvBrLC9qexiLKMYUz+N9J+mYEowluh1u8q3L43oSSLlTwfaaVdRs0X8nU6xL61GVt5HkVsnsh2mnRNfjvtlDIsIzBqLVN8+nW5P+Q5HWqSx6PxpRvSfEFgJ+xTZDULPwiKnejZcphVOyzLL8nA6b4TcYt4MRoq7XmCg0U7tQnTp1OtRsnj0YnW9nDfC/kSGzEtJ2Ys5K+aWgpWYp8JehJ5HDERm7UR00BSyGxUdm8VRTxCisWhwqr/sMqn7uuS5ku4seld0kUTfk55EZzBkONIo7cC/OW9MBlkJ+JWVXB4hs7A/0bXzj4qIvea7hVoo6eUKEmsgoxHjkcQIDSP0aHUiw0ccfKaZYS+fZy8f53X9hUoQXlfNqHKpCKgIqAh8jwioBOF7BPctebRKEN4SRaqvoSKgIqAi8F0QUAnCd0Hrx/lblSD8OPWuvrWKgIrAjxwBlSD8yA3gCq+vEoQrgKT+REVARUBF4G1DQCUIb5tGX/37qATh1WOqPlFFQEVAReC1R0AlCK+9in5wAVWC8IOrQBVARUBFQEXgr4+AShD++pi/aSOqBOFN05gqr4qAioCKwCtAQCUIrwDEt/wRKkF4yxWsvp6KgIqAisCfQkAlCKpdvAwBlSC8DCH131UEVARUBN5CBFSC8BYq9RW/kkoQXjGg6uNUBFQEVATeBARUgvAmaOmHlVElCD8s/uroKgIqAioCPwgCKkH4QWB/owZVCcIbpS5VWBUBFQEVgVeDgEoQXg2Ob/NTVILwNmtXfTcVARUBFYE/g4BKEFTTeBkCKkF4GULqv6sIqAioCLyFCKgE4S1U6it+JZUgvGJA1cepCKgIqAi8CQioBOFN0NIPK6NKEH5Y/NXRVQRUBFQEfhAE/pggzM7OMj8/z8LCAk6n8weRSR309ULgeyEI//AP/8CdO3fQarWv19uq0qgIqAioCKgIKAg0m01++9vf8rvf/Q5BDqLRKPF4XCEJKkFQjUQg0Ov1+Ld/+zf+6Z/+iWQyyWQyYWNjg3/8x3/k5z//OTqd7qt9XiPLsiz+SPyo3W6Tz+f51a9+xS9/+UvF2ILBILdv3+bv//7vuXXrlkoQVBtTEVARUBF4TRFotVp8+umnfP7550QiEeUbi8UUkuBwOF5TqVWx/poI9Pt9/uM//oN/+Zd/IZ1OK0P/RQShWCxit9sV95QgCUtLS2g0mr/mu6hjqQioCKgIqAhcEQHhPj46OlK+Xq9X+fr9fmZmZrBYLFd8ivqztxmB4XDI48eP+eSTTxQngMlk4vr169/Ng/DP//zPivtBOBgESQiHw7jdbpUgvM2Wo76bioCKwBuNgFj8q9Wq8hWE4MXXarWi1+vf6HdThX81CIzHY0qlEplMRtnPxb7+zjvvfHeCkM1mFaMS1wwrKysKSVA9CK9GSepTVARUBFQEXjUCg8FAcRuLxV9cKYiviD1wuVzKSVH9/HgRuIwmYDQakUgk2NvbQ5IkxQFw8+bN70YQRAxCrVZTXFTC/fCzn/1M+a9KEH68Bqa+uYqAisDrjYCII3v48CGPHj1SDnbiK4IVxddms73ewqvSfe8ICJIgSORvfvMb/vVf/5VCoaDEFW5vb393giCMTXgN7t+/zy9+8Qvu3r2rBil+7ypUB1ARUBFQEfjLEFDrIPxluP2Y/up7SXNUCcKPyYTUd1URUBF4ExFQCcKbqLW/rswqQfjr4q2OpiKgIqAi8FogoBKE10INr7UQKkF4rdWjCqcioCKgIvD9IKAShO8H17fpqSpBeJu0qb6LioCKgIrAFRFQCcIVgfoR/0wlCD9i5auvriKgIvDjRUAlCD9e3V/1zVWCcFWk1N+pCKgIqAi8RQioBOEtUub39CoqQfiegFUfqyKgIqAi8DojoBKE11k7r4dsKkF4PfSgSqEioCKgIvBXRUAlCH9VuN/IwVSC8EaqTRVaRUBFQEXg/wwBlSD8n+H3Y/hrlSD8GLSsvqOKgIqAisAfIaASBNUkXoaAShBehpD67yoCKgIqAm8hAipBeAuV+opfSSUIrxhQ9XEqAioCKgJvAgIqQXgTtPTDyqgShB8Wf3V0FQEVARWBHwQBlSD8ILC/UYOqBOGNUpcqrIqAioCKwKtBQCUIrwbHt/kpKkF4m7WrvpuKgIqAisCfQUAlCKppvAwBlSC8DCH131UEVARUBN5CBFSC8BYq9RW/kkoQXjGg6uNUBFQEVATeBARUgvAmaOmHlVElCD8s/uroKgIqAioCPwgCKkH4QWB/owZVCcIbpWz4V5gAACAASURBVC5VWBUBFQEVgVeDgEoQXg2Ob/NTVILwl2pXHoM8ZigNGPT7jCYg64xodEZMRgNGox4toLnK82WZybjPZNRjMJjQGchodAYsNgtGswkdKN9X85FBniCPRwyHPUbSgOFEjyTrMRiMWCxGDHqdIvfVZB/BuM9oOKDTm9CTwGgxY7ZaMOi06LRaBYdX8xGyy0xGA0bDHtJwRF/SMUaHxWrGajWh1WiuOJ4MkyHyZEC/P6TTHTFBi9FqwWQyoddpMWhfneTi/WV5zGTUZzzs0x/I9CQNeqNxqudLe7nSiLIwtiHj0ZBebyq/1mBCZ7Zg1Osx6Ke4X0l/V1SMPJGQR32GwyHd/gRprMVkMWOymhWcdBrN1caTx8jyiJEk0RfzZiyD3oxGL+aNHpNBf3Xbu4rsstDzAHncp9sf0e1NQK/HZLFiNBqmNqq5ClKX82YyYjjoMRz2lXkzko0YjAbM5u84b64i+/f8G5UgfA2wPBkjT4YMui269RKtdpNGd0J7MBFLzvSjMaDBgNXpxOnzYXfYsJt0WIzfYb38nnX6qh+vEoS/CFEZxgPkSZ9Oo06lXKAnyQyNXvRWF16XHY/Tqiw8V9nYhXGO+2WGnQKlmkS2LKMxOwjFQrh9LswaDaarrGFXeRexuUyGjKUO7UaRTrNCUzLRHDlwuN0EAm4cVhN6uNpGO+rCoEin1SBTkihUJ7iCAXyRIHazEZtBh/5KC/AVhFdkHzHsVek1CzSaXfItEwPZSjDiJxTxYtJqMV7hUYIkMWogS3VK5SbpXAcJE+5QCKfPg8NowGYSC8IVidJLx5wgjwZI3RKDdoVibUy+rsXq8hCKBXA5bYqOBe4v/UyGMGox6DbJF4T8LQxOLxZfAIfNhstqVDbaKxPUlw4oM5FayL0CzWaTdGlMs2/AGw7gD/uxGgxYdFchgjLyeACTPu1GjUqxSGcoI5t96G0evE4bbqfl1RJieQRSlVGvSqHcI13oobE48IaDuF0ubEY95ktC/K0wiAPBi3lTL9JqVmgPLbRlFw6Xk4Dfhd06JfNXInkvxfz7/4FKEL7GeKIcljrUs6ekDj8neXrCQWFIqjpiNFbYARqtHY3GSWR5heWbOywuxYh5LASdxqneX9Ua/f2r/sojqAThylB984eCIHSZDNvUSnmyFxfUuxMkSxiDM0A06CEScCob41UWfMFch600g0aCZKbPwYWMzu5laWuRyNwMNo0GyyvbZMcw7jHsN6kXz6kWc5R6VkoDL/5QgKWFIB6XVdlkr0JuGDaROxc0agX2T/ucZMaEl+aYW1/EYzPjMukxvqqTuFjsxxL9VoFm+YxCsUWiZKElu1hZj7K8EsGqnxKEly7SysZRRu7lOb+osntUp4+V0PICwWgYj82E12J6dQRB8R70GNQvaFfTJHIjTrJaXKEQK9sLBGZcWDRguoo9jvswrNJpVDg9zZO8qGKamcU5O4ff6ybgsmI16RX9vZo1S1YI7LiVpFwss38+ptg2EF2JM7c6h8tsxKHXXcFeBEHowrBFuZAnnbyg0ZOZOGYxuUPKnIn4nV8RhFci+0SCfh6pleEs2WT3tIvO4SW6ukAg5MctZDdOvRYvJQhi3vTqVAsXVAtpKpKT6ngGf9DPQnwGr9OqzPcrzZuXjfdX+HeVIHwN8qjfZNitUUg84/Dz/83RwR4HNSPJtgFkMGg1aLVOtDoXsdVNNu7fYWU1zoLfRth96eV9qRH9FZT6iodQCcJfAqjwOSkEoUEpmyVxckalJSPZZjF5wizEvMxH3BiuShDGElLzgl71mMNEj0eHMgbXDNt3lllYDmHXaLC+KnoqTkLjLlK3TilzQimXIdeyk+vNEI4G2dwIE/DZrkwQxAlcbieolnJ8udtj93TM/NYCK7dWmHFa8QqCoHvpdn01LUxGitemV89Ry5+QztbZT9toTlxcuznPtetRxWMhNtmXjigIwqCI3M1ycFzi9w+rdLU24tsrRBejBBxmZuyviiBM3dMTqUu3dkazlOTgfMizhB5/NMz1eytEZz1YuSpB6CFLFVrVEs+fZzg6qmCbjeJZWCIccBPx2bCbDcpm9WrWLJlxr8SocUouW+Th/pBcw8TCtUXWdubxWMy4BEF46WDCa9NBHrbIpzOcHp1TbU+Q3XOYfBEWZ93Ewi5F7lcmuyAIvQyDRordoxoPnnUwuvws7KwSjc3gsxlxXXqKvp0gCHIq5k2NYuqMQuaCYt9FSQoSigZZXwsx4/kOxPpqFv+9/kolCC/glRn2akjtErmTIw6/eEA6U6YTWGTsncVp0uEyaNBrjaAx4/L58c+G8fo8uK16HCY94vz2UvP/XrX5/TxcJQh/EtfppZMsy8gTcQclK9/Ji7sosfBOBEFoUUinOT04odyUGdjnsHgjrC74WZzzYNJeehDE3zNBnohnTJ/14l5Lo9Eqd1/D5rlCEHaPunz2HIyeAO+8v8bqZgSHBmzfiSBcjnEpuxhTsGAhvoYxmklfIQjF1AmFTIpU3U6mFyAWj3BzZ5bgjE3ZZHXKHwnZZSaTF3K/kF2DRsyKYR26Z1TyWX73sMfjoxHLN1bYfneVkMuG12LA/B0Igqzcr7/AW+AvRp9+NMr9tUS3lqWePSKZbvD03Ep97OX2vQXeuTuHXa/DrBEE4VJ2RW8vdKg8GjGbxbM0UlHZPHb3ivzmswpdjZ2VWxvE12KEXWaCTvN38iD8gewCe8WGLmUXGA679Kqniufm2fGIR0c6gvNR7ny0xnzcqxAE89TyprEWf2B/U/0prs5JD4YVmpUSjx9leL5bwjkXJ7C6TDTsJRqw47R8F4LwR1gpur4c7zK2YNwvMm6ekEkV+ezJiFTNxPqtJbbvLuOzmvAYviYI35w337Q98URF9lGTbDLD4e4pldYE2TuPbSbKctzLYsz9HQnCC6ym8+sP5qmQfSKhHQjvXJrHz2v87kEbozfA+t014gtBZmwm3JbLq6RvzNPpc74xT5V502PQqVFInpK9OCff81CQwkTjIa5vhwn5bRguyc33s1y/2qeqBOFyriEz6JTpNXJkj5McfHFEuTHCffsenq0tQg4DQSPKgU+sLHq9Dr3BqPxXp3gW3kZqMLU1lSD8qTmnbFITRiOJkdRHkiSk0YThSCz605tdnXaEVpaoFnIkT86otWFgi2H1RVld9LGkEATQK4v8kPFYYigCswbiv2NEbNZE1qLVGRAeeLmXYdJKsH8y4IvdCUZPkNsfrLG2OYtDe1WC8GKhHyuBcCIAsT8cIUkTxgo5EZu6jF43UTarei5BpZAh03CQ6QaIzUe4dWOW0AuCIE69E4mJ8HD0BwwGQ4ZjWflqNDolkFIndzCO0jQrBT571OfJ4ZjVm8tce3+NoMuOz6K/IkG4PGWLeAwh+1CiL40YSGMmQh1iamo16HQapHaRTumUTLbN06SVxsjLnfsL3L73DYKgXEcMGQ4lBoMBkjRCGsuMJ6DR6pT7QoPcwDAqsH9U4dPPaww0dpZvr7OwNkfY/V0IwlR2oWN5JDGQhkiDAcORPA1eRYtOb0Aji6ukC7rVFHunIx4e6QgtxLj/028SBGEYUyIkniENJKThWJF9SjaE7EOMdOg0qzx7muNgv4IrPkdgdYVYxEvsuxAEZRMcKzoW8kt9gZek3LuOFNAN6ISNjmtoe+fkcxW+eDoiXTWzeXuJa4Ig2C4JAuJlx4xHU1tX5s1wwnD8Yt6I4EkJPUNK2RynB2fUujJ4F7AFoqx+Z4Ig5tZIkf1rPY8V2cX8Evap10wwjovIvRzP9hp89rCD0Rdg4+4a84shAi8IgiCMssxIsT0x50UA7ISRciqYHg/12hETqUM1m6CUTVPsecgPQ8Ti4T8gCIIkvAkflSC8IAgT5dqyV7sgdZjl+Wd5am0t0Y/vEHlnjaDNiF8HeoUHTA9GWhEELAio9orBuW+CQfwJGVWC8AegTI9NYlNUFvpeh06nQbfbo9sf0hvIyBqtWHkwGrQYDTLNSplcMkWzr2Fkj2P3f00QjEzQK5kOHYb9Ft1Ol2a7S68nIY01jGUdWpMVg96IYVxAN0hxfD7i4b4GiyfInZ+sfweCcEkOxIY+kuiJaNxOk05Xot0V4wlCIgxbh8kkAtiGdCoXtKpFci0n2X6I+UuCEPYLV+kErdhgheyDNu1mh3a7R08aMxiBrDWgN1gx6gfYNAV6zSoPnkrsnsisvbPC9XfXCHmuShCmnhoRBDaSevR7TXrdDq3OQJF9NNEosossC4PJyGRQZ9hIUij22E3ZaU583Lu/wB2FIGgxC5/HsMdYElh3aLdadLp9ekMZaaSZbhx6PRZdB4u+zslJkwcPGwx1DtbubLD4nQjCdJNSskIGbQb9Np1OV8GqPxAbO0w0egwmK3qxmAyySO0cR+cyz04MhJemBGEh7sUmg1Fs1sOuQpLa7ZbyFdH3vYEgeVo0Oj16HViMElKvzcFekZOTGt74POH1VaIRL3NXJAiKx2MyYTIeKLL3e23aransQsdCdo3BrOjZoGlhnmSolho82JUpNCxs3llmRyEIRtziNCUPlSwNZd4IubvdqeyS8ALpQNieUYPRCLViifTpdN7o/As4AjFW4l6W5q7oQVC8QhNFx6Nhl067TbvdoduT6A9lhhNx0jOh02ux62voxhX2jzo8eNzHMhNk694a8wshgnYjLrNOIZMo86ZJt9NQ5k23N1JwENktWp0Wo5g3kwGtcppGKUe576U0jjAXD7Nz7WsPgkoQ3qTdcILQcK+RoV0+I3lQ5PEnTeo9Eys/v87CvSV8FiMerchq0qDVXBIDwRlfVVzYawyXShC+Us70FCgWin63Qa9ZoV6rUCoXqdVbtPvT9ENZo0ej1WO2TlMCe52WstgNJmYM3hU84Tgbiz5WYi50ww4aqUOjWqRSKVCtNag12rS7QwZjLWMM6M0uTGYzFm0dk6ZIqqDn4NyCOxjl3Z9ssLl1BQ+C4g8WQXAiSr5Br12jXC5SKhapd/q0OiMGY7HJatGKVEaRVmfQIHWK9DsNmkM/9UmcpcUot2/OEvYZMYqFt9ekLuSuFqnWWtSabboDmf5QCzoTepMdq3mM09xgOOiwd6IjkTazfXeVWx9sEPHY8Ztf4kG4XOgnA0GimrTqFcrlApVqlXp7QKMzZDwRFyM6DGYrFqsNrdxFHogshjGJ0gwjQ4j795e4fy+KXTPGPBbZJRUaVYF5lWq1QaPVoy0yTSY6NHoTBqMJm1nCYe2Tzgx4fiChs/q4dnebtY04YbeFkPMlMQhKCt2I0aClYCV0XBH20mhRb07T6gYTnUKmTFY3JpMBvVxRrgcuCmZOMw7iq/N88NM1luJubGMJ3aBDq16iWS9TrVSp1Go0e2O6A3Gi14FIozXpcdimxCSRaJJO9wkvLxPf3mB+1qcQBNcVrhiEvchSm26rTrWSp1opU2+0qDW69EZapImwFytGiwOLYYDVUKbd6rN3aqYxcHND6Pn+MjM2PW6dCC+o022WlXlTLpeVedMaTGVX5o3OgNlixGYz0G62KeZKDGUzttAKvtlF1uIelq9CEJQMlL5CDhr10tRGa3Uq9QatzpDeUKNgpTfYlFRGh62NWdcmcSGzeyzjCUe58d4Gy8KDYBX3yzJSu86gU6VUKipzp96WaHVH9EcahdxoDQasYt7ood8q0WtX6RKmrZtncWGWG9fChC+vGFSC8BrveP9DNJGuPqFTOadZOOB0P8enn3coNfWsvL/C/E4Uj9WCy2jCarVis1oxG/UYdDrFo/n2Xi6oVwx/aCoKORCn7z7NcpZK/pxcJs1FJkuhXKc1gK4kFjqjkrNttVmxOi1KLnqr2UJjdOEKbxGcW2J7wcdqzIGmU2LSLJJKnZNIJCiUKlQaHZriZDLWM9GYMFg9mKw2bOYONmOdUtPBRWmG0Gycjz7e5NpW9OVXDErgocSo16ZZSdMopjlPpThLpqi1B8oGIwjJBD06oxm704nJYkAeNRmNegx1MUamFdZX5rh3c5aIS4u2W6ZXzZM8PyOZOqdUbVGuC4IAvZHYZC0YLE5sVi1uRxuZEedZJ7m6l9t313n3oy1mvS8jCGKTE0fsEYNWmV4tSzGX4uT8nHSuQL0zUgjCSNYzQYfJ5sBqd2LUj9BSpy8ZKXRj6G1xfvLuEu/encUx6WAeNMhnkqTEXXG+QKFco9ro0hGb3tiAzmBBbzLjdMg4nWNKVS2nKQN2d5jb715na3uB2ZcShMsrkWGPQbNIr5rj/OKcs/OEglWt1aczmCi58rLOjNnuUWpDmA1NdNou5aaLbCPE2sYiP/3pBisxB1apjdyqkEudkblIkCuVyZcqNHsTOpIgSVPbM1tMOF16tDoNucKYchUWNjZY27nOUsxH/EoEQQQeNhi1SlSKGc7Pz0hl0pRrbSqNtmKfg4lBIYFGqwurdYzT0qQvaUgW3EiaEHfub3D/vRVmzDJuzYh2OUM5K+ZNiotcnmKlTqsPvaEWWWtEqzNisVtwOC30pSH1ehut0U1gfptIfIX1uIfVqxCE8RC5X2fYrpBJn5NMnpErlilWGtQFQRjppvUJTDaFfLudfSyWIbmKkUTaRmhugXsfbrG2FCRo0eBkQLN0QaOQ4jyVJplJU22KeSNP541Gj95oxua0KwRnLDUUr4VsXkC2r7G2FOPWtTARlSC8ScxgKquSvjqiUzqmnnrG7n6GX3/ZIl2Dxc0wc8tBnHY7TqsTr8+Lf8aPw27BajRg+i71Yt48ZNQYhEsLmdrJZKQsmMNOjXwqzcXpOcVag/pwRG8saquIoBTD9O5dFIbRSmi1knLiShdqjPRefPEdIvMrXF9wshox08sk6VwkSBZqnJYb9IYj9CI/XadX7na1Wr3i6tZoZUaDIsOeiAdwclaLEJpb4m8/3uTmdgznn41BuAymFKepQYturUw+cU4umaTQGVAQjEanw2AwKWOKgEhxZ6bXjZhM+tTqRRrNDpJpgZFjk+3VGO/dDBEw9hlmktSyGU7yVc7LdeWdxbPEKVDIrVXupkUxni6Ms7S7XY5ybi7qAe6/u8lHH18j6rUz82c9COLuW5wERf6xiIdIU0mckSuUSTa7VPtDDAaDIvtUbh16nYhBmDDo12k1C9S7egrSMjrXIn/z3jwf3A5jquegkOYiW+AoU6Le7TPRaJiIgk1aoxILoNwfamW0cgPNpEKyqGEvacLiifHuhzvsXF8m6jIT/hYPwrSwSg+p06SRSlBOJTkvNUhUWkzQKHpW4g6Uk7NOCWjSMKLfy9PtVsm1vKRaMda3lvn5x6ssB03o63kGxRzHiSyn6TySoF3CS6F7IbewlWkMgk7TotfrcpwacVHSsLy9zbU7N1iOzrD4UoIg7oiGdMt5moKIZLOcFhvkGm104qpAN/VUCB1rxUlJr0OeNJgMstRaQ05KATq6CB+8t8kH7y3iY4Bj0KCQznB+dkGp1qA1GjOQZXR6oxLDMJ03Qn9DtJoB1Xqbi1yTicFNaPkmsaUNtuIe1r+VIAh7HzEedOgXMjSzKRK5Eie5Mt3RGFm4fHXCNgUZEfNMBE6K2IISY6lComBiL+tiNr7IBz+9xsaSH7+2j2XQJHd2RjaRpNSTqAyGU1Kgv3yOVsiOMm/G4y61Wplao4lsWwbvDlsrc9y9FmZWJQhv3jZ4SRDaxRNq6WccHmf45HmbdGVMcNaBLyC8pMJrZ8buCWD3RZjxeQl5nbhsZkw67fTq8M178ytJrF4xKOFvorJgn36tQLec4vQoy95eltbYgCkSwxkMMut3EPJY0WonSrBZv5WlXbvgNJnlyWGBluzGu/gOs8ur3Jg3sxrQUH66R/bhc9J9I0nZhd3vZ3k+RHjGhVVsnHqYSE0G3TL59AGZ812Oynae12IE4qv8r59tclshCJo/k8UwlX0s7r7FhplLc/LkhLODDH1PCMkfJRLyEQ+7cYriR1qRntlRZK+VUxyfnHGWLtM2LzP03uDa+iwf3fTilWpUHj8jd5bmpGchM7YSj4eZiwXwumw4rUZ0mqFSB6JTS1NKP1E8LQ8zPg4aId5/b5u/+5vrxLwOhSCIIjr/8yMIwohxv47UKZM9PCPxcJ9cbUjVGWLiCbIU9bEQ9mAy6BTX7qhfReoUyGUSnJ4ekSxDerKBxrvMz9+b46e3fIwTR3T2n3NSHLBf1YDdzWw8QjDkxee04LQalMp6Y6lFs3RMLbvPk3OJ356aMLhj/OSjW9zaWWXOZSbyrQRhwGTYpFPNk3qyx8XzEzITBymdl3B4hpV4gBmPDYtJj0EzYtiv0WvlyZzvKx6Zk7qfo84CW9eW+F8fL7PklhmdH1FLpnia7HBYGBCYmyUQixDwOQm4rZgNWsX2pG6ZdvmQbCbN54d9nl5MWL6+w879d1iLBVgO2JXI/D+dKihspoc86VA9OyPz8BkX6SqJkYOGwcnifJj5uQAOqxGb2YBmLAhcg3opQTH5jNNsgyelMDV9jJ++v85P313E1a9gqmZInObZOyzSnhiVtEt3KEDI52DGbZnanqha2crSqSU5Ps/z8KBMU3Yzu3Gb+bVtrs152PxWgiAq1vSR2lXKe/vk9/Y5rcNhy4gz4Cc6FyE448LtMGMzaZGHXQX3Wm6XQuaQxxc6vki5CceX+PhvrrM578IzqqKrFzl6kuD4eRI5GIVAlGDQRzTowmkzYtCK8Jg2g1aaainF0ck5x8kCQ8c6cug219bmeW87TEwlCFfadF6rHyne1zGtcoJGbo+z8xxPjjtkKgMsNjCZRdzWSKStgTUEjhizs7OsL8wSmXHjMOqU1Opp+OLb91EJgpJSJoKrujTzFzQyp5ycVtk9bjO2eAhvrhFZmCM2YyciCII4kUwGdBsZWpVTjk8uePA8TW1gxRbbITgXZ2tOy7JP4vyLQ44/2adhDdAKzBOKRtlaCjEX8mAz6TDpx4wHDfrtItnkLqmTJ+xmjTzKzeAJz/O3H61wfW0GXbeFpt+hOxgrkdXTwGotepMJk9WOnj7aTo5WPsvh0xynR1VsS2s4NjaYj86wFHbjshkwaEWqXZtuQxR6SXBwcKKcVquaOTq2TTZWfby/Y8faKpH8ZJf0WYmyI0LHGWF9JcraUoQZtxWXVWQvSIylJq1qkuL5Q+U647MzG8+KHu7dWeMnH20wYwbnpMdEkmj1xwyGIiBomkVgMNvQm40YJy30wxLZvRT7v09QHxrRLm7gWJxnI+pjedaLyaDBpINhr0S/mSVzccLR4R6nuSGn3QXG9jl+dj/E+zecNJ/vk/viKZmBmYzGiz00y+panPnYDH6nCZdFr5BBgXutcEg1/YwvD1v8ehcmthD337/Ota05AvohXsOQlgjy7AmPy9RbMy1pbFdksmibjJpFTh8ccfY0TccbpR9eYjEeZnMhSNArro506JEY9sq0a1kuzp6TODtmr+BgrxphZSPOzz+OM2sZ0t7boyhIWd3IedfE0voii2sLzM44CXksWEQYtSwxaBdpFPaVa4jfPmvw5cmA+Pomm7d3mA9YiTlkJdhRBHgO+sOv7EVrNGMQrnLLCLupT/kkycmnu+TKEg1PDAIxtpYjrC2GcVr12AWDHYnYkBq1winZs0ccJ8v8PiWC8wK8d3+Z9+7NYWnkIJsgcdHgINFnbPUyu7nK7EKMWZ+doFuQUxEQKWpYpGmVTzg4SfPF0xw1yYZv6QaRhRXWQnpWAnq6nT6dtsikmGawoNWjMRiVIEG7VUYjtcg/3if95Jg8TormEOH4LGurc8yGPPgcRmxGzXRT71SpZJ6Su9jjwfGIT44t+GfneP+jTVZmbdi7WcaVHHtPS+zvlfFtbODdWGdu1s9C0IXbZkQn5o3UpFdPUi6cs3dwwsFxiq55ib77Gpsrce5dCxNVCcKbt0OKGKjJmG4jR6t8TqFYJZkfUGkO0enGCjkYT1pKaffmwEC9b8EXirO8vkYsEiTotOCzGpSsKJUgiORgcWadTGi32+TzeX71q1/xy1/+Uvn/cDjM/fv3+cUvfsHdu3cVV+5r/1FSGkVKYJtq+oxi4ohkfsJZyYTZG2Tl+gJz8SAeiwGnWVRcu0zlGtSU3Nn0RZr9vQTlthbcizj8M6yEB0SdHXa/yPH4kyzWeBzv9XUi0SBxv50ZuxmDTjBTUVlOpFKK2IFT6vkDdk9HfHlgwOzycfd+lPiskUZK3I+dk672ydUkxD4rotltvhC+6DI+pxE/JTTtKkdHEsmMzPzOKst31wkKN7/dhMUw7VEgeg+M+jU6IjYicUI6lSXf8VAczTI/Z+X2lg65WePpf5+TTfWwraxgX15iMewmHnBhtxgwiZMsY+SxOM2W6NaOyGUzfP5kzLNTDes7c9y4O495UEAuJSgUK5zlu5SakmIOOqMFR3gRVzBK2CYRMtconjXZfdJgYvEwd3eT6OY8EYeJoN2EcECIHgvysMNIalItXZC7OCKZabOX8dBFkBIvN69ZSH15xtFvDxja/RBdZCYaYWnOp3htLEYtZr04hY+UWBOpk6FXP+PZXpXf/L7FQONg4/YK8XkXlk4KQyvDUbrJSbbFYChOrxpMrgDmwCIzPifzni62cYvjJ2USR008aysEbm4RDbiIea3TQEHF/ThRqihKvRrVwjGF7Dm7CXiasBBdCPLeh7N4DH1yjw8oXZRomkN0rEGWlsIszwfxOMw4TFNXpvAYic1KamcoFbJ8+bjAk/0G/vk40fVV/OYOnkmOZrXMcbJKttxRUlzFlYHRHcbuDTIXNrMUhtpFlaPPM7QkI67NdXxL8ywEncRnHEo/B2Gj4n5WZDmIk3+zdEDyoswXe1ryTQvX3pnj+q0Qk1KafvKUXAVSTasyb1a34sTiQdxmvVKvXquZBtKOB1WkbpFkIsuz50kqbS2m4DJOf4CYtUbIUuPkvMRpskRLBPOKXEujDYPdi8fnYT7uwm3SkHuaIrObRRuaxbS4kkgtAgAAIABJREFUzGwsyNKsF79LxHnoMOo0TCbCy9Wh3zxTTogPd9t8+ljC6vezc3+Z2YABfT1Jv1Tg8FTmJDlh+Z1VpchX0OdQsjMsiq0L2PuKB0uUJ0+enZI8T1EdzlBljgU1SPG1X+b/rICXdV6kXpN+r06vO6Dd0yINxW3VBK1GYjSs0+9WuDhPc3qYQuuM4l6+SyS+wHLQwazXoqRAvrxQ2JsHk+pBUBhkl1G/QTF5SubkkEzdSLYXwBWIsHMjxlzcqxTf+bofgnCX9piMWhQyGRIHCcr1EQNTGIPdyXygRcje4MsvGnz+WYPw1jJrP7lGbNZL0KLHeemSemEuohGO1E7TaybY32/z4OEQncXG9u0ggQCUTp5RPN3nrNDnvNxjOBbWaMAdjOFf2ibssRHWFdD3WhwnTaQqNnbuLfPOh2t47EbsInzgK3orqhEOkHoNShlRES5Dpmwm23ARiei4tjahW2/yxX8VyBZk5u9sM3dzjajbQthlwqSfkr4Xj5uMm9C/oFLM8/kXTZ496zO/GWLlnSiaZhIps0sqnWc31SFXGyh/qzfbcMXW8caWiTsl4tYahcyQZ7syJneQmz/bZvV6DJcWnN+sWytqG0wGdBp5asVTUhcNnh3raXbN3HjHwfqGicMHKR7/1xmWcBT/tU1m42Hmgw5mXGZlEn9FWcWzRhVkKcfe8xKf/aZIZ2QkvjNHIGJFVz9GLp/wJFFj97xGTxKsTIPZHcE6u0kk5GF9podT0+HgeZ/TszFLdzfY/sl15SrKb9Rg/uaKIWpKjLp0GknqpQv2Dvo82Z0wE3Vz870QZl2X8wfHFNM1NKFl9KFFVuIeFqNTb5PhD2Tvw6hKo1ri6Zdpdp+XcIQjeBfjOLRl7FKCYi7Lk6MSyXxTIQiy1oTZH8MRmGM1Zla8XNVMl2e/rzHSulh69xrz24uEHUalMMwfnoZkxoMKw44gjUW++H2fbAmWdsKs7PgZ5FM0T48pd62UJ2FcwTDbWxHisWktECH79Hli3nSRRy2yqSzHzxNU6iNkdxSjzUnQlMOnyfP0KMuzkxz1Vp/+EDQmBwZXkJnQDOuLHmXjvnheJHVYxb+0xOztbWVuzfltCin7g9OcPIRhlkEry9OnFT77tI7R6WT5nTg+L8iVBN1SiaOMnUTRzs13l7hxdxGv04xNxB28AEIU6Zp0kXp1CqkEuVSKQtNOoeNjdi7E5rUwAdWD8ObtgJcF8SYiBk0EqU9EnYNpzIxOJ+q9iNTrOr1WkZMnD3j+6Sc09GHGcx/gn19nJ+5lOeTEKNZYkQH/RiLw54VWCcLlxB/1GkqFtMzpEdmWhdwghDso8punC52o72/8SvviNNRnMu4opZaTR0mqtSF9QwCD1UbM38Rvq/Ploy6f/75LbGuRrQ82lBx1cSdvu9xkvyYIQ6S+WMRSHO63ePygh9biYOPeHKE5C8Nyjl61oLi9qu3RtAiMVofZ7sLhDWDWjzC0L+jVaxymbaRqDm7cWeTu+0u4rQYswni/sgGR1iMK8DSpZJPKRpItGcmX7YTCGjZWx7QbbT77bYVcWcOyqAtwY1UJ2As6TUrZ5G9OAnnSRh6J/PgCjz6rs/u0S2wzytLteSw00XWKNBst8vUBzc7o0k1vxOoKYHF6sGuq2IdZzi+GPDrQYnaHuPvxGmvbs0oFSesfOKHEIj2g1ypRLyfIpBrs7WlptfVs37KxtGFi/2GWR5+ksIdnCV/bIBoPKoWD/I4/bqQjoperyKMSR88LPPjvAt2hiejOPIE5N7ZJFdOwRrbSI1/tKUWyRN6zzuLC5ArhsGrx6QvI3SpPnw05TMDqnTV2Ptok6LLg1muUSppff6ZehF4rTb2a4Wi/y/MnQ3wRJ9vvz2DQDjh7dEop3UQfWcQUWWQ56mZh1oXVKK4pvkluRN5gnWatzN6XGQ6fFbGGwrgX43hs4mpk2sgpU25Tbw6mVTC1egxWLya7k4CjT9DWJJVo8fsHbQYaF+si7W97nhmbkRnrnyAIwxqjfop8usyjz9vk8hPmd0IsXPPRzaeon55QHdipMas0vNreDBGfFeXGv1k2WcybafxDPpXlbC9JtT5EtkcwOj1E3AMCzgF5ETBZatEfjBgK74fehN7swGY3EnRP0I0G7D0ucbjXILCyQPydTWJhD1GvFaflj7pBCoIwKSB1C+w+rvDl7yoY7A7mb8XweGTGlXM65TInBSeJipt37s5z804cj8OkHAq+7qUi5k0fSRwkMkmKmQzFmpViw00oHmBtO8yMShDe2O1ReMWVoOlpSTblO3WAiyJifYb9Bunnv+P0s38nO/KR997HNbvGneUQG4II60Tw99sXrKgShMveBMKDkLsQHoRjcm0rBSmIKxDmuiAIUfefJgiTNqVsnoujC4UgDHQzGKxWYjMNvApB6PP5wx5zmwtsf7Cu3I/6TQZsIurpGx9RaVHq5+h30hzvtXj6oIPO6mb9/SWiK36MUh+D1FfcraI6nzBjZbMSEbR6LaNujXbxlFK+rPQmuKg7uXF7nrvvLuCxGjH/OYKQTykEIV80kC/bCAU0bKyNaTTbfPa7GrmKhpV31lm+sUTIaSHgMCntcb8pvTxpMZnkqBeLCkE4eNIldi3Owp0l3DYdDq2EZjymJyrqibKCSgyCkNugRIaPWxmk2hlHCYkv93VKiel7H62xvh3GhuhB8U2kpt6PbrtMo5Ikc9HgaBeabR2bN+wsbZrYe5zj4e8yOCIRItvrROcCRP2XBOGbp3BEJH+NybjMyfMiX/5Xgf7IxOzOIqGlIF6LjMssM5Am9JVqjuI0MS2ypDWY0Y47SmXBZinHg2cSu6da1m4vc+PDdQIuCy699hsEQSm6zHjUo9vJ0KpmOdrrsv9YwhtxsvneDAZdn9NHZxSzLQyRRczhBZaiLhbCTqXjoDjJfs1PhSemTqtWUQjC8SVBcC3GCfgtBF2i/4WQfaRUYZx+xHHYoLSBNssljEPRg6LO7z7v0BNXK/fXWRKxF1Yjftu0H+bX9EZmLAiClCGfLvHkM3G9OGHuWpD5bR/dYora2Sl1yU5VM4snGGJ7PcicIAjCY/SV7NPrPEEQCukcif3pvJHtYUwuH7GIlWjIzGAwQhKZBEr1z6m9iOwEvUbCLFfp1Ms8eFDiybM6geUFFm6tEw17mPVYlBLTf9iBUxCEIoNekf3HZR59UkFvmxIEl3vCpJqgXa5wUnKTqLl553acW7fn8NpNyoHgjwnCoN+knL2gmM1Sqpkp1VwE4wFWt8P4VYLwxhEEpcjZZKwUYhvL0yJISot6cTWoTIDLKqnDLoXd/yT9xf/Dac/Fkek25tA6H27Oci0+o3hWxZXc21Y7SSUIL2IQ+k1K6VPyZ0ekCnBRdWCbCbFxY4G5hSAOo0Y5+U9tZqw0nBF3kpmLNIf7Z5SaMHbEsXh8LIe6zLpaPP20wMPf5HGvLhO5e53ZmJ85twWvOKGJzUrEnIlKdmLjqJ3RKh3y7FiUWtYopZbvfbjK6noI63iESdzfji97IlxOQ7HBigAqqVOlVThRFt29gzHnWR0rd9bYen9TiSD3mHRfubs1ouzzqEWvVSabFLX1U2RETn4/yHzMzDubOoa1Go//M0EmPcC3s4Vva435gJO5GRtW0b75Mq1HKdE7qCA1TijkMnz6aKA0mlq/tczOe2vMOEQJXrHIyoyE7JeNCV6UKBXsfNjM0KslONqr8ehBC9nuZ+3DHeavxwmY9fjM07LIAi8luHDYpVnJUEwfcp5q8ezCTmvk5N4dFzvbFhK/P2X/14fIvgjm5TWC8QhLsx5CPpvC8gXBEYVRxLWOKL8rtZI82yvzX5+Jbo4O1u+ss7gWJWjX47fpGI9Eeeave8ILz40olCWP2si9C+qFDI8/L7H3vE1wZ4O5964TmXEyazdgNwrZL2MQRJXIfotm+Zhy7pxnJ2MeHRuIzM/w7odhnLoe6YcHFJJleq44kjvG6tIMK/MzSvtmEaA4vbGQlbEnvQIV0SDryxxP9qp44nHCa6tEQy5iPhM2o5bJWFRJ/KqThbLRKpmAcgXdKM/Jsyxf/DpNQzITuLVNaGuJuNdGzGtRWpUri+RlENewI7xYRyQvinz2dEK6ZmTrVpStm0HGxRSds2OKdQOZrhtHIMz6tTjxOb8ih1UvMHhRN6LJpF9V7nOfiyuGlqikOK9cfYhaEEuzdiYiZVGUNVfuhy97Z4hFGwmdIAjVIk9/e8bzB2lMsQXsW5vMxWZYCLvwiY1dpMMqahZ67jPunCuFcB4+b/DJlz1MXh/bdxcJz+jQVRPTGIQzPScpHVv319m4t6JkoLiMWsVmprBLSu+VXrNM+vyU1Pk5xb7vspJiRKmkqBZKetP4gcygLtafFOWekaLkVDxV0RmHcsU0rZwoMtzaSP0KyQefcPjrfyc7CVAKfoBzfoP7ayG25rxKlpVCEN40CF4ir0oQlKBDEZHfppY9o3R+SCLZ5zgJBneQpdtrzC1F8NkMSsCVWOhEkJvoLy+18iTOkjx9fkKxq0cT2MQVibAVG7Po7nL43yc8/48jNPFljDs7ROIhVoMOQi4Tep2opSCCFIdKJT6RYlNLPuFhEv47YccamOPvPt7ghtKsSYP1T1qeOB2OkDoVmoVT8ucpdh/VOD3uK/eyc+/fIOxzEHEYFDe1Eig2Hiiyi4j68+M9zhMXpKUgGf0ya0tuPtwxo68UOfyPZ6TPGrCyhXZ5nbWYh+VZtxKkqAT6CdyUNtU5uvmnZC4u+M99HZ9dmHnn7jrvf7hFVNzFi3ROrdI66Zs+k+lGNxGtm3N0a0lOHqV58ps0Pb2LmfdvE9peYd5lIuoS+fjTzVFEpY8GDSq5BJmTZxxnujyqhGgZQ/zsvp/3r1spfL5L4n8/omkJ0o6s4ItHWVucIRacuupFO2ilcZYIGqydMSgd8sVBnX9/2KNv8nH7/jW2txeIOk3KtYoQ/H9Cr2E8bjPuZajmUjz/rzMOHuQwbWxifecW8YiHFb8Vj0Wv9I4QWInSz1KnRiX1nFzykIcpI59lPcyvRPi/Pp4jZOhS+vIphZM8eX2IiinA2mqUtZWwkp7pMOswvghSFEWCGknyuQt++6jI7w8ahFZWWdy5xtKsj8UZG26z4bJryB+vAMLea8jjEucPT3ny/+5RbGjQbV/HvrLMWsTNctipbLLCRpFFGWmJXvWcVuYJp8kCvz62cNFzcffeAvdvz6IrpRgmj0jnxpwVDBhFcO+NFWJLoWlw72WQokjRHHWrDNs5Tk4u+PJpgmJPjzW6pcSjbMXdbM25EBmRf7pVtYSGOu1yjsNfP+XgkyN6M3MMFsRVUpi1uJ+gx4LVoMegn9Y2mUhtBuU9GrlDPj3o8f89B0cwwv0PV1kMmTA3LhgWc+w/a3O032Ph3evM3d0mHHAStIl5o53OG1FrpFelWc1ydrTP6ekZRWKULausLsa4r2YxvHlboyzTSj+imfySk4aZ/VYIkzPIzkqA+ZBLCVA1iBiEYVmJYTn89Pc8/o/fUjfGGK19jH9lmzvLoiiemC+iV4cag/D2ZTEoW5coU9yjW8nSKl6QOClweFSlr7Fgj0/zuYNuG36n+TIae8SwI/oPZDlPZXh+mKU5ceCYu0FofolrcwaW/RNyjw5JfbFPSeugZJvBOeNjYdZHyOvAbNQhYhUnYxEgWaeSO6R4sctB0cKTsshOWOLnH29xa/PbKilO64iL6xFRhbAiChs9veDsqIgmGEUXnSM04ybid+AQm5XYYMZioyrQrGVJJE5Jpos09HE6rmtsrQb54LoHR69K4cFzsmc5cnoPVaOHuaifWMSPy27GZtajU7pTduk3c9Szz8jkcjy4cLBb9XH/3jYf/fQaUY+NgPnPdXOclgoe9SpK2l56/5zjByeUOjKDYBRDIMR80EVsxqlcowh2LirYSb0ypXySVOKQZHlCQlpi4lzgb9+N8MGOh/7hEbXHz0m3NZwPLeidHmbngoRmPDhFwKZJ7BxC32161TOlvOrT8z6/PdKjdUZ49/0b7FxfIuq0fGsdBHEvOZGqtMp5zh8ecv7snKrFS80VVHLolyJePE4zZlEwibFSd6HfKVEQ9S7SCY4qbg6as6xsLvJ//3SROfuE/skhtfM0h+Ux53UIzYUJxYL43Xa8DjMmJc1xrHiuurUEhXyaLw47PE8Omd/cYuv2rWmhpJlvq4MgCEIXedKkeJQg8fkumUKLotnHwOFjPuonPuvDYtQrXxEUKoIrRTqrKCSTyNV5lPdTQdS7WOX9OwvYOyX0pQsuklWOzhr0dBbcc1E8oRlmXFY89mkNDuG9ErEA/UaW04ucUj+kOXbgX7nB7NIm23MeNr61m+NQqeEwaJbJiTTHZ4ekJSMpnLgCPmLRADNeJ06LEYtIcxwPGA+atEr7VHLHPEnC50k7M7E47/9km7WYHfegDLUSR88ynOzlMcXmMMZiBGbchL12Zd4ovEy0ehbzpppTyMFZKkfPsozk22FzOc79bTXN8Q1kCHRzz2lnn3GU7vM0pWNicCpNvMJBN3aTBpNGYtDK0ammOTnMsvcsi9Y3j3/nfWLLy6zPCs+qdZrF8AYk7X1XHakeBAUxsdmNGHdrDNslkkdnHOweUaz36RhdYHMT8ruY8TrQa2SlIt6gm6fTSJMqVDlMNRgaZois3mFheV05Ba2GjHTOj2id7bOfavI000M224jMhvD53diUk7jIImsz7FcpFRNk86dk2z7SvQWiC2v83Udb3NyMfUup5ReVFHuMenU6lQIX+wdcnJyS6xvIDiz4ZrxEwj6cNrPS5Eep/tfO02hkOc/kSJdbyM5VzIE7XFub4/61IAFdh0HygFLynEdnDQ5yXXzhIN7gDG6nDadNLPgj5FGHTitHpXBAtlThrB4iO4jx3v1rfPzT68y6RSXFb2n3LCL7h10mUovKxRm5gz2S2QrHdQ2NiZloNMBsxK9sska9RokmlnoFSqUsycwFxbaRlmEba2Cdj+/N88GNEMbKBeRP2TvJ8/BIFO3RY/cHcPk8XxV50giP0bBNq3ZOtXTMaVHD86wLm3+BD35yk1vXV5h1Wgg7/nwvBlHkSZwq++0KldNDimdH7GV6PM8PcPq8RGMhvB4HVtF/QSsIQo1ep0Q2L/ScpzgIUxwvs7m9zs8/WmXZb8BQTdFOX/DlbpJnR1lMHj8mjw+vx4XfY1fSNJWOkIMaTUEQSnn2U5Aom1jb2eHmvTusRGdY8L+kF4OQXZZoF1LUE/skzzM8uWiTbU2YiYQIREShJBMOs1EJKhwPWzRraQr5Q7KVPsn2HEPrAh/e3+TD+8v45A52cW1wnGB/74RCo8/A7EZrdxHyufG6bVOCgKQQBDFvkvkaB6kOkmGGha07LK9tsxH1shb9tmZNl5UU+y16uVMaqVOenZV4eFIFiwNPKIDH7cLjtGI16ZiMewwHdeqlY0qlc87KVg4rAeYWV/nJR6JQkp8ZbRdDt8r57gGJg0NKYxsV2YbH6yEc9CqFkkRhSXncZdDJ0ajlOc/kSRYaGHxb2GbvsLW6wN2NkFJJUURvfB238F2X47/u79VujjJSLTGNgdrP8uRJnuZAi202iNPnwmHRYGFARzTnymdI13Wct2z455fYun2D5aVZZl0W/HZROO7t8x4Ia1QJwos5KWIRhh2lnauIUk6fnZIvVym2hojge5PZgtFoVtzd0+D0AbLcpdntUqr30Fh8/3975/LcRpX98a+kfrfesiS/4jiJyRAmgZlk4EexZMOGDStW/HkUG6pYUbCjiiqoYkGxm1BhwiS29Wo9LfX7If3qXMkue2LHDuPBiXK6SpWH5e7bn3tu97nnnnu+qG/dxcbmTdxaL2K7qiMe7iPu7uK3p208/HcHdhBD1nVkFFWUWCZlRZEpm6KkrD68oCdEcIbhOlY3buD/3n0Df9lZg3nmEsO88ZTkSC+rkESaGr+ju/8Eu10HT7sOUrIKTTcgyYsSwynKxg+QxC5GNmlMhMhkt6EV38LO9gbevl3DihYhNWrioLOPh/9q4rddC5BJEJ1K/iqQqVwxJSvSEsnURRR24AQeLLuCcbyKt9+5jQf/eBN1mj3KsljHPfUQUsPU9gBOv4WD5u9oNtt41BiJl4xumlCIlyifS+WRqWxuAD+cYOIM4MYqAmkHZukGHry9hb/fqUMP+pBtC0/+vYeHj3bRm7iIUhJm0rxsM5Vvnuu309riCHHcR28iYX+QRa6yiXfuv4U3b19HLauiaj5HrGmxNk9VLKn65rjzFI+edvHwiYVpKgPVMJBRVdH2uWY85WAE8Pw+HP8AdlTFZLaFnZ2beO8ft7BdVaF5Q4SDDh49eozHj5/CmabgT9PIyCoUhZQJF7NZ0HasMbzARXuYQt9RceP2m/jLvbvYqpexUTKQU+UzwvSHiVczRJMugsEuWo0mfv29hb3OAVKaAiqoJEqLi3LFZO+UQzJBGLRhBzP0vFVA28Df3rmNv71zHRUpQZ529DR2sUvjxhqg7yXHxo06z2egEOyMdmC4QkTMGgVIaSVs3LqHzetv4OZqQdRhoOWF05cYDnMwAkwnHfijBn573MA//7UPhyTUhV0qQohLlDAXZkc5N31E4RCWY6AzLmPt2jbuP7iDm5srqMgRjNhBZ/cxrL3fsdf30Bx6QoxMM+YcKHeD1qIpehEnHkaTMcaeB6WwA7P6V9y6voG7t2qoFXWRlHl8Z+6f+8p/sauxg0CBIQuxS8qiu3j88Al6QxeBIiOWKNeKCigmCCdjBKRkq1TgGutYv76Ft+5s49p6BSVNEtUUly334NCS2EE4GlNz4SAKg/qk1HbQxaDXQrPZQKfbw2AcYWgnmGUU8fDIFksolstQaQtayoeqm9Dz68iXaqLICiUHpgMbs2CCYbeJbrcBy+qKSl39kQs3pPmUBjW7AiNfQakwQ6VIWvYaJp6JQrGGG29siFmMnqZQ13MGv3jRUvEfig4MhaKe1W6g1dqH1XfQPSC5apJTkiCpJvLlFeTyeZh6CF1NMJMqmEl11KoVbG2UUdDTSJPMszNCv9sQn3aHhIMGOHBiTPw0UpIBxSgjX9BRXUnDNDKwXRV+aIrSxtdvXUPBUJGXpEWBnzPaL5JEaZnERuQOhQJjp72HjtWZt33oIIjTiGYZ6LkyzGIN+ZyEvBmKGv9+XEZGreDGjZpIitOmIeTYhz3qYNBromu10e5Y6PbHOPBmcKI0MlJWKBSWKxoqFRXTqQTbTgtBpc3tLayu1USp4jyVGj6zhOpcXlvsn/bGCN05q26nIQpDkcDXyJ4rC07TOvRCHdlCEcV8grxJOzpMOGEOtdU6bu7MK1SqSQj4FNloiplqq9VGq90RwkEjJ0E0VYT8smaaKK8UkM0aiKIpkjiFyuoaqhtbqBZyqOQ06PL8oXW22ZAkNlWUtOGMe+hb+yIy0+oMYHUHmAQpuGEGGa0ILVtBoaCiWk4gKxIc18AsXcC1G+vY2l5FTkrDTE0R2H24B5ZInmy15hz6doQDd4ZpSkZa0pET46YCRUkhPQug6AaypQ0UynXUSlnUSqZ4wQq/+SyToZ1HQs7bwQGpUHbpWh20O10xtkYeECQyZL0APZtDtSKjVJIQRQomjoJiZQWbN7ZQqxSQV1LQUxH8cR++3UOruY92k7YwkmgVCW4BSYpEqw7HDUWFIuhqjLSyAii0vbGMzbUiilntyLl5sVf11XybHQRKsfHEZ9xvYdjZg9VpodHpwRpMMPFmQmgsLRmQtSLKaxtYubaNtXoF67WCWDojLQZKZmQHgZz/Zayk+MzYpCxxX2SK2yMLvfYurI6Fdt9DdxQgSatISRpypTrK1VXkKVtdjaEqNPPKQ9GyyGc1ZA0VmRnNeCmJsIfAbsPqdLC334HVG2PsA8FUhZpbhVmso7aiiqzq1CwD35egaibKtRLyhSyUVErMTM49aHdFQgWcXBx0Gxh199DsHGDfGmPizZUFKUu3UF1HqVxBOTdDwaQ8PB3RzEQ2a6JMoWxVQmYhpBS4VN7Ywv5+C40m1WKglxUwk7JQzRUUKwVsrBoo5lVEQQpxlEa+XEKhWoYhz5cXKCP+3IOiIEmEwB1gMmxg2GtjrzVEo30APwbCRIKeryFXXke5bKJaBFQljSBUgbSOcqWISiUn6uZLouz/CLHfF+dpNppodwboTWKM/RRSSg6aUUC1VsDqahFyWkIcJJBVXbSdnCdaf6cdG3Q8t/WLKMg0obVKykuhF7uFvX0L/ZEvVECTtA6jtIF8qYp6RUKlQDFrCX4gwcznUamWkDU1yCRuRNuuaEthMEJ7fx/N5j6sgYfuQSgUFiEZMHNFVOs1FEt5SKlE7BLRc3kYVFdCpxwR5Zl6FadHcBZVQUMbvt2BPWpjb6+NRqODAw8Ye1T3oQQtt4pKJYv1ugrTkBH5pAyqoFguorBShCZlxJbOVOIC0QSTYRfdFj1sO2gNfPQmkfg+OZX5Sg2V6jpyJm33DYUEdkbNQ9ZzYukqZ2iLXejnWcw8hyXxh4jcLqx2C439Jjr9CQaTGE4kQzHLMHJFrNdzqNXI0DOI/ZRQT82vlJE1DZGIRsWcaAmBnI6BtYdBZw+t7gFaPRsTd4pIyLLnUFxZF5OCcg4omuT06EiQhWmaKBVJd+N5UZvz7ufP/zk7CCL8KhKmRS6U00W/28Y+2ZE1wtChCUUGsl6GnquivrGKzWvrKBezot4G2c7zHNk/v0cv/4ocQTiFKT14hChO4MF3bXgezcBjeAEpxmVE0RlV1aHqBhSRQDcVCngpoX4nQyG9cFLvm9G66xQJzXYiT5zHth14foQwmSGZScjIhngx6VoaBhUsQJqq2wolQFXXhJ49RcQvlP9C2wgp63waI/Qd+J4N1wvheCFCqp8wI29YhqKZUEnHQQFUmYaHhNlMEgqEmkprrmT48wcwRSXi0INju7BdD0GYIKB6RymKqE8SAAAGVklEQVQJaVmHqiowDQmKmsEsTiGZ0nKMKmR2RZ0Gsc3vAgeF7EW1QR9R4CLwXdhUk98NQdV2qcKZpOiQSQdBlaCrlDWcQpxkhGKiSopr2uFa4LyENTl6vu/BcRy4LlXlm4oqlFTLIJMh2WQFhkHh7zRm8UyoLpJqm6zIi10mF2n7PJJAWz6T0BXKlI7rw3aIVYxQlCGYR26URT+rKoUuM4inKXEtTVPn6o+ElR5Y01AUZ3FtR7TdCyJRyTGZLlQtFVo2mrOnfqIPLVuJJRQKjUoXdMrE1kOKglBJYlqvdzGxXTiOJ+yF2p7OaKI0tkb1O4yMOH9CKQxIQ9FVYUfUD8IJpNyGJEQY+vAcGjcu3CAW+iEzzLeHyqohlrxkmUpHT+d7zqk+Ay0NCFGuCzhlwpwW3CkRkQpQudRuF54Xin6Op2mhmyHJGgx6mOuKsENSF6caHLKmQZbn0S1aARPRQxJhc+2jceN683E6paI5GRmqloVCti3PQLmuNAZIQp2W77SFzZzrUF5gKPxZX2EH4dCOyC58MQZ8eu7YLlwvQBDN5nZEhboUHYZhwMiZYvJApciXWcWRlxguMgoXdbrn2/fpJXD4S4cFMeaZKSdfgKcVy6CHmTiD2Nstzna0PX3xEjrtRXrRl+tpUZDjbT7cT76YD88n9KcX9aAaBSeP/2j7/J/zY9G+Z39nXsjpjx2HnBd/Hm/7EY/T2n46d8F7wX7+58l7P7Wdl8L98LrHWZ1RSOXU681t5VnbO8b2md/7bwq1LGzzyE6P9d4L9fNxezlj3Jx6v3+07Re43qKw2El7PMtejrf59DF/mmn/cXv/Y6PkMn6LHYTjFC9iR2Qzpz3zL6M3Xs5zcATh5ewXbhUTYAJM4H9KgB2E/ynepTg5OwhL0Y18E0yACTCBFyPADsKL8Xodv80OwuvY63zPTIAJvPYE2EF47U3gXADsIJyLiL/ABJgAE1g+AuwgLF+fXvYdsYNw2UT5fEyACTCBV4AAOwivQCddcRPZQbjiDuDLMwEmwASuggA7CFdB/dW6JjsIr1Z/cWuZABNgApdCgB2ES8G41CdhB2Gpu5dvjgkwASZwOgF2ENgyziPADsJ5hPjnTIAJMIElJMAOwhJ26iXfEjsIlwyUT8cEmAATeBUIsIPwKvTS1baRHYSr5c9XZwJMgAlcCQF2EK4E+yt1UXYQXqnu4sYyASbABC6HADsIl8Nxmc/CDsIy9y7fGxNgAkzgDALsILBpnEeAHYTzCPHPmQATYAJLSIAdhCXs1Eu+pUtzECaTCdbW1vDee+/hk08+wbvvvvtfSP5e8l3y6ZgAE2ACTOAEgfF4jB9++AE//vgjNjc3sbGxga2tLWxvbyOfzzMtJgDP8/Dtt9/i888/x9OnT4UE/Z07d/DZZ5/ho48+QiaTQTqdFqRSM/opgOl0Ctu20W638dVXX+GLL75Ar9cTRnXr1i28//772NnZOfpF5swEmAATYAIvFwGaHf766694+PAhKpUKyuUyarUa6vU6dF1/uRrLrbkSAmEY4ueff8b333+P0WgERVFw7969F3cQDr2LbDYrDKxQKFzJDfFFmQATYAJM4HwCcRxjOBxiMBhA0zTxIcfAMAxIknT+CfgbS0+AggE0+W82myJaQO/1Bw8enO8gOI4Dy7Lw9ddf48svv8STJ0/g+75YVlBVFbIsLz08vkEmwASYwKtKgB7+URSBZokUJqYXAH3IOaDnOB9MgBYNyD6CIBCOI0WZ7t+/j08//RQffvihsJtTlxgoPNXv9/Hdd9/hm2++we7urjhJkiQn1iUYMRNgAkyACbx8BOjhT04CfeigBz05Boefl6/F3KKrIEDvdPqYpikchLt37+Ljjz/GBx98cGQz1K6jHAQyLIoWUBbsL7/8gp9++klEE8hBoLAVH0yACTABJsAEmMDyEKAIQi6Xw82bN4VzQI7CcWfyhINAjgA5BOQY0PoELTmQl3HojS4PFr4TJsAEmAATYAKvNwFKG6D0AcpDoB0v1WpVADlcjjpyEOg/FxsahENAfz/89+uNkO+eCTABJsAEmMByEjiMGBwuRx2/yxMOwnEngZ2D5TQGvismwASYABNgAiccgUUC638msj7jIDA2JsAEmAATYAJMgAmwg8A2wASYABNgAkyACTxD4P8BDBm9IDKzwcYAAAAASUVORK5CYII=;" vertex="1" parent="1">
          <mxGeometry x="930" y="495.69" width="190" height="128.62" as="geometry" />
        </mxCell>
        <mxCell id="s-YMFUuvhOY8qppPqjC8-55" value="&lt;font color=&quot;#b5739d&quot; style=&quot;font-size: 18px;&quot; face=&quot;Comic Sans MS&quot;&gt;&lt;i&gt;数据链路层&lt;/i&gt;&lt;/font&gt;" style="text;strokeColor=none;fillColor=none;html=1;fontSize=24;fontStyle=1;verticalAlign=middle;align=center;dashed=1;fillStyle=dashed;fontFamily=Helvetica;fontColor=default;" vertex="1" parent="1">
          <mxGeometry x="80" y="300" width="100" height="40" as="geometry" />
        </mxCell>
        <mxCell id="s-YMFUuvhOY8qppPqjC8-56" value="&lt;font color=&quot;#b5739d&quot; style=&quot;font-size: 18px;&quot; face=&quot;Comic Sans MS&quot;&gt;&lt;i&gt;网络层&lt;/i&gt;&lt;/font&gt;" style="text;strokeColor=none;fillColor=none;html=1;fontSize=24;fontStyle=1;verticalAlign=middle;align=center;dashed=1;fillStyle=dashed;fontFamily=Helvetica;fontColor=default;" vertex="1" parent="1">
          <mxGeometry x="70" y="410" width="100" height="40" as="geometry" />
        </mxCell>
      </root>
    </mxGraphModel>
  </diagram>
</mxfile>
